<svg width="792" height="1079" viewBox="0 0 792 1079" fill="none" xmlns="http://www.w3.org/2000/svg">
<path fill-rule="evenodd" clip-rule="evenodd" d="M276.6 948.113L763.647 948V1046.67H756.047V1054.18L269 1054.29V955.626H276.6V948.113ZM748.447 963.026L276.6 963.139V1046.78L748.447 1046.67V963.026Z" fill="#010B17"/>
<path d="M276.977 963.024L747.728 962.911V1046.34L276.977 1046.45V963.024Z" fill="white"/>
<path d="M321.117 1016.03H318.455V995.313H321.117V1016.03ZM333.126 1011.69C333.126 1012.38 333.415 1012.96 333.994 1013.43C334.592 1013.89 335.286 1014.12 336.077 1014.12C337.196 1014.12 338.189 1013.7 339.057 1012.88C339.944 1012.05 340.388 1011.07 340.388 1009.95C339.559 1009.3 338.401 1008.97 336.916 1008.97C335.836 1008.97 334.929 1009.23 334.196 1009.75C333.483 1010.27 333.126 1010.92 333.126 1011.69ZM336.569 1001.39C338.536 1001.39 340.089 1001.92 341.227 1002.98C342.365 1004.02 342.934 1005.46 342.934 1007.29V1016.03H340.388V1014.06H340.272C339.173 1015.68 337.707 1016.49 335.874 1016.49C334.312 1016.49 333 1016.03 331.939 1015.1C330.898 1014.18 330.377 1013.02 330.377 1011.63C330.377 1010.17 330.927 1009 332.026 1008.13C333.145 1007.26 334.63 1006.83 336.482 1006.83C338.064 1006.83 339.366 1007.12 340.388 1007.7V1007.09C340.388 1006.16 340.022 1005.38 339.289 1004.75C338.556 1004.09 337.697 1003.76 336.713 1003.76C335.228 1003.76 334.052 1004.39 333.184 1005.64L330.84 1004.17C332.132 1002.31 334.042 1001.39 336.569 1001.39ZM348.598 1016.03H345.937V1001.85H348.483V1003.82H348.598C349.003 1003.12 349.621 1002.55 350.45 1002.08C351.299 1001.62 352.138 1001.39 352.967 1001.39C354.009 1001.39 354.925 1001.63 355.716 1002.11C356.507 1002.59 357.086 1003.26 357.452 1004.11C358.629 1002.3 360.259 1001.39 362.342 1001.39C363.981 1001.39 365.245 1001.89 366.132 1002.89C367.019 1003.9 367.463 1005.32 367.463 1007.18V1016.03H364.801V1007.58C364.801 1006.25 364.56 1005.29 364.078 1004.72C363.596 1004.12 362.785 1003.82 361.647 1003.82C360.625 1003.82 359.767 1004.25 359.072 1005.12C358.378 1005.99 358.031 1007.01 358.031 1008.19V1016.03H355.369V1007.58C355.369 1006.25 355.128 1005.29 354.646 1004.72C354.163 1004.12 353.353 1003.82 352.215 1003.82C351.193 1003.82 350.334 1004.25 349.64 1005.12C348.946 1005.99 348.598 1007.01 348.598 1008.19V1016.03ZM378.871 1011.69C378.871 1012.38 379.161 1012.96 379.739 1013.43C380.337 1013.89 381.032 1014.12 381.823 1014.12C382.941 1014.12 383.935 1013.7 384.803 1012.88C385.69 1012.05 386.134 1011.07 386.134 1009.95C385.304 1009.3 384.147 1008.97 382.662 1008.97C381.581 1008.97 380.675 1009.23 379.942 1009.75C379.228 1010.27 378.871 1010.92 378.871 1011.69ZM382.314 1001.39C384.282 1001.39 385.835 1001.92 386.973 1002.98C388.111 1004.02 388.68 1005.46 388.68 1007.29V1016.03H386.134V1014.06H386.018C384.918 1015.68 383.452 1016.49 381.62 1016.49C380.058 1016.49 378.746 1016.03 377.685 1015.1C376.643 1014.18 376.123 1013.02 376.123 1011.63C376.123 1010.17 376.672 1009 377.772 1008.13C378.891 1007.26 380.376 1006.83 382.228 1006.83C383.809 1006.83 385.111 1007.12 386.134 1007.7V1007.09C386.134 1006.16 385.767 1005.38 385.034 1004.75C384.301 1004.09 383.443 1003.76 382.459 1003.76C380.974 1003.76 379.797 1004.39 378.929 1005.64L376.586 1004.17C377.878 1002.31 379.788 1001.39 382.314 1001.39ZM406.271 1016.26C405.114 1016.26 404.15 1015.9 403.378 1015.19C402.626 1014.48 402.24 1013.48 402.221 1012.21V1004.28H395.624V1011.43C395.624 1012.26 395.788 1012.86 396.116 1013.22C396.463 1013.59 396.868 1013.77 397.331 1013.77C397.775 1013.77 398.199 1013.69 398.604 1013.51L399.443 1015.88C398.749 1016.14 397.939 1016.26 397.013 1016.26C395.855 1016.26 394.891 1015.9 394.119 1015.19C393.367 1014.48 392.981 1013.48 392.962 1012.21V1004.28H390.474V1001.85H392.962V997.512H395.624V1001.85H402.221V997.512H404.883V1001.85H408.355V1004.28H404.883V1011.34C404.883 1012.29 405.066 1012.93 405.432 1013.28C405.799 1013.61 406.214 1013.77 406.676 1013.77C406.889 1013.77 407.091 1013.75 407.284 1013.71C407.496 1013.66 407.689 1013.59 407.863 1013.51L408.702 1015.88C408.007 1016.14 407.197 1016.26 406.271 1016.26ZM417.12 1016.49C415.037 1016.49 413.32 1015.78 411.97 1014.35C410.619 1012.92 409.944 1011.12 409.944 1008.94C409.944 1006.78 410.6 1004.99 411.912 1003.56C413.224 1002.11 414.902 1001.39 416.946 1001.39C419.049 1001.39 420.717 1002.07 421.952 1003.44C423.206 1004.79 423.832 1006.69 423.832 1009.14L423.804 1009.43H412.664C412.703 1010.82 413.166 1011.94 414.053 1012.79C414.94 1013.64 416.001 1014.06 417.236 1014.06C418.933 1014.06 420.264 1013.21 421.228 1011.52L423.601 1012.67C422.964 1013.87 422.077 1014.8 420.939 1015.48C419.82 1016.15 418.547 1016.49 417.12 1016.49ZM412.867 1007.23H420.997C420.92 1006.25 420.515 1005.44 419.782 1004.8C419.068 1004.15 418.104 1003.82 416.888 1003.82C415.885 1003.82 415.017 1004.13 414.284 1004.75C413.571 1005.36 413.098 1006.19 412.867 1007.23ZM426.267 1001.85H428.813V1003.82H428.929C429.334 1003.12 429.951 1002.55 430.78 1002.08C431.629 1001.62 432.507 1001.39 433.413 1001.39C435.149 1001.39 436.48 1001.89 437.406 1002.89C438.351 1003.88 438.824 1005.29 438.824 1007.12V1016.03H436.162V1007.29C436.104 1004.98 434.937 1003.82 432.661 1003.82C431.6 1003.82 430.713 1004.25 429.999 1005.12C429.285 1005.97 428.929 1006.99 428.929 1008.19V1016.03H426.267V1001.85ZM448.314 1014.06C449.626 1014.06 450.696 1013.59 451.526 1012.64C452.394 1011.7 452.828 1010.46 452.828 1008.94C452.828 1007.46 452.394 1006.23 451.526 1005.27C450.677 1004.3 449.606 1003.82 448.314 1003.82C447.041 1003.82 445.97 1004.3 445.102 1005.27C444.234 1006.23 443.8 1007.46 443.8 1008.94C443.8 1010.45 444.234 1011.67 445.102 1012.62C445.97 1013.58 447.041 1014.06 448.314 1014.06ZM447.88 1016.49C446.028 1016.49 444.437 1015.76 443.106 1014.29C441.794 1012.81 441.138 1011.02 441.138 1008.94C441.138 1006.86 441.794 1005.07 443.106 1003.59C444.437 1002.12 446.028 1001.39 447.88 1001.39C448.922 1001.39 449.867 1001.61 450.715 1002.05C451.583 1002.5 452.249 1003.09 452.712 1003.82H452.828L452.712 1001.85V995.313H455.374V1016.03H452.828V1014.06H452.712C452.249 1014.79 451.583 1015.38 450.715 1015.83C449.867 1016.27 448.922 1016.49 447.88 1016.49ZM462.062 996.962C462.062 997.483 461.879 997.927 461.513 998.293C461.146 998.66 460.702 998.843 460.182 998.843C459.661 998.843 459.217 998.66 458.851 998.293C458.484 997.927 458.301 997.483 458.301 996.962C458.301 996.441 458.484 995.998 458.851 995.631C459.217 995.265 459.661 995.081 460.182 995.081C460.702 995.081 461.146 995.265 461.513 995.631C461.879 995.998 462.062 996.441 462.062 996.962ZM461.513 1001.85V1016.03H458.851V1001.85H461.513ZM464.977 1001.85H467.523V1003.82H467.639C468.044 1003.12 468.661 1002.55 469.49 1002.08C470.339 1001.62 471.217 1001.39 472.123 1001.39C473.859 1001.39 475.19 1001.89 476.116 1002.89C477.061 1003.88 477.534 1005.29 477.534 1007.12V1016.03H474.872V1007.29C474.814 1004.98 473.647 1003.82 471.371 1003.82C470.31 1003.82 469.423 1004.25 468.709 1005.12C467.995 1005.97 467.639 1006.99 467.639 1008.19V1016.03H464.977V1001.85ZM486.883 1014.06C488.194 1014.06 489.265 1013.59 490.094 1012.64C490.962 1011.7 491.396 1010.46 491.396 1008.94C491.396 1007.46 490.962 1006.23 490.094 1005.27C489.246 1004.3 488.175 1003.82 486.883 1003.82C485.61 1003.82 484.539 1004.3 483.671 1005.27C482.803 1006.23 482.369 1007.46 482.369 1008.94C482.369 1010.45 482.803 1011.67 483.671 1012.62C484.539 1013.58 485.61 1014.06 486.883 1014.06ZM486.796 1022.74C486.005 1022.74 485.262 1022.64 484.568 1022.42C483.874 1022.23 483.237 1021.95 482.658 1021.58C482.099 1021.22 481.617 1020.78 481.212 1020.28C480.807 1019.78 480.498 1019.22 480.286 1018.6L482.803 1017.56C483.092 1018.39 483.594 1019.06 484.308 1019.56C485.021 1020.06 485.851 1020.31 486.796 1020.31C488.242 1020.31 489.371 1019.88 490.181 1019.01C490.991 1018.14 491.396 1016.95 491.396 1015.42V1014.06H491.281C490.779 1014.81 490.094 1015.41 489.226 1015.86C488.378 1016.28 487.452 1016.49 486.449 1016.49C484.597 1016.49 483.006 1015.77 481.675 1014.32C480.363 1012.84 479.707 1011.04 479.707 1008.94C479.707 1006.84 480.363 1005.05 481.675 1003.59C483.006 1002.12 484.597 1001.39 486.449 1001.39C487.452 1001.39 488.378 1001.61 489.226 1002.05C490.094 1002.48 490.779 1003.07 491.281 1003.82H491.396V1001.85H493.942V1015.42C493.942 1017.7 493.296 1019.48 492.004 1020.77C490.692 1022.09 488.956 1022.74 486.796 1022.74ZM505.108 1016.03L505.947 1010.47H502.591L503.082 1007.52H506.381L506.815 1004.48H503.459L503.922 1001.53H507.249L508.059 996.239H511.271L510.461 1001.53H513.701L514.511 996.239H517.694L516.913 1001.53H520.24L519.777 1004.48H516.479L516.016 1007.52H519.401L518.938 1010.47H515.582L514.743 1016.03H511.56L512.37 1010.47H509.13L508.319 1016.03H505.108ZM509.506 1007.58H512.862L513.354 1004.43H509.998L509.506 1007.58ZM541.137 1012.7C540.114 1013.94 538.909 1014.88 537.52 1015.54C536.131 1016.17 534.578 1016.49 532.862 1016.49C531.319 1016.49 529.882 1016.21 528.551 1015.65C527.239 1015.09 526.101 1014.33 525.136 1013.37C524.172 1012.4 523.41 1011.26 522.851 1009.95C522.291 1008.62 522.012 1007.19 522.012 1005.67C522.012 1004.15 522.291 1002.73 522.851 1001.42C523.41 1000.09 524.172 998.939 525.136 997.975C526.101 997.01 527.239 996.248 528.551 995.689C529.882 995.13 531.319 994.85 532.862 994.85C534.521 994.85 535.977 995.139 537.231 995.718C538.504 996.297 539.632 997.136 540.616 998.235L537.867 1000.9C537.25 1000.18 536.536 999.614 535.726 999.19C534.935 998.766 533.99 998.553 532.891 998.553C531.926 998.553 531.02 998.727 530.171 999.074C529.322 999.402 528.58 999.875 527.943 1000.49C527.326 1001.11 526.834 1001.86 526.467 1002.75C526.101 1003.62 525.918 1004.59 525.918 1005.67C525.918 1006.75 526.101 1007.74 526.467 1008.62C526.834 1009.49 527.326 1010.23 527.943 1010.85C528.58 1011.47 529.322 1011.95 530.171 1012.3C531.02 1012.62 531.926 1012.79 532.891 1012.79C534.048 1012.79 535.07 1012.56 535.958 1012.09C536.864 1011.61 537.665 1010.94 538.359 1010.07L541.137 1012.7ZM562.102 1012.7C561.08 1013.94 559.874 1014.88 558.486 1015.54C557.097 1016.17 555.544 1016.49 553.827 1016.49C552.284 1016.49 550.847 1016.21 549.516 1015.65C548.204 1015.09 547.066 1014.33 546.102 1013.37C545.138 1012.4 544.376 1011.26 543.816 1009.95C543.257 1008.62 542.977 1007.19 542.977 1005.67C542.977 1004.15 543.257 1002.73 543.816 1001.42C544.376 1000.09 545.138 998.939 546.102 997.975C547.066 997.01 548.204 996.248 549.516 995.689C550.847 995.13 552.284 994.85 553.827 994.85C555.486 994.85 556.942 995.139 558.196 995.718C559.469 996.297 560.598 997.136 561.581 998.235L558.833 1000.9C558.215 1000.18 557.502 999.614 556.692 999.19C555.901 998.766 554.956 998.553 553.856 998.553C552.892 998.553 551.985 998.727 551.136 999.074C550.288 999.402 549.545 999.875 548.909 1000.49C548.291 1001.11 547.799 1001.86 547.433 1002.75C547.066 1003.62 546.883 1004.59 546.883 1005.67C546.883 1006.75 547.066 1007.74 547.433 1008.62C547.799 1009.49 548.291 1010.23 548.909 1010.85C549.545 1011.47 550.288 1011.95 551.136 1012.3C551.985 1012.62 552.892 1012.79 553.856 1012.79C555.014 1012.79 556.036 1012.56 556.923 1012.09C557.83 1011.61 558.63 1010.94 559.325 1010.07L562.102 1012.7ZM565.238 995.313H572.24C573.879 995.313 575.355 995.564 576.667 996.065C577.978 996.567 579.097 997.28 580.023 998.206C580.949 999.113 581.653 1000.2 582.135 1001.48C582.637 1002.75 582.887 1004.15 582.887 1005.67C582.887 1007.21 582.637 1008.62 582.135 1009.9C581.653 1011.17 580.949 1012.26 580.023 1013.16C579.097 1014.07 577.978 1014.78 576.667 1015.28C575.355 1015.78 573.879 1016.03 572.24 1016.03H565.238V995.313ZM572.066 1012.33C573.204 1012.33 574.207 1012.17 575.075 1011.86C575.943 1011.53 576.667 1011.08 577.245 1010.5C577.824 1009.92 578.258 1009.23 578.547 1008.42C578.837 1007.59 578.981 1006.67 578.981 1005.67C578.981 1004.67 578.837 1003.76 578.547 1002.95C578.258 1002.12 577.824 1001.42 577.245 1000.84C576.667 1000.26 575.943 999.817 575.075 999.508C574.207 999.18 573.204 999.016 572.066 999.016H569.144V1012.33H572.066ZM586.034 1016.03V995.313H593.325C594.309 995.313 595.225 995.477 596.074 995.805C596.942 996.113 597.694 996.557 598.331 997.136C598.967 997.714 599.469 998.409 599.835 999.219C600.202 1000.01 600.385 1000.89 600.385 1001.85C600.385 1002.84 600.202 1003.73 599.835 1004.54C599.469 1005.33 598.967 1006.02 598.331 1006.6C597.694 1007.18 596.942 1007.63 596.074 1007.96C595.225 1008.27 594.309 1008.42 593.325 1008.42H589.94V1016.03H586.034ZM593.383 1004.72C594.405 1004.72 595.177 1004.43 595.698 1003.85C596.219 1003.27 596.479 1002.6 596.479 1001.85C596.479 1001.49 596.411 1001.13 596.276 1000.78C596.161 1000.43 595.968 1000.14 595.698 999.884C595.447 999.614 595.129 999.402 594.743 999.248C594.357 999.094 593.904 999.016 593.383 999.016H589.94V1004.72H593.383ZM610.737 1016.49C609.522 1016.49 608.413 1016.3 607.41 1015.91C606.426 1015.51 605.587 1014.93 604.893 1014.18C604.198 1013.43 603.658 1012.52 603.272 1011.46C602.887 1010.38 602.694 1009.15 602.694 1007.78V995.313H606.6V1008.01C606.6 1008.71 606.687 1009.35 606.86 1009.92C607.034 1010.5 607.294 1011 607.641 1011.43C607.989 1011.85 608.423 1012.19 608.943 1012.44C609.464 1012.67 610.062 1012.79 610.737 1012.79C611.432 1012.79 612.039 1012.67 612.56 1012.44C613.081 1012.19 613.515 1011.85 613.862 1011.43C614.209 1011 614.47 1010.5 614.643 1009.92C614.817 1009.35 614.904 1008.71 614.904 1008.01V995.313H618.81V1007.78C618.81 1009.08 618.617 1010.26 618.231 1011.34C617.865 1012.4 617.325 1013.32 616.611 1014.09C615.916 1014.84 615.068 1015.43 614.065 1015.86C613.081 1016.28 611.972 1016.49 610.737 1016.49ZM622.512 995.313H627.054L635.387 1009.2H635.619L635.387 1005.21V995.313H639.264V1016.03H635.156L626.36 1001.36H626.128L626.36 1005.35V1016.03H622.512V995.313ZM647.327 999.016V1003.82H655.631V1007.52H647.327V1012.33H656.557V1016.03H643.421V995.313H656.557V999.016H647.327ZM659.396 1016.03V1012.59C660.534 1011.47 661.585 1010.43 662.549 1009.46C662.955 1009.06 663.369 1008.64 663.794 1008.22C664.218 1007.79 664.613 1007.4 664.98 1007.03C665.346 1006.66 665.674 1006.34 665.964 1006.05C666.253 1005.74 666.475 1005.5 666.629 1005.32C666.938 1004.96 667.208 1004.63 667.439 1004.34C667.69 1004.05 667.883 1003.77 668.018 1003.5C668.172 1003.21 668.288 1002.93 668.365 1002.66C668.442 1002.37 668.481 1002.06 668.481 1001.74C668.481 1001.1 668.23 1000.55 667.729 1000.09C667.227 999.605 666.542 999.364 665.674 999.364C664.806 999.364 664.131 999.614 663.649 1000.12C663.167 1000.6 662.839 1001.15 662.665 1001.77L659.222 1000.35C659.376 999.826 659.627 999.296 659.974 998.756C660.322 998.197 660.765 997.705 661.305 997.28C661.845 996.837 662.482 996.48 663.215 996.21C663.967 995.92 664.806 995.776 665.732 995.776C666.735 995.776 667.642 995.93 668.452 996.239C669.262 996.528 669.947 996.933 670.506 997.454C671.066 997.975 671.5 998.592 671.808 999.306C672.117 1000 672.271 1000.75 672.271 1001.56C672.271 1002.8 671.963 1003.94 671.345 1004.98C670.747 1006 670.014 1006.95 669.146 1007.84L666.658 1010.33C666.002 1010.99 665.26 1011.72 664.43 1012.53L664.546 1012.7H672.56V1016.03H659.396ZM682.02 1016.49C681.267 1016.49 680.515 1016.39 679.763 1016.17C679.03 1015.96 678.345 1015.63 677.708 1015.19C677.072 1014.75 676.512 1014.2 676.03 1013.54C675.567 1012.87 675.22 1012.07 674.989 1011.14L678.432 1009.81C678.644 1010.77 679.049 1011.54 679.647 1012.12C680.264 1012.7 681.045 1012.99 681.991 1012.99C682.454 1012.99 682.878 1012.91 683.264 1012.76C683.669 1012.59 684.016 1012.35 684.305 1012.07C684.614 1011.78 684.845 1011.44 685 1011.05C685.173 1010.65 685.26 1010.2 685.26 1009.72C685.26 1009.26 685.173 1008.83 685 1008.45C684.845 1008.04 684.624 1007.7 684.334 1007.41C684.045 1007.1 683.698 1006.87 683.293 1006.71C682.907 1006.54 682.473 1006.45 681.991 1006.45C681.393 1006.45 680.862 1006.59 680.399 1006.86C679.936 1007.11 679.541 1007.43 679.213 1007.81L675.538 1006.13L676.696 996.239H687.835V999.566H679.849L679.097 1004.2L679.329 1004.25C679.714 1003.93 680.187 1003.65 680.746 1003.41C681.306 1003.18 681.981 1003.07 682.772 1003.07C683.601 1003.07 684.392 1003.23 685.144 1003.56C685.897 1003.87 686.562 1004.31 687.141 1004.89C687.719 1005.47 688.182 1006.17 688.53 1007C688.877 1007.81 689.05 1008.72 689.05 1009.72C689.05 1010.71 688.877 1011.61 688.53 1012.44C688.182 1013.27 687.69 1013.98 687.054 1014.58C686.437 1015.18 685.694 1015.65 684.826 1016C683.977 1016.33 683.042 1016.49 682.02 1016.49Z" fill="black"/>
<path d="M12 885H175.611C190.185 885 202 896.815 202 911.389V1067H12V885Z" fill="white"/>
<rect x="36.5757" y="925.043" width="18.0082" height="7.82196" rx="3.91098" transform="rotate(-35 36.5757 925.043)" fill="#EA4336" stroke="#202125" stroke-width="1.31944"/>
<rect width="18.0082" height="7.82196" rx="3.91098" transform="matrix(0.819152 0.573576 0.573576 -0.819152 36.5757 926.955)" fill="#4285F4" stroke="#202125" stroke-width="1.31944"/>
<rect x="75.0518" y="926.926" width="18.0082" height="7.82196" rx="3.91098" transform="rotate(145 75.0518 926.926)" fill="#FAAB00" stroke="#202125" stroke-width="1.31944"/>
<rect width="18.0082" height="7.82196" rx="3.91098" transform="matrix(-0.819152 -0.573576 -0.573576 0.819152 75.0518 925.043)" fill="#34A853" stroke="#202125" stroke-width="1.31944"/>
<path d="M45.2524 949.094H52.6201C52.6483 949.277 52.6764 949.474 52.7046 949.685C52.7327 949.882 52.7468 950.093 52.7468 950.318C52.7468 951.219 52.6061 952.113 52.3246 953C52.0431 953.886 51.5646 954.674 50.889 955.364C50.1994 956.082 49.3901 956.638 48.4612 957.032C47.5324 957.426 46.4698 957.623 45.2735 957.623C44.1898 957.623 43.1624 957.426 42.1912 957.032C41.2342 956.638 40.3968 956.089 39.679 955.385C38.9612 954.681 38.3912 953.851 37.969 952.894C37.5609 951.923 37.3568 950.867 37.3568 949.727C37.3568 948.587 37.5609 947.539 37.969 946.582C38.3912 945.611 38.9612 944.773 39.679 944.07C40.3968 943.366 41.2342 942.817 42.1912 942.423C43.1624 942.029 44.1898 941.832 45.2735 941.832C46.4275 941.832 47.4901 942.036 48.4612 942.444C49.4464 942.852 50.2698 943.422 50.9312 944.154L49.2635 945.822C48.7709 945.273 48.1868 944.851 47.5112 944.555C46.8498 944.26 46.0968 944.112 45.2524 944.112C44.5346 944.112 43.8449 944.246 43.1835 944.513C42.522 944.78 41.9379 945.16 41.4312 945.653C40.9246 946.131 40.5235 946.716 40.2279 947.405C39.9324 948.095 39.7846 948.869 39.7846 949.727C39.7846 950.586 39.9324 951.36 40.2279 952.05C40.5235 952.739 40.9246 953.33 41.4312 953.823C41.9379 954.301 42.522 954.674 43.1835 954.942C43.8449 955.209 44.5416 955.343 45.2735 955.343C46.2446 955.343 47.0257 955.195 47.6168 954.9C48.222 954.604 48.7286 954.259 49.1368 953.865C49.4324 953.584 49.6927 953.218 49.9179 952.767C50.1431 952.303 50.2909 951.796 50.3612 951.247H45.2524V949.094ZM59.6877 946.603C60.4759 946.603 61.2007 946.744 61.8622 947.025C62.5237 947.293 63.0937 947.673 63.5722 948.165C64.0507 948.658 64.4237 949.242 64.6911 949.917C64.9585 950.593 65.0922 951.325 65.0922 952.113C65.0922 952.901 64.9585 953.633 64.6911 954.308C64.4237 954.984 64.0507 955.568 63.5722 956.061C63.0937 956.553 62.5237 956.94 61.8622 957.222C61.2007 957.489 60.4759 957.623 59.6877 957.623C58.8996 957.623 58.1748 957.489 57.5133 957.222C56.8518 956.94 56.2818 956.553 55.8033 956.061C55.3248 955.568 54.9518 954.984 54.6844 954.308C54.417 953.633 54.2833 952.901 54.2833 952.113C54.2833 951.325 54.417 950.593 54.6844 949.917C54.9518 949.242 55.3248 948.658 55.8033 948.165C56.2818 947.673 56.8518 947.293 57.5133 947.025C58.1748 946.744 58.8996 946.603 59.6877 946.603ZM59.6877 955.448C60.0818 955.448 60.4618 955.371 60.8277 955.216C61.1937 955.061 61.5174 954.843 61.7988 954.562C62.0944 954.28 62.3266 953.936 62.4955 953.527C62.6644 953.105 62.7488 952.634 62.7488 952.113C62.7488 951.592 62.6644 951.128 62.4955 950.72C62.3266 950.297 62.0944 949.946 61.7988 949.664C61.5174 949.383 61.1937 949.164 60.8277 949.01C60.4618 948.855 60.0818 948.777 59.6877 948.777C59.2937 948.777 58.9137 948.855 58.5477 949.01C58.1818 949.164 57.8511 949.383 57.5555 949.664C57.274 949.946 57.0488 950.297 56.88 950.72C56.7111 951.128 56.6266 951.592 56.6266 952.113C56.6266 952.634 56.7111 953.105 56.88 953.527C57.0488 953.936 57.274 954.28 57.5555 954.562C57.8511 954.843 58.1818 955.061 58.5477 955.216C58.9137 955.371 59.2937 955.448 59.6877 955.448ZM71.8975 946.603C72.6857 946.603 73.4105 946.744 74.072 947.025C74.7335 947.293 75.3035 947.673 75.782 948.165C76.2605 948.658 76.6335 949.242 76.9009 949.917C77.1683 950.593 77.302 951.325 77.302 952.113C77.302 952.901 77.1683 953.633 76.9009 954.308C76.6335 954.984 76.2605 955.568 75.782 956.061C75.3035 956.553 74.7335 956.94 74.072 957.222C73.4105 957.489 72.6857 957.623 71.8975 957.623C71.1094 957.623 70.3846 957.489 69.7231 957.222C69.0616 956.94 68.4916 956.553 68.0131 956.061C67.5346 955.568 67.1616 954.984 66.8942 954.308C66.6268 953.633 66.4931 952.901 66.4931 952.113C66.4931 951.325 66.6268 950.593 66.8942 949.917C67.1616 949.242 67.5346 948.658 68.0131 948.165C68.4916 947.673 69.0616 947.293 69.7231 947.025C70.3846 946.744 71.1094 946.603 71.8975 946.603ZM71.8975 955.448C72.2916 955.448 72.6716 955.371 73.0375 955.216C73.4035 955.061 73.7272 954.843 74.0087 954.562C74.3042 954.28 74.5364 953.936 74.7053 953.527C74.8742 953.105 74.9587 952.634 74.9587 952.113C74.9587 951.592 74.8742 951.128 74.7053 950.72C74.5364 950.297 74.3042 949.946 74.0087 949.664C73.7272 949.383 73.4035 949.164 73.0375 949.01C72.6716 948.855 72.2916 948.777 71.8975 948.777C71.5035 948.777 71.1235 948.855 70.7575 949.01C70.3916 949.164 70.0609 949.383 69.7653 949.664C69.4838 949.946 69.2587 950.297 69.0898 950.72C68.9209 951.128 68.8364 951.592 68.8364 952.113C68.8364 952.634 68.9209 953.105 69.0898 953.527C69.2587 953.936 69.4838 954.28 69.7653 954.562C70.0609 954.843 70.3916 955.061 70.7575 955.216C71.1235 955.371 71.5035 955.448 71.8975 955.448ZM83.9807 962.183C83.2629 962.183 82.6225 962.084 82.0596 961.887C81.5107 961.704 81.0322 961.465 80.624 961.17C80.2159 960.874 79.8781 960.543 79.6107 960.177C79.3573 959.811 79.1673 959.46 79.0407 959.122L81.2785 958.214C81.4755 958.763 81.8133 959.206 82.2918 959.544C82.7703 959.896 83.3333 960.072 83.9807 960.072C84.9518 960.072 85.7048 959.776 86.2396 959.185C86.7885 958.594 87.0629 957.778 87.0629 956.736V955.892H86.9362C86.6125 956.356 86.1622 956.743 85.5851 957.053C85.0222 957.363 84.3607 957.517 83.6007 957.517C82.9673 957.517 82.3551 957.384 81.764 957.116C81.1729 956.849 80.6451 956.476 80.1807 955.997C79.7303 955.519 79.3714 954.942 79.104 954.266C78.8366 953.591 78.7029 952.852 78.7029 952.05C78.7029 951.247 78.8366 950.516 79.104 949.854C79.3714 949.178 79.7303 948.601 80.1807 948.123C80.6451 947.644 81.1729 947.271 81.764 947.004C82.3551 946.737 82.9673 946.603 83.6007 946.603C84.3607 946.603 85.0222 946.758 85.5851 947.067C86.1622 947.377 86.6125 947.764 86.9362 948.228H87.0629V946.941H89.3218V956.694C89.3218 957.581 89.1811 958.362 88.8996 959.037C88.6322 959.727 88.2592 960.304 87.7807 960.768C87.3162 961.233 86.7533 961.585 86.0918 961.824C85.4444 962.063 84.7407 962.183 83.9807 962.183ZM84.0651 955.343C84.4451 955.343 84.8181 955.273 85.184 955.132C85.5499 954.991 85.8666 954.78 86.134 954.498C86.4155 954.217 86.6407 953.872 86.8096 953.464C86.9785 953.056 87.0629 952.584 87.0629 952.05C87.0629 951.529 86.9785 951.064 86.8096 950.656C86.6407 950.234 86.4155 949.889 86.134 949.622C85.8666 949.34 85.5499 949.129 85.184 948.988C84.8181 948.834 84.4451 948.756 84.0651 948.756C83.6711 948.756 83.2911 948.834 82.9251 948.988C82.5733 949.129 82.2566 949.34 81.9751 949.622C81.6936 949.903 81.4685 950.248 81.2996 950.656C81.1307 951.064 81.0462 951.529 81.0462 952.05C81.0462 952.57 81.1307 953.035 81.2996 953.443C81.4685 953.851 81.6936 954.196 81.9751 954.477C82.2566 954.759 82.5733 954.977 82.9251 955.132C83.2911 955.273 83.6711 955.343 84.0651 955.343ZM91.8955 957.285V942.17H94.2389V957.285H91.8955ZM106.289 954.815C105.852 955.617 105.233 956.286 104.431 956.821C103.629 957.356 102.643 957.623 101.475 957.623C100.701 957.623 99.9833 957.489 99.3219 957.222C98.6745 956.94 98.1115 956.553 97.633 956.061C97.1545 955.568 96.7815 954.991 96.5141 954.33C96.2467 953.654 96.113 952.915 96.113 952.113C96.113 951.367 96.2396 950.663 96.493 950.002C96.7463 949.326 97.0982 948.742 97.5485 948.25C98.013 947.743 98.5689 947.342 99.2163 947.046C99.8637 946.751 100.581 946.603 101.37 946.603C102.172 946.603 102.883 946.737 103.502 947.004C104.135 947.271 104.67 947.644 105.106 948.123C105.543 948.601 105.873 949.178 106.099 949.854C106.338 950.53 106.457 951.268 106.457 952.071C106.457 952.141 106.457 952.204 106.457 952.261C106.443 952.331 106.436 952.394 106.436 952.451C106.422 952.507 106.415 952.563 106.415 952.62H98.4563C98.4985 953.112 98.6182 953.541 98.8152 953.907C99.0122 954.273 99.2515 954.576 99.533 954.815C99.8285 955.054 100.152 955.23 100.504 955.343C100.856 955.456 101.201 955.512 101.539 955.512C102.214 955.512 102.77 955.35 103.206 955.026C103.643 954.703 104.001 954.301 104.283 953.823L106.289 954.815ZM104.114 950.825C104.086 950.614 104.016 950.382 103.903 950.128C103.804 949.861 103.643 949.622 103.417 949.411C103.206 949.186 102.925 948.996 102.573 948.841C102.235 948.686 101.82 948.608 101.327 948.608C100.652 948.608 100.068 948.813 99.5752 949.221C99.0967 949.615 98.773 950.15 98.6041 950.825H104.114ZM38.0957 967.17H42.9512C44.1475 967.17 45.2172 967.36 46.1601 967.74C47.1172 968.106 47.9264 968.619 48.5879 969.281C49.2635 969.942 49.7772 970.737 50.129 971.666C50.4949 972.595 50.6779 973.616 50.6779 974.727C50.6779 975.839 50.4949 976.86 50.129 977.788C49.7772 978.717 49.2635 979.513 48.5879 980.174C47.9264 980.836 47.1172 981.356 46.1601 981.736C45.2172 982.102 44.1475 982.285 42.9512 982.285H38.0957V967.17ZM42.909 980.005C44.612 980.005 45.9279 979.541 46.8568 978.612C47.7857 977.683 48.2501 976.388 48.2501 974.727C48.2501 973.081 47.7857 971.793 46.8568 970.864C45.9279 969.921 44.612 969.45 42.909 969.45H40.4812V980.005H42.909ZM62.1292 979.815C61.6929 980.617 61.0736 981.286 60.2714 981.821C59.4692 982.356 58.484 982.623 57.3159 982.623C56.5418 982.623 55.824 982.489 55.1625 982.222C54.5151 981.94 53.9522 981.553 53.4736 981.061C52.9951 980.568 52.6222 979.991 52.3548 979.33C52.0873 978.654 51.9536 977.915 51.9536 977.113C51.9536 976.367 52.0803 975.663 52.3336 975.002C52.587 974.326 52.9388 973.742 53.3892 973.25C53.8536 972.743 54.4096 972.342 55.057 972.046C55.7044 971.751 56.4222 971.603 57.2103 971.603C58.0125 971.603 58.7233 971.737 59.3425 972.004C59.9759 972.271 60.5107 972.644 60.947 973.123C61.3833 973.601 61.714 974.178 61.9392 974.854C62.1785 975.53 62.2981 976.268 62.2981 977.071C62.2981 977.141 62.2981 977.204 62.2981 977.261C62.284 977.331 62.277 977.394 62.277 977.451C62.2629 977.507 62.2559 977.563 62.2559 977.62H54.297C54.3392 978.112 54.4588 978.541 54.6559 978.907C54.8529 979.273 55.0922 979.576 55.3736 979.815C55.6692 980.054 55.9929 980.23 56.3448 980.343C56.6966 980.456 57.0414 980.512 57.3792 980.512C58.0548 980.512 58.6107 980.35 59.047 980.026C59.4833 979.703 59.8422 979.301 60.1236 978.823L62.1292 979.815ZM59.9548 975.825C59.9266 975.614 59.8562 975.382 59.7436 975.128C59.6451 974.861 59.4833 974.622 59.2581 974.411C59.047 974.186 58.7655 973.996 58.4136 973.841C58.0759 973.686 57.6607 973.608 57.1681 973.608C56.4925 973.608 55.9085 973.813 55.4159 974.221C54.9373 974.615 54.6136 975.15 54.4448 975.825H59.9548ZM62.9764 971.941H65.6153L68.402 979.245H68.5076L71.3576 971.941H73.9331L69.6053 982.285H67.262L62.9764 971.941ZM84.6933 979.815C84.2571 980.617 83.6378 981.286 82.8356 981.821C82.0333 982.356 81.0482 982.623 79.88 982.623C79.1059 982.623 78.3882 982.489 77.7267 982.222C77.0793 981.94 76.5163 981.553 76.0378 981.061C75.5593 980.568 75.1863 979.991 74.9189 979.33C74.6515 978.654 74.5178 977.915 74.5178 977.113C74.5178 976.367 74.6445 975.663 74.8978 975.002C75.1511 974.326 75.503 973.742 75.9533 973.25C76.4178 972.743 76.9737 972.342 77.6211 972.046C78.2685 971.751 78.9863 971.603 79.7745 971.603C80.5767 971.603 81.2874 971.737 81.9067 972.004C82.54 972.271 83.0748 972.644 83.5111 973.123C83.9474 973.601 84.2782 974.178 84.5033 974.854C84.7426 975.53 84.8622 976.268 84.8622 977.071C84.8622 977.141 84.8622 977.204 84.8622 977.261C84.8482 977.331 84.8411 977.394 84.8411 977.451C84.8271 977.507 84.82 977.563 84.82 977.62H76.8611C76.9033 978.112 77.023 978.541 77.22 978.907C77.4171 979.273 77.6563 979.576 77.9378 979.815C78.2333 980.054 78.5571 980.23 78.9089 980.343C79.2608 980.456 79.6056 980.512 79.9433 980.512C80.6189 980.512 81.1748 980.35 81.6111 980.026C82.0474 979.703 82.4063 979.301 82.6878 978.823L84.6933 979.815ZM82.5189 975.825C82.4908 975.614 82.4204 975.382 82.3078 975.128C82.2093 974.861 82.0474 974.622 81.8222 974.411C81.6111 974.186 81.3296 973.996 80.9778 973.841C80.64 973.686 80.2248 973.608 79.7322 973.608C79.0567 973.608 78.4726 973.813 77.98 974.221C77.5015 974.615 77.1778 975.15 77.0089 975.825H82.5189ZM86.8445 982.285V967.17H89.1879V982.285H86.8445ZM96.4664 971.603C97.2546 971.603 97.9794 971.744 98.6409 972.025C99.3023 972.293 99.8723 972.673 100.351 973.165C100.829 973.658 101.202 974.242 101.47 974.917C101.737 975.593 101.871 976.325 101.871 977.113C101.871 977.901 101.737 978.633 101.47 979.308C101.202 979.984 100.829 980.568 100.351 981.061C99.8723 981.553 99.3023 981.94 98.6409 982.222C97.9794 982.489 97.2546 982.623 96.4664 982.623C95.6783 982.623 94.9535 982.489 94.292 982.222C93.6305 981.94 93.0605 981.553 92.582 981.061C92.1035 980.568 91.7305 979.984 91.4631 979.308C91.1957 978.633 91.062 977.901 91.062 977.113C91.062 976.325 91.1957 975.593 91.4631 974.917C91.7305 974.242 92.1035 973.658 92.582 973.165C93.0605 972.673 93.6305 972.293 94.292 972.025C94.9535 971.744 95.6783 971.603 96.4664 971.603ZM96.4664 980.448C96.8605 980.448 97.2405 980.371 97.6064 980.216C97.9723 980.061 98.2961 979.843 98.5775 979.562C98.8731 979.28 99.1053 978.936 99.2742 978.527C99.4431 978.105 99.5275 977.634 99.5275 977.113C99.5275 976.592 99.4431 976.128 99.2742 975.72C99.1053 975.297 98.8731 974.946 98.5775 974.664C98.2961 974.383 97.9723 974.164 97.6064 974.01C97.2405 973.855 96.8605 973.777 96.4664 973.777C96.0723 973.777 95.6923 973.855 95.3264 974.01C94.9605 974.164 94.6298 974.383 94.3342 974.664C94.0527 974.946 93.8275 975.297 93.6586 975.72C93.4898 976.128 93.4053 976.592 93.4053 977.113C93.4053 977.634 93.4898 978.105 93.6586 978.527C93.8275 978.936 94.0527 979.28 94.3342 979.562C94.6298 979.843 94.9605 980.061 95.3264 980.216C95.6923 980.371 96.0723 980.448 96.4664 980.448ZM103.675 971.941H105.892V973.271H106.019C106.3 972.82 106.729 972.433 107.306 972.11C107.884 971.772 108.573 971.603 109.375 971.603C110.037 971.603 110.663 971.744 111.254 972.025C111.859 972.293 112.387 972.673 112.838 973.165C113.288 973.658 113.647 974.242 113.914 974.917C114.182 975.579 114.315 976.311 114.315 977.113C114.315 977.915 114.182 978.654 113.914 979.33C113.647 979.991 113.288 980.568 112.838 981.061C112.387 981.553 111.859 981.94 111.254 982.222C110.663 982.489 110.037 982.623 109.375 982.623C108.573 982.623 107.884 982.461 107.306 982.137C106.729 981.8 106.3 981.406 106.019 980.955H105.892L106.019 982.391V986.845H103.675V971.941ZM108.932 980.448C109.326 980.448 109.706 980.371 110.072 980.216C110.452 980.061 110.776 979.843 111.043 979.562C111.325 979.266 111.55 978.914 111.719 978.506C111.888 978.098 111.972 977.634 111.972 977.113C111.972 976.592 111.888 976.128 111.719 975.72C111.55 975.311 111.325 974.967 111.043 974.685C110.776 974.39 110.452 974.164 110.072 974.01C109.706 973.855 109.326 973.777 108.932 973.777C108.524 973.777 108.137 973.855 107.771 974.01C107.405 974.164 107.081 974.383 106.8 974.664C106.532 974.946 106.314 975.297 106.145 975.72C105.976 976.128 105.892 976.592 105.892 977.113C105.892 977.634 105.976 978.105 106.145 978.527C106.314 978.936 106.532 979.28 106.8 979.562C107.081 979.843 107.405 980.061 107.771 980.216C108.137 980.371 108.524 980.448 108.932 980.448ZM125.884 979.815C125.448 980.617 124.828 981.286 124.026 981.821C123.224 982.356 122.239 982.623 121.071 982.623C120.297 982.623 119.579 982.489 118.917 982.222C118.27 981.94 117.707 981.553 117.228 981.061C116.75 980.568 116.377 979.991 116.109 979.33C115.842 978.654 115.708 977.915 115.708 977.113C115.708 976.367 115.835 975.663 116.088 975.002C116.342 974.326 116.694 973.742 117.144 973.25C117.608 972.743 118.164 972.342 118.812 972.046C119.459 971.751 120.177 971.603 120.965 971.603C121.767 971.603 122.478 971.737 123.097 972.004C123.731 972.271 124.265 972.644 124.702 973.123C125.138 973.601 125.469 974.178 125.694 974.854C125.933 975.53 126.053 976.268 126.053 977.071C126.053 977.141 126.053 977.204 126.053 977.261C126.039 977.331 126.032 977.394 126.032 977.451C126.018 977.507 126.011 977.563 126.011 977.62H118.052C118.094 978.112 118.214 978.541 118.411 978.907C118.608 979.273 118.847 979.576 119.128 979.815C119.424 980.054 119.748 980.23 120.099 980.343C120.451 980.456 120.796 980.512 121.134 980.512C121.809 980.512 122.365 980.35 122.802 980.026C123.238 979.703 123.597 979.301 123.878 978.823L125.884 979.815ZM123.709 975.825C123.681 975.614 123.611 975.382 123.498 975.128C123.4 974.861 123.238 974.622 123.013 974.411C122.802 974.186 122.52 973.996 122.168 973.841C121.831 973.686 121.415 973.608 120.923 973.608C120.247 973.608 119.663 973.813 119.171 974.221C118.692 974.615 118.368 975.15 118.199 975.825H123.709ZM128.035 971.941H130.252V973.503H130.378C130.505 973.236 130.674 972.989 130.885 972.764C131.11 972.525 131.357 972.328 131.624 972.173C131.905 972.004 132.194 971.877 132.49 971.793C132.799 971.694 133.095 971.645 133.376 971.645C133.714 971.645 134.003 971.673 134.242 971.73C134.481 971.786 134.699 971.863 134.896 971.962L134.221 974.136C134.066 974.066 133.89 974.017 133.693 973.988C133.51 973.946 133.285 973.925 133.017 973.925C132.637 973.925 132.285 974.003 131.962 974.157C131.652 974.312 131.378 974.523 131.138 974.791C130.899 975.058 130.709 975.375 130.568 975.741C130.442 976.107 130.378 976.494 130.378 976.902V982.285H128.035V971.941Z" fill="#202125"/>
<path d="M45.3281 999.094H52.6959C52.724 999.277 52.7522 999.474 52.7803 999.685C52.8085 999.882 52.8225 1000.09 52.8225 1000.32C52.8225 1001.22 52.6818 1002.11 52.4003 1003C52.1188 1003.89 51.6403 1004.67 50.9648 1005.36C50.2751 1006.08 49.4659 1006.64 48.537 1007.03C47.6081 1007.43 46.5455 1007.62 45.3492 1007.62C44.2655 1007.62 43.2381 1007.43 42.267 1007.03C41.3099 1006.64 40.4725 1006.09 39.7548 1005.39C39.037 1004.68 38.467 1003.85 38.0448 1002.89C37.6366 1001.92 37.4325 1000.87 37.4325 999.727C37.4325 998.587 37.6366 997.539 38.0448 996.582C38.467 995.611 39.037 994.773 39.7548 994.07C40.4725 993.366 41.3099 992.817 42.267 992.423C43.2381 992.029 44.2655 991.832 45.3492 991.832C46.5033 991.832 47.5659 992.036 48.537 992.444C49.5222 992.852 50.3455 993.422 51.007 994.154L49.3392 995.822C48.8466 995.273 48.2625 994.851 47.587 994.555C46.9255 994.26 46.1725 994.112 45.3281 994.112C44.6103 994.112 43.9207 994.246 43.2592 994.513C42.5977 994.78 42.0136 995.16 41.507 995.653C41.0003 996.131 40.5992 996.716 40.3036 997.405C40.0081 998.095 39.8603 998.869 39.8603 999.727C39.8603 1000.59 40.0081 1001.36 40.3036 1002.05C40.5992 1002.74 41.0003 1003.33 41.507 1003.82C42.0136 1004.3 42.5977 1004.67 43.2592 1004.94C43.9207 1005.21 44.6173 1005.34 45.3492 1005.34C46.3203 1005.34 47.1014 1005.2 47.6925 1004.9C48.2977 1004.6 48.8044 1004.26 49.2125 1003.87C49.5081 1003.58 49.7685 1003.22 49.9936 1002.77C50.2188 1002.3 50.3666 1001.8 50.437 1001.25H45.3281V999.094ZM54.6409 996.941H56.8576V998.503H56.9842C57.1109 998.236 57.2798 997.989 57.4909 997.764C57.7161 997.525 57.9624 997.328 58.2298 997.173C58.5113 997.004 58.7998 996.877 59.0953 996.793C59.405 996.694 59.7005 996.645 59.982 996.645C60.3198 996.645 60.6083 996.673 60.8476 996.73C61.0868 996.786 61.305 996.863 61.502 996.962L60.8264 999.136C60.6716 999.066 60.4957 999.017 60.2987 998.988C60.1157 998.946 59.8905 998.925 59.6231 998.925C59.2431 998.925 58.8913 999.003 58.5676 999.157C58.2579 999.312 57.9835 999.523 57.7442 999.791C57.505 1000.06 57.315 1000.37 57.1742 1000.74C57.0476 1001.11 56.9842 1001.49 56.9842 1001.9V1007.29H54.6409V996.941ZM67.1491 996.603C67.9372 996.603 68.662 996.744 69.3235 997.025C69.985 997.293 70.555 997.673 71.0335 998.165C71.512 998.658 71.885 999.242 72.1524 999.917C72.4198 1000.59 72.5535 1001.32 72.5535 1002.11C72.5535 1002.9 72.4198 1003.63 72.1524 1004.31C71.885 1004.98 71.512 1005.57 71.0335 1006.06C70.555 1006.55 69.985 1006.94 69.3235 1007.22C68.662 1007.49 67.9372 1007.62 67.1491 1007.62C66.3609 1007.62 65.6361 1007.49 64.9746 1007.22C64.3131 1006.94 63.7431 1006.55 63.2646 1006.06C62.7861 1005.57 62.4131 1004.98 62.1457 1004.31C61.8783 1003.63 61.7446 1002.9 61.7446 1002.11C61.7446 1001.32 61.8783 1000.59 62.1457 999.917C62.4131 999.242 62.7861 998.658 63.2646 998.165C63.7431 997.673 64.3131 997.293 64.9746 997.025C65.6361 996.744 66.3609 996.603 67.1491 996.603ZM67.1491 1005.45C67.5431 1005.45 67.9231 1005.37 68.2891 1005.22C68.655 1005.06 68.9787 1004.84 69.2602 1004.56C69.5557 1004.28 69.7879 1003.94 69.9568 1003.53C70.1257 1003.11 70.2102 1002.63 70.2102 1002.11C70.2102 1001.59 70.1257 1001.13 69.9568 1000.72C69.7879 1000.3 69.5557 999.946 69.2602 999.664C68.9787 999.383 68.655 999.164 68.2891 999.01C67.9231 998.855 67.5431 998.777 67.1491 998.777C66.755 998.777 66.375 998.855 66.0091 999.01C65.6431 999.164 65.3124 999.383 65.0168 999.664C64.7354 999.946 64.5102 1000.3 64.3413 1000.72C64.1724 1001.13 64.0879 1001.59 64.0879 1002.11C64.0879 1002.63 64.1724 1003.11 64.3413 1003.53C64.5102 1003.94 64.7354 1004.28 65.0168 1004.56C65.3124 1004.84 65.6431 1005.06 66.0091 1005.22C66.375 1005.37 66.755 1005.45 67.1491 1005.45ZM81.6413 1005.89H81.5147C81.205 1006.38 80.7617 1006.8 80.1847 1007.14C79.6217 1007.46 78.9813 1007.62 78.2636 1007.62C76.9547 1007.62 75.9765 1007.24 75.3291 1006.46C74.6817 1005.67 74.358 1004.63 74.358 1003.34V996.941H76.7013V1003.02C76.7013 1003.92 76.9054 1004.55 77.3136 1004.92C77.7358 1005.27 78.2847 1005.45 78.9602 1005.45C79.3543 1005.45 79.7062 1005.36 80.0158 1005.2C80.3395 1005.03 80.6139 1004.8 80.8391 1004.52C81.0643 1004.22 81.2332 1003.89 81.3458 1003.53C81.4584 1003.15 81.5147 1002.75 81.5147 1002.35V996.941H83.858V1007.29H81.6413V1005.89ZM86.341 996.941H88.5577V998.271H88.6844C88.9659 997.82 89.3951 997.433 89.9721 997.11C90.5492 996.772 91.2388 996.603 92.041 996.603C92.7025 996.603 93.3288 996.744 93.9199 997.025C94.5251 997.293 95.0529 997.673 95.5033 998.165C95.9536 998.658 96.3125 999.242 96.5799 999.917C96.8473 1000.58 96.981 1001.31 96.981 1002.11C96.981 1002.92 96.8473 1003.65 96.5799 1004.33C96.3125 1004.99 95.9536 1005.57 95.5033 1006.06C95.0529 1006.55 94.5251 1006.94 93.9199 1007.22C93.3288 1007.49 92.7025 1007.62 92.041 1007.62C91.2388 1007.62 90.5492 1007.46 89.9721 1007.14C89.3951 1006.8 88.9659 1006.41 88.6844 1005.96H88.5577L88.6844 1007.39V1011.85H86.341V996.941ZM91.5977 1005.45C91.9918 1005.45 92.3718 1005.37 92.7377 1005.22C93.1177 1005.06 93.4414 1004.84 93.7088 1004.56C93.9903 1004.27 94.2155 1003.91 94.3844 1003.51C94.5533 1003.1 94.6377 1002.63 94.6377 1002.11C94.6377 1001.59 94.5533 1001.13 94.3844 1000.72C94.2155 1000.31 93.9903 999.967 93.7088 999.685C93.4414 999.39 93.1177 999.164 92.7377 999.01C92.3718 998.855 91.9918 998.777 91.5977 998.777C91.1896 998.777 90.8025 998.855 90.4366 999.01C90.0707 999.164 89.747 999.383 89.4655 999.664C89.1981 999.946 88.9799 1000.3 88.811 1000.72C88.6421 1001.13 88.5577 1001.59 88.5577 1002.11C88.5577 1002.63 88.6421 1003.11 88.811 1003.53C88.9799 1003.94 89.1981 1004.28 89.4655 1004.56C89.747 1004.84 90.0707 1005.06 90.4366 1005.22C90.8025 1005.37 91.1896 1005.45 91.5977 1005.45ZM102.789 1007.62C102.155 1007.62 101.585 1007.54 101.079 1007.37C100.572 1007.2 100.129 1006.98 99.7487 1006.72C99.3687 1006.43 99.045 1006.12 98.7776 1005.77C98.5243 1005.41 98.3273 1005.05 98.1865 1004.67L100.298 1003.78C100.537 1004.39 100.882 1004.84 101.332 1005.13C101.782 1005.41 102.268 1005.55 102.789 1005.55C103.38 1005.55 103.844 1005.43 104.182 1005.2C104.52 1004.96 104.689 1004.69 104.689 1004.39C104.689 1004.1 104.562 1003.84 104.309 1003.63C104.055 1003.41 103.577 1003.21 102.873 1003.04L101.395 1002.68C101.072 1002.61 100.741 1002.51 100.403 1002.37C100.079 1002.21 99.7769 1002.02 99.4954 1001.8C99.2139 1001.56 98.9817 1001.28 98.7987 1000.95C98.6298 1000.61 98.5454 1000.22 98.5454 999.77C98.5454 999.263 98.651 998.813 98.8621 998.418C99.0873 998.024 99.3898 997.694 99.7698 997.426C100.15 997.159 100.586 996.955 101.079 996.814C101.585 996.673 102.12 996.603 102.683 996.603C103.148 996.603 103.591 996.652 104.013 996.751C104.449 996.849 104.851 996.997 105.217 997.194C105.582 997.391 105.906 997.644 106.188 997.954C106.483 998.25 106.715 998.601 106.884 999.01L104.815 999.875C104.618 999.425 104.309 999.101 103.887 998.904C103.464 998.693 103.035 998.587 102.599 998.587C102.402 998.587 102.198 998.616 101.987 998.672C101.789 998.714 101.607 998.784 101.438 998.883C101.283 998.967 101.149 999.08 101.037 999.221C100.938 999.361 100.889 999.516 100.889 999.685C100.889 999.967 101.008 1000.19 101.248 1000.36C101.501 1000.52 101.881 1000.66 102.388 1000.78L103.971 1001.18C105.041 1001.45 105.822 1001.86 106.314 1002.41C106.821 1002.94 107.074 1003.58 107.074 1004.31C107.074 1004.76 106.969 1005.18 106.758 1005.58C106.561 1005.97 106.272 1006.32 105.892 1006.63C105.512 1006.94 105.055 1007.18 104.52 1007.35C103.999 1007.53 103.422 1007.62 102.789 1007.62Z" fill="#202125"/>
<circle cx="115.256" cy="999.785" r="3.07194" fill="#202125"/>
<path d="M137.955 1004.9C137.238 1005.74 136.372 1006.41 135.359 1006.91C134.345 1007.38 133.205 1007.62 131.939 1007.62C130.813 1007.62 129.771 1007.43 128.814 1007.03C127.857 1006.62 127.02 1006.07 126.302 1005.36C125.598 1004.65 125.042 1003.81 124.634 1002.85C124.24 1001.89 124.043 1000.85 124.043 999.727C124.043 998.616 124.24 997.581 124.634 996.624C125.042 995.653 125.598 994.816 126.302 994.112C127.02 993.394 127.857 992.838 128.814 992.444C129.771 992.036 130.813 991.832 131.939 991.832C133.107 991.832 134.155 992.05 135.084 992.486C136.013 992.908 136.83 993.514 137.533 994.302L135.844 995.948C135.338 995.343 134.768 994.886 134.134 994.576C133.515 994.267 132.783 994.112 131.939 994.112C131.193 994.112 130.482 994.246 129.807 994.513C129.145 994.766 128.568 995.139 128.075 995.632C127.583 996.11 127.189 996.701 126.893 997.405C126.612 998.095 126.471 998.869 126.471 999.727C126.471 1000.59 126.612 1001.37 126.893 1002.07C127.189 1002.76 127.583 1003.35 128.075 1003.84C128.568 1004.32 129.145 1004.7 129.807 1004.96C130.482 1005.22 131.193 1005.34 131.939 1005.34C132.84 1005.34 133.642 1005.16 134.345 1004.79C135.049 1004.41 135.675 1003.89 136.224 1003.23L137.955 1004.9ZM139.912 1007.29V992.17H142.255V1007.29H139.912ZM149.533 996.603C150.322 996.603 151.046 996.744 151.708 997.025C152.369 997.293 152.939 997.673 153.418 998.165C153.896 998.658 154.269 999.242 154.537 999.917C154.804 1000.59 154.938 1001.32 154.938 1002.11C154.938 1002.9 154.804 1003.63 154.537 1004.31C154.269 1004.98 153.896 1005.57 153.418 1006.06C152.939 1006.55 152.369 1006.94 151.708 1007.22C151.046 1007.49 150.322 1007.62 149.533 1007.62C148.745 1007.62 148.02 1007.49 147.359 1007.22C146.697 1006.94 146.127 1006.55 145.649 1006.06C145.17 1005.57 144.797 1004.98 144.53 1004.31C144.263 1003.63 144.129 1002.9 144.129 1002.11C144.129 1001.32 144.263 1000.59 144.53 999.917C144.797 999.242 145.17 998.658 145.649 998.165C146.127 997.673 146.697 997.293 147.359 997.025C148.02 996.744 148.745 996.603 149.533 996.603ZM149.533 1005.45C149.927 1005.45 150.307 1005.37 150.673 1005.22C151.039 1005.06 151.363 1004.84 151.645 1004.56C151.94 1004.28 152.172 1003.94 152.341 1003.53C152.51 1003.11 152.595 1002.63 152.595 1002.11C152.595 1001.59 152.51 1001.13 152.341 1000.72C152.172 1000.3 151.94 999.946 151.645 999.664C151.363 999.383 151.039 999.164 150.673 999.01C150.307 998.855 149.927 998.777 149.533 998.777C149.139 998.777 148.759 998.855 148.393 999.01C148.027 999.164 147.697 999.383 147.401 999.664C147.12 999.946 146.895 1000.3 146.726 1000.72C146.557 1001.13 146.472 1001.59 146.472 1002.11C146.472 1002.63 146.557 1003.11 146.726 1003.53C146.895 1003.94 147.12 1004.28 147.401 1004.56C147.697 1004.84 148.027 1005.06 148.393 1005.22C148.759 1005.37 149.139 1005.45 149.533 1005.45ZM164.026 1005.89H163.899C163.589 1006.38 163.146 1006.8 162.569 1007.14C162.006 1007.46 161.366 1007.62 160.648 1007.62C159.339 1007.62 158.361 1007.24 157.713 1006.46C157.066 1005.67 156.742 1004.63 156.742 1003.34V996.941H159.086V1003.02C159.086 1003.92 159.29 1004.55 159.698 1004.92C160.12 1005.27 160.669 1005.45 161.345 1005.45C161.739 1005.45 162.091 1005.36 162.4 1005.2C162.724 1005.03 162.998 1004.8 163.223 1004.52C163.449 1004.22 163.618 1003.89 163.73 1003.53C163.843 1003.15 163.899 1002.75 163.899 1002.35V996.941H166.242V1007.29H164.026V1005.89ZM176.539 1005.96H176.412C176.131 1006.41 175.702 1006.8 175.125 1007.14C174.547 1007.46 173.858 1007.62 173.056 1007.62C172.394 1007.62 171.761 1007.49 171.156 1007.22C170.565 1006.94 170.044 1006.55 169.593 1006.06C169.143 1005.57 168.784 1004.99 168.517 1004.33C168.249 1003.65 168.116 1002.92 168.116 1002.11C168.116 1001.31 168.249 1000.58 168.517 999.917C168.784 999.242 169.143 998.658 169.593 998.165C170.044 997.673 170.565 997.293 171.156 997.025C171.761 996.744 172.394 996.603 173.056 996.603C173.858 996.603 174.547 996.772 175.125 997.11C175.702 997.433 176.131 997.82 176.412 998.271H176.539L176.412 996.835V992.17H178.756V1007.29H176.539V1005.96ZM173.499 1005.45C173.893 1005.45 174.273 1005.37 174.639 1005.22C175.019 1005.06 175.343 1004.84 175.61 1004.56C175.892 1004.28 176.117 1003.94 176.286 1003.53C176.455 1003.11 176.539 1002.63 176.539 1002.11C176.539 1001.59 176.455 1001.13 176.286 1000.72C176.117 1000.3 175.892 999.946 175.61 999.664C175.343 999.383 175.019 999.164 174.639 999.01C174.273 998.855 173.893 998.777 173.499 998.777C173.091 998.777 172.704 998.855 172.338 999.01C171.972 999.164 171.648 999.39 171.367 999.685C171.099 999.967 170.881 1000.31 170.712 1000.72C170.543 1001.13 170.459 1001.59 170.459 1002.11C170.459 1002.63 170.543 1003.1 170.712 1003.51C170.881 1003.91 171.099 1004.27 171.367 1004.56C171.648 1004.84 171.972 1005.06 172.338 1005.22C172.704 1005.37 173.091 1005.45 173.499 1005.45Z" fill="#4285F4"/>
<path d="M40.0379 1026.16V1032.29H38.0957V1017.17H43.2468C44.5557 1017.17 45.6675 1017.61 46.5824 1018.48C47.5112 1019.35 47.9757 1020.41 47.9757 1021.67C47.9757 1022.95 47.5112 1024.02 46.5824 1024.88C45.6816 1025.73 44.5698 1026.16 43.2468 1026.16H40.0379ZM40.0379 1019.03V1024.31H43.289C44.0631 1024.31 44.7035 1024.04 45.2101 1023.52C45.7309 1023 45.9912 1022.38 45.9912 1021.67C45.9912 1020.96 45.7309 1020.35 45.2101 1019.83C44.7035 1019.29 44.0631 1019.03 43.289 1019.03H40.0379ZM58.7569 1032.29H56.8991V1030.85H56.8146C56.5191 1031.36 56.0617 1031.78 55.4424 1032.12C54.8372 1032.45 54.2039 1032.62 53.5424 1032.62C52.2758 1032.62 51.2976 1032.26 50.608 1031.55C49.9324 1030.81 49.5946 1029.78 49.5946 1028.44V1021.94H51.5369V1028.32C51.5791 1030.01 52.4306 1030.85 54.0913 1030.85C54.8654 1030.85 55.5128 1030.54 56.0335 1029.92C56.5543 1029.29 56.8146 1028.53 56.8146 1027.66V1021.94H58.7569V1032.29ZM61.3323 1021.94H63.19V1023.38H63.2745C63.57 1022.87 64.0204 1022.45 64.6256 1022.11C65.2448 1021.77 65.8852 1021.6 66.5467 1021.6C67.8134 1021.6 68.7845 1021.97 69.46 1022.7C70.1497 1023.42 70.4945 1024.45 70.4945 1025.78V1032.29H68.5523V1025.91C68.51 1024.22 67.6586 1023.38 65.9978 1023.38C65.2237 1023.38 64.5763 1023.69 64.0556 1024.33C63.5348 1024.95 63.2745 1025.69 63.2745 1026.56V1032.29H61.3323V1021.94ZM77.6299 1032.62C76.1099 1032.62 74.8573 1032.1 73.8721 1031.06C72.8869 1030.02 72.3943 1028.7 72.3943 1027.11C72.3943 1025.54 72.8728 1024.23 73.8299 1023.19C74.7869 1022.13 76.0113 1021.6 77.5032 1021.6C79.0373 1021.6 80.2547 1022.1 81.1554 1023.1C82.0702 1024.09 82.5276 1025.47 82.5276 1027.26L82.5065 1027.47H74.3788C74.4069 1028.49 74.7447 1029.3 75.3921 1029.92C76.0395 1030.54 76.8136 1030.85 77.7143 1030.85C78.9528 1030.85 79.9239 1030.23 80.6276 1028.99L82.3588 1029.84C81.8943 1030.71 81.2469 1031.39 80.4165 1031.88C79.6002 1032.38 78.6713 1032.62 77.6299 1032.62ZM74.5265 1025.87H80.4588C80.4025 1025.15 80.1069 1024.56 79.5721 1024.09C79.0513 1023.62 78.3476 1023.38 77.461 1023.38C76.7291 1023.38 76.0958 1023.6 75.561 1024.05C75.0402 1024.5 74.6954 1025.11 74.5265 1025.87Z" fill="#848484"/>
<path d="M780 147L400.389 147C385.815 147 374 135.185 374 120.611V12L780 12V147Z" fill="white"/>
<rect x="6" y="6" width="779.52" height="1066.46" stroke="url(#paint0_linear_4027_504)" stroke-width="12"/>
<path d="M541.087 112.137H540.798C540.157 113.163 539.179 114.06 537.865 114.829C536.551 115.567 534.98 115.935 533.153 115.935C531.646 115.935 530.204 115.631 528.825 115.022C527.479 114.381 526.293 113.499 525.267 112.377C524.242 111.255 523.424 109.941 522.815 108.434C522.206 106.896 521.901 105.213 521.901 103.386C521.901 101.559 522.206 99.8917 522.815 98.3851C523.424 96.8464 524.242 95.5161 525.267 94.3942C526.293 93.2723 527.479 92.4068 528.825 91.7977C530.204 91.1566 531.646 90.8361 533.153 90.8361C534.98 90.8361 536.551 91.2207 537.865 91.99C539.179 92.7273 540.157 93.6088 540.798 94.6346H541.087L540.798 91.365V80.7386H546.135V115.166H541.087V112.137ZM534.163 110.983C535.06 110.983 535.926 110.806 536.759 110.454C537.625 110.101 538.362 109.604 538.971 108.963C539.612 108.322 540.125 107.537 540.51 106.607C540.894 105.646 541.087 104.572 541.087 103.386C541.087 102.2 540.894 101.142 540.51 100.212C540.125 99.2506 539.612 98.4492 538.971 97.8081C538.362 97.167 537.625 96.6701 536.759 96.3175C535.926 95.9649 535.06 95.7886 534.163 95.7886C533.233 95.7886 532.352 95.9649 531.518 96.3175C530.685 96.6701 529.947 97.183 529.306 97.8562C528.697 98.4973 528.2 99.2826 527.816 100.212C527.431 101.142 527.239 102.2 527.239 103.386C527.239 104.572 527.431 105.63 527.816 106.559C528.2 107.489 528.697 108.29 529.306 108.963C529.947 109.604 530.685 110.101 531.518 110.454C532.352 110.806 533.233 110.983 534.163 110.983ZM565.225 112.281H564.936C564.231 113.211 563.317 114.06 562.195 114.829C561.073 115.567 559.647 115.935 557.916 115.935C556.666 115.935 555.496 115.727 554.406 115.31C553.316 114.926 552.37 114.381 551.569 113.675C550.768 112.938 550.127 112.089 549.646 111.127C549.197 110.133 548.973 109.043 548.973 107.857C548.973 106.607 549.213 105.485 549.694 104.492C550.207 103.498 550.896 102.664 551.761 101.991C552.659 101.318 553.717 100.805 554.935 100.453C556.153 100.068 557.467 99.8756 558.878 99.8756C560.448 99.8756 561.763 100.036 562.82 100.356C563.878 100.645 564.68 100.917 565.225 101.174V100.26C565.225 99.5551 565.064 98.898 564.744 98.2889C564.455 97.6799 564.039 97.167 563.494 96.7503C562.981 96.3015 562.388 95.9649 561.715 95.7405C561.041 95.4841 560.336 95.3558 559.599 95.3558C558.413 95.3558 557.339 95.5963 556.377 96.0771C555.448 96.5259 554.614 97.2631 553.877 98.2889L549.646 95.5001C550.768 93.9614 552.162 92.8075 553.829 92.0381C555.496 91.2367 557.387 90.8361 559.503 90.8361C562.997 90.8361 565.689 91.7015 567.581 93.4325C569.504 95.1635 570.466 97.6318 570.466 100.837V115.166H565.225V112.281ZM565.225 105.357C564.519 104.94 563.734 104.604 562.869 104.347C562.003 104.091 561.009 103.963 559.887 103.963C558.221 103.963 556.89 104.347 555.897 105.117C554.903 105.886 554.406 106.816 554.406 107.905C554.406 108.482 554.534 108.995 554.791 109.444C555.047 109.861 555.368 110.23 555.752 110.55C556.169 110.871 556.634 111.111 557.147 111.271C557.692 111.432 558.237 111.512 558.781 111.512C559.647 111.512 560.464 111.351 561.234 111.031C562.035 110.678 562.724 110.23 563.301 109.685C563.878 109.108 564.343 108.45 564.696 107.713C565.048 106.976 565.225 106.191 565.225 105.357ZM581.365 113.82L571.556 91.6054H577.518L584.009 107.232H584.25L590.549 91.6054H596.463L581.701 125.552H576.027L581.365 113.82ZM606.878 115.935C605.435 115.935 604.137 115.743 602.983 115.358C601.829 114.974 600.819 114.477 599.954 113.868C599.088 113.227 598.351 112.505 597.742 111.704C597.165 110.903 596.716 110.069 596.395 109.204L601.204 107.184C601.749 108.563 602.534 109.588 603.56 110.262C604.586 110.903 605.692 111.223 606.878 111.223C608.224 111.223 609.282 110.951 610.051 110.406C610.82 109.861 611.205 109.252 611.205 108.579C611.205 107.905 610.917 107.328 610.34 106.848C609.763 106.335 608.673 105.886 607.07 105.501L603.704 104.684C602.967 104.524 602.214 104.283 601.444 103.963C600.707 103.61 600.018 103.177 599.377 102.664C598.736 102.12 598.207 101.478 597.79 100.741C597.405 99.9718 597.213 99.0743 597.213 98.0485C597.213 96.8945 597.453 95.8687 597.934 94.9712C598.447 94.0736 599.136 93.3203 600.002 92.7113C600.867 92.1022 601.861 91.6374 602.983 91.3169C604.137 90.9963 605.355 90.8361 606.637 90.8361C607.695 90.8361 608.705 90.9482 609.666 91.1726C610.66 91.397 611.574 91.7336 612.407 92.1824C613.241 92.6312 613.978 93.2081 614.619 93.9134C615.292 94.5865 615.821 95.3879 616.206 96.3175L611.494 98.2889C611.045 97.2631 610.34 96.5259 609.378 96.0771C608.416 95.5963 607.439 95.3558 606.445 95.3558C605.996 95.3558 605.531 95.42 605.05 95.5482C604.602 95.6443 604.185 95.8046 603.8 96.029C603.448 96.2213 603.143 96.4778 602.887 96.7983C602.662 97.1189 602.55 97.4715 602.55 97.8562C602.55 98.4973 602.823 99.0102 603.367 99.3948C603.944 99.7474 604.81 100.068 605.964 100.356L609.57 101.27C612.006 101.879 613.785 102.809 614.907 104.059C616.061 105.277 616.638 106.719 616.638 108.386C616.638 109.412 616.398 110.374 615.917 111.271C615.468 112.169 614.811 112.97 613.946 113.675C613.08 114.381 612.038 114.926 610.82 115.31C609.634 115.727 608.32 115.935 606.878 115.935Z" fill="#010B17"/>
<path d="M658.452 110.787H667.231V115.16H651.38V110.651C652.746 109.307 654.01 108.066 655.172 106.927C655.673 106.449 656.174 105.959 656.675 105.458C657.153 104.957 657.597 104.502 658.007 104.092C658.44 103.659 658.816 103.283 659.135 102.964C659.476 102.623 659.727 102.361 659.886 102.179C660.547 101.45 661.014 100.812 661.287 100.265C661.56 99.6961 661.697 99.0812 661.697 98.4207C661.697 97.7603 661.446 97.2023 660.945 96.7468C660.467 96.2685 659.795 96.0294 658.93 96.0294C658.064 96.0294 657.37 96.2799 656.846 96.781C656.345 97.2592 655.969 97.8969 655.719 98.694L651.073 96.781C651.278 96.0749 651.596 95.3917 652.029 94.7312C652.462 94.0708 653.008 93.49 653.669 92.989C654.329 92.4652 655.104 92.0438 655.992 91.725C656.903 91.4061 657.905 91.2467 658.998 91.2467C660.228 91.2467 661.333 91.4289 662.312 91.7933C663.291 92.1349 664.111 92.6132 664.772 93.2281C665.455 93.843 665.979 94.5718 666.343 95.4145C666.707 96.2571 666.89 97.1681 666.89 98.1474C666.89 99.5595 666.559 100.869 665.899 102.076C665.261 103.26 664.362 104.433 663.2 105.595L658.281 110.446L658.452 110.787ZM679.893 115.707C678.344 115.707 676.955 115.399 675.725 114.784C674.495 114.169 673.448 113.315 672.582 112.222C671.717 111.129 671.045 109.842 670.567 108.362C670.111 106.859 669.884 105.23 669.884 103.477C669.884 101.723 670.111 100.106 670.567 98.6257C671.045 97.1226 671.717 95.8244 672.582 94.7312C673.448 93.6381 674.495 92.784 675.725 92.1691C676.955 91.5542 678.344 91.2467 679.893 91.2467C681.419 91.2467 682.797 91.5542 684.027 92.1691C685.279 92.784 686.338 93.6381 687.204 94.7312C688.069 95.8244 688.73 97.1226 689.185 98.6257C689.663 100.106 689.903 101.723 689.903 103.477C689.903 105.23 689.663 106.859 689.185 108.362C688.73 109.842 688.069 111.129 687.204 112.222C686.338 113.315 685.279 114.169 684.027 114.784C682.797 115.399 681.419 115.707 679.893 115.707ZM679.893 110.924C680.667 110.924 681.351 110.742 681.943 110.377C682.558 109.99 683.07 109.466 683.48 108.806C683.913 108.146 684.232 107.36 684.437 106.449C684.664 105.538 684.778 104.547 684.778 103.477C684.778 102.406 684.664 101.416 684.437 100.505C684.232 99.5936 683.913 98.8079 683.48 98.1474C683.07 97.487 682.558 96.9746 681.943 96.6102C681.351 96.223 680.667 96.0294 679.893 96.0294C679.119 96.0294 678.424 96.223 677.809 96.6102C677.217 96.9746 676.705 97.487 676.272 98.1474C675.862 98.8079 675.543 99.5936 675.315 100.505C675.11 101.416 675.008 102.406 675.008 103.477C675.008 104.547 675.11 105.538 675.315 106.449C675.543 107.36 675.862 108.146 676.272 108.806C676.705 109.466 677.217 109.99 677.809 110.377C678.424 110.742 679.119 110.924 679.893 110.924ZM699.47 110.787H708.25V115.16H692.398V110.651C693.765 109.307 695.029 108.066 696.19 106.927C696.692 106.449 697.193 105.959 697.694 105.458C698.172 104.957 698.616 104.502 699.026 104.092C699.459 103.659 699.834 103.283 700.153 102.964C700.495 102.623 700.745 102.361 700.905 102.179C701.565 101.45 702.032 100.812 702.305 100.265C702.579 99.6961 702.715 99.0812 702.715 98.4207C702.715 97.7603 702.465 97.2023 701.964 96.7468C701.486 96.2685 700.814 96.0294 699.948 96.0294C699.083 96.0294 698.388 96.2799 697.864 96.781C697.363 97.2592 696.988 97.8969 696.737 98.694L692.091 96.781C692.296 96.0749 692.615 95.3917 693.048 94.7312C693.48 94.0708 694.027 93.49 694.687 92.989C695.348 92.4652 696.122 92.0438 697.01 91.725C697.921 91.4061 698.923 91.2467 700.017 91.2467C701.246 91.2467 702.351 91.4289 703.33 91.7933C704.31 92.1349 705.13 92.6132 705.79 93.2281C706.473 93.843 706.997 94.5718 707.361 95.4145C707.726 96.2571 707.908 97.1681 707.908 98.1474C707.908 99.5595 707.578 100.869 706.917 102.076C706.28 103.26 705.38 104.433 704.219 105.595L699.299 110.446L699.47 110.787ZM719.272 115.707C718.338 115.707 717.416 115.581 716.505 115.331C715.594 115.08 714.751 114.693 713.977 114.169C713.225 113.646 712.565 112.985 711.995 112.188C711.426 111.391 711.016 110.457 710.765 109.387L715.446 107.576C715.673 108.647 716.106 109.489 716.744 110.104C717.381 110.696 718.224 110.992 719.272 110.992C720.183 110.992 720.957 110.674 721.595 110.036C722.232 109.398 722.551 108.601 722.551 107.645C722.551 106.688 722.232 105.891 721.595 105.253C720.98 104.615 720.194 104.297 719.238 104.297C718.577 104.297 718.008 104.422 717.529 104.672C717.051 104.923 716.641 105.242 716.3 105.629L711.38 103.374L712.644 91.7933H726.275V96.166H716.915L716.026 101.017L716.368 101.12C716.801 100.778 717.336 100.459 717.974 100.163C718.634 99.8669 719.431 99.7189 720.365 99.7189C721.321 99.7189 722.232 99.9125 723.098 100.3C723.986 100.664 724.76 101.188 725.421 101.871C726.104 102.554 726.651 103.386 727.061 104.365C727.471 105.344 727.676 106.437 727.676 107.645C727.676 108.852 727.471 109.956 727.061 110.958C726.651 111.938 726.07 112.78 725.318 113.486C724.567 114.192 723.679 114.739 722.654 115.126C721.629 115.513 720.502 115.707 719.272 115.707Z" fill="#010B17"/>
<path fill-rule="evenodd" clip-rule="evenodd" d="M636.438 91.8291C635.16 90.2757 632.781 90.2757 631.503 91.8291L631.09 92.3309C630.413 93.1527 629.372 93.5839 628.313 93.481L627.666 93.4182C625.664 93.2237 623.982 94.9056 624.176 96.908L624.239 97.5548C624.342 98.6141 623.911 99.6551 623.089 100.331L622.587 100.744C621.034 102.023 621.034 104.401 622.587 105.68L623.089 106.093C623.911 106.769 624.342 107.81 624.239 108.869L624.176 109.516C623.982 111.518 625.664 113.2 627.666 113.006L628.313 112.943C629.372 112.84 630.413 113.271 631.09 114.093L631.503 114.595C632.781 116.148 635.16 116.148 636.438 114.595L636.851 114.093C637.527 113.271 638.568 112.84 639.627 112.943L640.274 113.006C642.277 113.2 643.959 111.518 643.764 109.516L643.701 108.869C643.598 107.81 644.03 106.769 644.851 106.093L645.353 105.68C646.907 104.401 646.907 102.023 645.353 100.744L644.851 100.331C644.03 99.6551 643.598 98.6141 643.701 97.5548L643.764 96.908C643.959 94.9056 642.277 93.2237 640.274 93.4182L639.627 93.481C638.568 93.5839 637.527 93.1527 636.851 92.3309L636.438 91.8291ZM634.701 94.4699C634.419 93.837 633.521 93.837 633.24 94.4699L632.053 97.1439C631.88 97.5329 631.433 97.7182 631.035 97.5653L628.305 96.5141C627.659 96.2652 627.024 96.9004 627.272 97.5468L628.324 100.277C628.477 100.674 628.291 101.122 627.902 101.294L625.228 102.482C624.595 102.763 624.595 103.661 625.228 103.942L627.902 105.13C628.291 105.302 628.477 105.75 628.324 106.147L627.272 108.877C627.024 109.524 627.659 110.159 628.305 109.91L631.035 108.859C631.433 108.706 631.88 108.891 632.053 109.28L633.24 111.954C633.521 112.587 634.419 112.587 634.701 111.954L635.888 109.28C636.061 108.891 636.508 108.706 636.905 108.859L639.636 109.91C640.282 110.159 640.917 109.524 640.668 108.877L639.617 106.147C639.464 105.75 639.649 105.302 640.038 105.13L642.712 103.942C643.345 103.661 643.345 102.763 642.712 102.482L640.038 101.294C639.649 101.122 639.464 100.674 639.617 100.277L640.668 97.5468C640.917 96.9004 640.282 96.2652 639.636 96.5141L636.905 97.5653C636.508 97.7182 636.061 97.5329 635.888 97.1439L634.701 94.4699Z" fill="#FAAB00"/>
<path d="M747.213 90.7012H744.428V99.8702L737.945 93.3867L735.976 95.3557L742.459 101.839H733.29V104.624H742.459L735.976 111.107L737.945 113.076L744.428 106.593V115.762H747.213V106.593L753.696 113.076L755.665 111.107L749.181 104.624H758.35V101.839H749.181L755.665 95.3557L753.696 93.3867L747.213 99.8702V90.7012Z" fill="#EA4336"/>
<path d="M420.613 62.7728C420.165 63.7024 419.604 64.584 418.93 65.4174C418.289 66.2188 417.52 66.94 416.622 67.5811C415.757 68.1902 414.747 68.671 413.593 69.0236C412.439 69.3762 411.173 69.5525 409.795 69.5525C408 69.5525 406.349 69.248 404.842 68.639C403.336 67.9978 402.037 67.1163 400.947 65.9944C399.858 64.8725 399.008 63.5422 398.399 62.0035C397.79 60.4649 397.485 58.798 397.485 57.0029C397.485 55.2078 397.79 53.5409 398.399 52.0023C399.008 50.4636 399.858 49.1333 400.947 48.0114C402.037 46.8894 403.336 46.024 404.842 45.4149C406.349 44.7738 408 44.4532 409.795 44.4532C411.173 44.4532 412.423 44.6295 413.545 44.9822C414.699 45.3348 415.709 45.8316 416.574 46.4727C417.472 47.0818 418.241 47.803 418.882 48.6365C419.523 49.4378 420.036 50.2873 420.421 51.1849L415.517 53.2524C414.972 52.0343 414.218 51.0887 413.257 50.4155C412.295 49.7424 411.077 49.4058 409.602 49.4058C408.705 49.4058 407.839 49.5981 407.006 49.9828C406.205 50.3354 405.483 50.8483 404.842 51.5214C404.233 52.1625 403.736 52.9479 403.352 53.8775C402.999 54.8071 402.823 55.8489 402.823 57.0029C402.823 58.1569 402.999 59.1987 403.352 60.1283C403.736 61.0579 404.233 61.8593 404.842 62.5324C405.483 63.1735 406.205 63.6864 407.006 64.0711C407.839 64.4237 408.705 64.6 409.602 64.6C411.077 64.6 412.327 64.2634 413.353 63.5902C414.411 62.885 415.228 61.9234 415.805 60.7053L420.613 62.7728ZM423.508 68.7832V34.3558H428.845V68.7832H423.508Z" fill="#010B17"/>
<path d="M475.839 65.6097H475.55C474.845 66.7317 473.835 67.6773 472.521 68.4466C471.239 69.1839 469.78 69.5525 468.146 69.5525C465.165 69.5525 462.937 68.671 461.462 66.908C459.988 65.1129 459.25 62.7408 459.25 59.7917V45.2226H464.588V59.0705C464.588 61.122 465.052 62.5645 465.982 63.3979C466.944 64.1993 468.194 64.6 469.732 64.6C470.63 64.6 471.431 64.4077 472.137 64.023C472.874 63.6383 473.499 63.1254 474.012 62.4843C474.525 61.8112 474.909 61.0579 475.166 60.2244C475.422 59.3589 475.55 58.4614 475.55 57.5318V45.2226H480.888V68.7832H475.839V65.6097ZM502.897 65.754H502.608C501.967 66.7797 500.99 67.6773 499.675 68.4466C498.361 69.1839 496.79 69.5525 494.963 69.5525C493.457 69.5525 492.014 69.248 490.636 68.639C489.289 67.9978 488.103 67.1163 487.078 65.9944C486.052 64.8725 485.234 63.5582 484.625 62.0516C484.016 60.5129 483.712 58.83 483.712 57.0029C483.712 55.1757 484.016 53.5089 484.625 52.0023C485.234 50.4636 486.052 49.1333 487.078 48.0114C488.103 46.8894 489.289 46.024 490.636 45.4149C492.014 44.7738 493.457 44.4532 494.963 44.4532C496.79 44.4532 498.361 44.8379 499.675 45.6072C500.99 46.3445 501.967 47.226 502.608 48.2518H502.897L502.608 44.9822V34.3558H507.946V68.7832H502.897V65.754ZM495.973 64.6C496.87 64.6 497.736 64.4237 498.569 64.0711C499.435 63.7185 500.172 63.2216 500.781 62.5805C501.422 61.9394 501.935 61.154 502.32 60.2244C502.705 59.2628 502.897 58.1889 502.897 57.0029C502.897 55.8168 502.705 54.759 502.32 53.8294C501.935 52.8678 501.422 52.0664 500.781 51.4253C500.172 50.7842 499.435 50.2873 498.569 49.9347C497.736 49.5821 496.87 49.4058 495.973 49.4058C495.043 49.4058 494.162 49.5821 493.328 49.9347C492.495 50.2873 491.758 50.8002 491.117 51.4733C490.507 52.1145 490.011 52.8998 489.626 53.8294C489.241 54.759 489.049 55.8168 489.049 57.0029C489.049 58.1889 489.241 59.2468 489.626 60.1764C490.011 61.106 490.507 61.9073 491.117 62.5805C491.758 63.2216 492.495 63.7185 493.328 64.0711C494.162 64.4237 495.043 64.6 495.973 64.6Z" fill="#010B17"/>
<path d="M431.584 56.7915C431.584 49.8413 437.219 44.207 444.169 44.207V44.207C444.169 51.1573 438.535 56.7915 431.584 56.7915V56.7915Z" fill="#4285F4"/>
<path d="M431.584 56.7915C431.584 63.7417 437.219 69.376 444.169 69.376V69.376C444.169 62.4258 438.535 56.7915 431.584 56.7915V56.7915Z" fill="#4285F4"/>
<path d="M456.753 56.7915C456.753 49.8413 451.119 44.207 444.169 44.207V44.207C444.169 51.1573 449.803 56.7915 456.753 56.7915V56.7915Z" fill="#4285F4"/>
<path d="M456.753 56.7915C456.753 63.7417 451.119 69.376 444.169 69.376V69.376C444.169 62.4258 449.803 56.7915 456.753 56.7915V56.7915Z" fill="#4285F4"/>
<path d="M544.346 62.7728C543.898 63.7024 543.337 64.584 542.663 65.4174C542.022 66.2188 541.253 66.94 540.355 67.5811C539.49 68.1902 538.48 68.671 537.326 69.0236C536.172 69.3762 534.906 69.5525 533.528 69.5525C531.733 69.5525 530.082 69.248 528.575 68.639C527.068 67.9978 525.77 67.1163 524.68 65.9944C523.59 64.8725 522.741 63.5422 522.132 62.0035C521.523 60.4649 521.218 58.798 521.218 57.0029C521.218 55.2078 521.523 53.5409 522.132 52.0023C522.741 50.4636 523.59 49.1333 524.68 48.0114C525.77 46.8894 527.068 46.024 528.575 45.4149C530.082 44.7738 531.733 44.4532 533.528 44.4532C534.906 44.4532 536.156 44.6295 537.278 44.9822C538.432 45.3348 539.442 45.8316 540.307 46.4727C541.205 47.0818 541.974 47.803 542.615 48.6365C543.256 49.4378 543.769 50.2873 544.154 51.1849L539.249 53.2524C538.705 52.0343 537.951 51.0887 536.99 50.4155C536.028 49.7424 534.81 49.4058 533.335 49.4058C532.438 49.4058 531.572 49.5981 530.739 49.9828C529.937 50.3354 529.216 50.8483 528.575 51.5214C527.966 52.1625 527.469 52.9479 527.085 53.8775C526.732 54.8071 526.556 55.8489 526.556 57.0029C526.556 58.1569 526.732 59.1987 527.085 60.1283C527.469 61.0579 527.966 61.8593 528.575 62.5324C529.216 63.1735 529.937 63.6864 530.739 64.0711C531.572 64.4237 532.438 64.6 533.335 64.6C534.81 64.6 536.06 64.2634 537.086 63.5902C538.144 62.885 538.961 61.9234 539.538 60.7053L544.346 62.7728Z" fill="#010B17"/>
<path fill-rule="evenodd" clip-rule="evenodd" d="M559.145 44.2988C552.189 44.2988 546.55 49.9377 546.55 56.8936C546.55 63.8495 552.189 69.4884 559.145 69.4884C566.101 69.4884 571.74 63.8495 571.74 56.8936C571.74 49.9377 566.101 44.2988 559.145 44.2988ZM559.145 65.2901C554.508 65.2901 550.749 61.5309 550.749 56.8936L567.542 56.8936C567.542 61.5309 563.782 65.2901 559.145 65.2901Z" fill="#34A853"/>
<path d="M575.114 45.1538H580.162V48.3273H580.451C581.188 47.1733 582.214 46.2277 583.528 45.4904C584.843 44.7532 586.237 44.3845 587.711 44.3845C589.475 44.3845 590.981 44.8012 592.231 45.6347C593.514 46.4361 594.443 47.4939 595.02 48.8081C595.821 47.558 596.895 46.5162 598.242 45.6828C599.588 44.8173 601.207 44.3845 603.098 44.3845C604.541 44.3845 605.791 44.6249 606.849 45.1058C607.906 45.5545 608.772 46.1956 609.445 47.0291C610.15 47.8625 610.679 48.8723 611.032 50.0583C611.384 51.2123 611.561 52.5105 611.561 53.953V68.7145H606.223V54.8666C606.223 52.8151 605.823 51.3886 605.021 50.5872C604.252 49.7538 603.114 49.3371 601.607 49.3371C600.742 49.3371 599.957 49.5294 599.251 49.9141C598.578 50.2987 598.001 50.8276 597.52 51.5008C597.04 52.1419 596.671 52.8952 596.415 53.7607C596.158 54.6262 596.03 55.5398 596.03 56.5014V68.7145H590.693V54.8666C590.693 52.8151 590.276 51.3886 589.442 50.5872C588.641 49.7538 587.471 49.3371 585.932 49.3371C585.099 49.3371 584.346 49.5294 583.673 49.9141C582.999 50.2987 582.422 50.8276 581.942 51.5008C581.461 52.1419 581.092 52.8952 580.836 53.7607C580.579 54.6262 580.451 55.5398 580.451 56.5014V68.7145H575.114V45.1538Z" fill="#010B17"/>
<path d="M615.802 45.1538H620.851V48.3273H621.139C621.877 47.1733 622.902 46.2277 624.217 45.4904C625.531 44.7532 626.925 44.3845 628.4 44.3845C630.163 44.3845 631.669 44.8012 632.92 45.6347C634.202 46.4361 635.131 47.4939 635.708 48.8081C636.51 47.558 637.584 46.5162 638.93 45.6828C640.276 44.8173 641.895 44.3845 643.786 44.3845C645.229 44.3845 646.479 44.6249 647.537 45.1058C648.595 45.5545 649.46 46.1956 650.133 47.0291C650.838 47.8625 651.367 48.8723 651.72 50.0583C652.073 51.2123 652.249 52.5105 652.249 53.953V68.7145H646.912V54.8666C646.912 52.8151 646.511 51.3886 645.71 50.5872C644.94 49.7538 643.802 49.3371 642.296 49.3371C641.43 49.3371 640.645 49.5294 639.94 49.9141C639.267 50.2987 638.69 50.8276 638.209 51.5008C637.728 52.1419 637.359 52.8952 637.103 53.7607C636.846 54.6262 636.718 55.5398 636.718 56.5014V68.7145H631.381V54.8666C631.381 52.8151 630.964 51.3886 630.131 50.5872C629.329 49.7538 628.159 49.3371 626.621 49.3371C625.787 49.3371 625.034 49.5294 624.361 49.9141C623.688 50.2987 623.111 50.8276 622.63 51.5008C622.149 52.1419 621.78 52.8952 621.524 53.7607C621.267 54.6262 621.139 55.5398 621.139 56.5014V68.7145H615.802V45.1538Z" fill="#010B17"/>
<path d="M672.887 65.541H672.598C671.893 66.6629 670.883 67.6086 669.569 68.3779C668.287 69.1152 666.828 69.4838 665.193 69.4838C662.212 69.4838 659.984 68.6023 658.51 66.8392C657.035 65.0441 656.298 62.6721 656.298 59.723V45.1538H661.635V59.0017C661.635 61.0533 662.1 62.4958 663.03 63.3292C663.991 64.1306 665.241 64.5313 666.78 64.5313C667.678 64.5313 668.479 64.3389 669.184 63.9543C669.922 63.5696 670.547 63.0567 671.059 62.4156C671.572 61.7425 671.957 60.9892 672.213 60.1557C672.47 59.2902 672.598 58.3927 672.598 57.4631V45.1538H677.935V68.7145H672.887V65.541Z" fill="#010B17"/>
<path d="M687.389 48.3273H687.678C688.383 47.2054 689.377 46.2758 690.659 45.5385C691.973 44.7692 693.448 44.3845 695.083 44.3845C698.064 44.3845 700.292 45.2821 701.766 47.0772C703.241 48.8402 703.978 51.1963 703.978 54.1454V68.7145H698.641V54.8666C698.641 52.8151 698.16 51.3886 697.198 50.5872C696.269 49.7538 695.034 49.3371 693.496 49.3371C692.566 49.3371 691.749 49.5294 691.044 49.9141C690.338 50.2987 689.729 50.8276 689.216 51.5008C688.704 52.1419 688.319 52.8952 688.062 53.7607C687.806 54.5941 687.678 55.4756 687.678 56.4052V68.7145H682.341V45.1538H687.389V48.3273Z" fill="#010B17"/>
<path d="M711.268 51.5886C710.242 51.5886 709.377 51.236 708.672 50.5307C707.998 49.8255 707.662 48.9761 707.662 47.9824C707.662 46.9886 707.998 46.1392 708.672 45.434C709.377 44.7287 710.242 44.3761 711.268 44.3761C712.262 44.3761 713.095 44.7287 713.768 45.434C714.474 46.1392 714.826 46.9886 714.826 47.9824C714.826 48.9761 714.474 49.8255 713.768 50.5307C713.095 51.236 712.262 51.5886 711.268 51.5886ZM708.575 68.7145V53.9252H713.913V68.7145H708.575Z" fill="#010B17"/>
<path d="M721.095 49.866H716.96V45.1538H721.095V37.9414H726.432V45.1538H732.25V49.866H726.432V60.348C726.432 60.925 726.496 61.454 726.625 61.9348C726.753 62.4156 726.945 62.8163 727.202 63.1369C727.747 63.7459 728.436 64.0504 729.269 64.0504C729.782 64.0504 730.183 64.0184 730.471 63.9543C730.76 63.8581 731.064 63.7299 731.385 63.5696L733.02 68.2817C732.346 68.5382 731.641 68.7305 730.904 68.8587C730.167 69.019 729.333 69.0991 728.404 69.0991C727.282 69.0991 726.288 68.9228 725.422 68.5702C724.557 68.2176 723.804 67.7368 723.163 67.1277C721.784 65.7494 721.095 63.8741 721.095 61.502V49.866Z" fill="#010B17"/>
<path d="M743.252 67.3682L733.443 45.1538H739.406L745.897 60.7808H746.137L752.436 45.1538H758.35L743.589 79.1004H737.915L743.252 67.3682Z" fill="#010B17"/>
<path d="M714.905 47.934C714.905 49.9737 713.252 51.6272 711.212 51.6272C709.172 51.6272 707.519 49.9737 707.519 47.934C707.519 45.8943 709.172 44.2408 711.212 44.2408C713.252 44.2408 714.905 45.8943 714.905 47.934Z" fill="#010B17"/>
<path d="M144.872 115.848L173.199 118.435L163.579 143.07L135.252 140.652V178.196L115.999 189.311V151.767L109.252 160.139L101.621 169.603L94.4321 178.521L87.6851 186.893L78.0649 173.36L89.9991 158.488L106.379 138.078L78.0649 135.647L87.6851 111.012L115.999 113.43V75.7302L123.877 71.1802L135.252 64.6152V102.315L163.579 67.1892L173.199 80.7222L151.528 107.593L144.872 115.848Z" fill="#4285F4" stroke="#010B17" stroke-width="1.62457" stroke-linecap="round" stroke-linejoin="round"/>
<path d="M87.6866 111.012L78.0664 135.647L73.6596 133.45L52.0664 122.647L61.6866 98.0117L87.6866 111.012Z" fill="white" stroke="#010B17" stroke-width="1.62457" stroke-linecap="round" stroke-linejoin="round"/>
<path d="M106.38 138.073L90.0006 158.483L78.0664 173.355L52.0664 160.355L73.6596 133.445L78.0664 135.642L106.38 138.073Z" fill="white" stroke="#010B17" stroke-width="1.62457" stroke-linecap="round" stroke-linejoin="round"/>
<path d="M115.994 113.43L87.6802 111.012L61.6802 98.0117L89.9942 100.43L115.994 113.43Z" fill="white" stroke="#010B17" stroke-width="1.62457" stroke-linecap="round" stroke-linejoin="round"/>
<path d="M135.25 102.314V64.6135L130.921 62.4425L137.577 54.1875L163.577 67.1875L135.25 102.314Z" fill="white" stroke="#010B17" stroke-width="1.62457" stroke-linecap="round" stroke-linejoin="round"/>
<path d="M135.243 64.6133L123.868 71.1783L115.99 75.7283L109.243 72.3613L89.9902 62.7283L109.243 51.6133L130.914 62.4423L135.243 64.6133Z" fill="white" stroke="#010B17" stroke-width="1.62457" stroke-linecap="round" stroke-linejoin="round"/>
<path d="M115.99 75.7266V113.427L89.9902 100.427V62.7266L109.243 72.3596L115.99 75.7266Z" fill="white" stroke="#010B17" stroke-width="1.62457" stroke-linecap="round" stroke-linejoin="round"/>
<path d="M87.6866 186.891L61.6866 173.89L52.0664 160.357L78.0664 173.357L87.6866 186.891Z" fill="white" stroke="#010B17" stroke-width="1.62457" stroke-linecap="round" stroke-linejoin="round"/>
<path d="M115.994 151.764V189.308L94.4268 178.518L101.616 169.6L109.247 160.136L115.994 151.764Z" fill="white" stroke="#010B17" stroke-width="1.62457" stroke-linecap="round" stroke-linejoin="round"/>
<path d="M173.202 118.434L144.875 115.847L151.531 107.592L173.202 118.434Z" stroke="#010B17" stroke-width="1.62457" stroke-linecap="round" stroke-linejoin="round"/>
<defs>
<linearGradient id="paint0_linear_4027_504" x1="5.26589e-06" y1="239.041" x2="877.067" y2="385.115" gradientUnits="userSpaceOnUse">
<stop stop-color="#EA4336"/>
<stop offset="0.335" stop-color="#4285F4"/>
<stop offset="0.645" stop-color="#34A853"/>
<stop offset="0.96" stop-color="#FAAB00"/>
</linearGradient>
</defs>
</svg>
