<svg width="332" height="58" viewBox="0 0 332 58" fill="none" xmlns="http://www.w3.org/2000/svg">
<path d="M34.9 40.25C33.1333 42.3833 31.05 44.0167 28.65 45.15C26.25 46.25 23.5667 46.8 20.6 46.8C17.9333 46.8 15.45 46.3167 13.15 45.35C10.8833 44.3833 8.91667 43.0667 7.25 41.4C5.58333 39.7333 4.26667 37.7667 3.3 35.5C2.33333 33.2 1.85 30.7333 1.85 28.1C1.85 25.4667 2.33333 23.0167 3.3 20.75C4.26667 18.45 5.58333 16.4667 7.25 14.8C8.91667 13.1333 10.8833 11.8167 13.15 10.85C15.45 9.88333 17.9333 9.4 20.6 9.4C23.4667 9.4 25.9833 9.9 28.15 10.9C30.35 11.9 32.3 13.35 34 15.25L29.25 19.85C28.1833 18.6167 26.95 17.6333 25.55 16.9C24.1833 16.1667 22.55 15.8 20.65 15.8C18.9833 15.8 17.4167 16.1 15.95 16.7C14.4833 17.2667 13.2 18.0833 12.1 19.15C11.0333 20.2167 10.1833 21.5167 9.55 23.05C8.91667 24.55 8.6 26.2333 8.6 28.1C8.6 29.9667 8.91667 31.6667 9.55 33.2C10.1833 34.7 11.0333 35.9833 12.1 37.05C13.2 38.1167 14.4833 38.95 15.95 39.55C17.4167 40.1167 18.9833 40.4 20.65 40.4C22.65 40.4 24.4167 40 25.95 39.2C27.5167 38.3667 28.9 37.2 30.1 35.7L34.9 40.25ZM50.1422 20.7C52.0422 20.7 53.7755 21.0333 55.3422 21.7C56.9422 22.3333 58.3089 23.2333 59.4422 24.4C60.6089 25.5333 61.5089 26.9 62.1422 28.5C62.8089 30.1 63.1422 31.85 63.1422 33.75C63.1422 35.65 62.8089 37.4 62.1422 39C61.5089 40.6 60.6089 41.9833 59.4422 43.15C58.3089 44.2833 56.9422 45.1833 55.3422 45.85C53.7755 46.4833 52.0422 46.8 50.1422 46.8C48.2422 46.8 46.4922 46.4833 44.8922 45.85C43.3255 45.1833 41.9589 44.2833 40.7922 43.15C39.6589 41.9833 38.7589 40.6 38.0922 39C37.4589 37.4 37.1422 35.65 37.1422 33.75C37.1422 31.85 37.4589 30.1 38.0922 28.5C38.7589 26.9 39.6589 25.5333 40.7922 24.4C41.9589 23.2333 43.3255 22.3333 44.8922 21.7C46.4922 21.0333 48.2422 20.7 50.1422 20.7ZM50.1422 40.75C50.9755 40.75 51.7755 40.6 52.5422 40.3C53.3422 39.9667 54.0422 39.5 54.6422 38.9C55.2422 38.3 55.7089 37.5667 56.0422 36.7C56.4089 35.8333 56.5922 34.85 56.5922 33.75C56.5922 32.65 56.4089 31.6667 56.0422 30.8C55.7089 29.9333 55.2422 29.2 54.6422 28.6C54.0422 28 53.3422 27.55 52.5422 27.25C51.7755 26.9167 50.9755 26.75 50.1422 26.75C49.2755 26.75 48.4589 26.9167 47.6922 27.25C46.9255 27.55 46.2422 28 45.6422 28.6C45.0422 29.2 44.5589 29.9333 44.1922 30.8C43.8589 31.6667 43.6922 32.65 43.6922 33.75C43.6922 34.85 43.8589 35.8333 44.1922 36.7C44.5589 37.5667 45.0422 38.3 45.6422 38.9C46.2422 39.5 46.9255 39.9667 47.6922 40.3C48.4589 40.6 49.2755 40.75 50.1422 40.75ZM66.8625 21.5H73.0125V24.7H73.4125C74.1792 23.5 75.2125 22.5333 76.5125 21.8C77.8458 21.0667 79.3125 20.7 80.9125 20.7C82.7792 20.7 84.3458 21.1333 85.6125 22C86.8792 22.8667 87.7792 23.9333 88.3125 25.2C89.0792 23.9667 90.1625 22.9167 91.5625 22.05C92.9625 21.15 94.6625 20.7 96.6625 20.7C98.1625 20.7 99.4625 20.95 100.563 21.45C101.663 21.9167 102.563 22.5833 103.263 23.45C103.996 24.3167 104.546 25.3667 104.913 26.6C105.279 27.8 105.463 29.1167 105.463 30.55V46H98.9125V31.75C98.9125 28.4167 97.5458 26.75 94.8125 26.75C93.9458 26.75 93.1792 26.95 92.5125 27.35C91.8458 27.7167 91.2792 28.2333 90.8125 28.9C90.3792 29.5333 90.0292 30.3 89.7625 31.2C89.5292 32.1 89.4125 33.0667 89.4125 34.1V46H82.8625V31.75C82.8625 28.4167 81.4292 26.75 78.5625 26.75C77.7292 26.75 76.9958 26.95 76.3625 27.35C75.7292 27.7167 75.1958 28.2333 74.7625 28.9C74.3292 29.5333 73.9958 30.3 73.7625 31.2C73.5292 32.1 73.4125 33.0667 73.4125 34.1V46H66.8625V21.5ZM114.507 17.95C113.94 17.95 113.39 17.85 112.857 17.65C112.357 17.4167 111.907 17.1167 111.507 16.75C111.14 16.35 110.84 15.9 110.607 15.4C110.407 14.9 110.307 14.35 110.307 13.75C110.307 13.15 110.407 12.6 110.607 12.1C110.84 11.6 111.14 11.1667 111.507 10.8C111.907 10.4 112.357 10.1 112.857 9.9C113.39 9.66666 113.94 9.55 114.507 9.55C115.673 9.55 116.673 9.96666 117.507 10.8C118.34 11.6 118.757 12.5833 118.757 13.75C118.757 14.9167 118.34 15.9167 117.507 16.75C116.673 17.55 115.673 17.95 114.507 17.95ZM111.257 46V21.5H117.807V46H111.257ZM129.946 24.7H130.346C131.113 23.4667 132.146 22.5 133.446 21.8C134.746 21.0667 136.229 20.7 137.896 20.7C139.429 20.7 140.779 20.95 141.946 21.45C143.113 21.95 144.063 22.6667 144.796 23.6C145.563 24.5 146.129 25.6 146.496 26.9C146.896 28.1667 147.096 29.5833 147.096 31.15V46H140.546V31.95C140.546 30.1833 140.146 28.8833 139.346 28.05C138.579 27.1833 137.446 26.75 135.946 26.75C135.046 26.75 134.246 26.95 133.546 27.35C132.879 27.7167 132.296 28.2333 131.796 28.9C131.329 29.5333 130.963 30.3 130.696 31.2C130.463 32.0667 130.346 33 130.346 34V46H123.796V21.5H129.946V24.7ZM163.563 57.6C161.83 57.6 160.28 57.3667 158.913 56.9C157.58 56.4667 156.413 55.8833 155.413 55.15C154.413 54.45 153.58 53.6667 152.913 52.8C152.246 51.9333 151.763 51.0667 151.463 50.2L157.713 47.7C158.18 49 158.946 50 160.013 50.7C161.08 51.4333 162.263 51.8 163.563 51.8C165.63 51.8 167.263 51.15 168.463 49.85C169.663 48.5833 170.263 46.8 170.263 44.5V42.8H169.863C169.096 43.8667 168.08 44.7167 166.813 45.35C165.58 45.95 164.113 46.25 162.413 46.25C160.946 46.25 159.513 45.95 158.113 45.35C156.746 44.75 155.53 43.9 154.463 42.8C153.396 41.6667 152.53 40.3167 151.863 38.75C151.196 37.1833 150.863 35.4333 150.863 33.5C150.863 31.5667 151.196 29.8167 151.863 28.25C152.53 26.65 153.396 25.3 154.463 24.2C155.53 23.0667 156.746 22.2 158.113 21.6C159.513 21 160.946 20.7 162.413 20.7C164.113 20.7 165.58 21.0167 166.813 21.65C168.08 22.25 169.096 23.0833 169.863 24.15H170.263V21.5H176.513V44.25C176.513 46.3167 176.196 48.1667 175.563 49.8C174.93 51.4667 174.046 52.8667 172.913 54C171.78 55.1667 170.413 56.05 168.813 56.65C167.246 57.2833 165.496 57.6 163.563 57.6ZM163.813 40.35C164.613 40.35 165.396 40.2 166.163 39.9C166.963 39.6 167.663 39.1667 168.263 38.6C168.863 38 169.346 37.2833 169.713 36.45C170.08 35.5833 170.263 34.6 170.263 33.5C170.263 32.4 170.08 31.4167 169.713 30.55C169.346 29.6833 168.863 28.9667 168.263 28.4C167.663 27.8 166.963 27.35 166.163 27.05C165.396 26.75 164.613 26.6 163.813 26.6C163.013 26.6 162.23 26.75 161.463 27.05C160.696 27.35 160.013 27.8 159.413 28.4C158.813 29 158.33 29.7333 157.963 30.6C157.596 31.4333 157.413 32.4 157.413 33.5C157.413 34.6 157.596 35.5833 157.963 36.45C158.33 37.2833 158.813 38 159.413 38.6C160.013 39.1667 160.696 39.6 161.463 39.9C162.23 40.2 163.013 40.35 163.813 40.35ZM203.32 46.8C201.786 46.8 200.32 46.5833 198.92 46.15C197.52 45.7167 196.236 45.0667 195.07 44.2C193.903 43.3333 192.886 42.2833 192.02 41.05C191.153 39.7833 190.47 38.3167 189.97 36.65L196.32 34.15C196.786 35.95 197.603 37.45 198.77 38.65C199.936 39.8167 201.47 40.4 203.37 40.4C204.07 40.4 204.736 40.3167 205.37 40.15C206.036 39.95 206.62 39.6833 207.12 39.35C207.653 38.9833 208.07 38.5333 208.37 38C208.67 37.4667 208.82 36.85 208.82 36.15C208.82 35.4833 208.703 34.8833 208.47 34.35C208.236 33.8167 207.836 33.3167 207.27 32.85C206.736 32.3833 206.02 31.9333 205.12 31.5C204.253 31.0667 203.17 30.6167 201.87 30.15L199.67 29.35C198.703 29.0167 197.72 28.5667 196.72 28C195.753 27.4333 194.87 26.75 194.07 25.95C193.27 25.15 192.603 24.2167 192.07 23.15C191.57 22.05 191.32 20.8167 191.32 19.45C191.32 18.05 191.586 16.75 192.12 15.55C192.686 14.3167 193.47 13.25 194.47 12.35C195.503 11.4167 196.72 10.7 198.12 10.2C199.553 9.66666 201.136 9.4 202.87 9.4C204.67 9.4 206.22 9.65 207.52 10.15C208.853 10.6167 209.97 11.2333 210.87 12C211.803 12.7333 212.553 13.55 213.12 14.45C213.686 15.35 214.103 16.2 214.37 17L208.42 19.5C208.086 18.5 207.47 17.6 206.57 16.8C205.703 16 204.503 15.6 202.97 15.6C201.503 15.6 200.286 15.95 199.32 16.65C198.353 17.3167 197.87 18.2 197.87 19.3C197.87 20.3667 198.336 21.2833 199.27 22.05C200.203 22.7833 201.686 23.5 203.72 24.2L205.97 24.95C207.403 25.45 208.703 26.0333 209.87 26.7C211.07 27.3333 212.086 28.1 212.92 29C213.786 29.9 214.436 30.9333 214.87 32.1C215.336 33.2333 215.57 34.55 215.57 36.05C215.57 37.9167 215.186 39.5333 214.42 40.9C213.686 42.2333 212.736 43.3333 211.57 44.2C210.403 45.0667 209.086 45.7167 207.62 46.15C206.153 46.5833 204.72 46.8 203.32 46.8ZM231.929 20.7C233.829 20.7 235.563 21.0333 237.129 21.7C238.729 22.3333 240.096 23.2333 241.229 24.4C242.396 25.5333 243.296 26.9 243.929 28.5C244.596 30.1 244.929 31.85 244.929 33.75C244.929 35.65 244.596 37.4 243.929 39C243.296 40.6 242.396 41.9833 241.229 43.15C240.096 44.2833 238.729 45.1833 237.129 45.85C235.563 46.4833 233.829 46.8 231.929 46.8C230.029 46.8 228.279 46.4833 226.679 45.85C225.113 45.1833 223.746 44.2833 222.579 43.15C221.446 41.9833 220.546 40.6 219.879 39C219.246 37.4 218.929 35.65 218.929 33.75C218.929 31.85 219.246 30.1 219.879 28.5C220.546 26.9 221.446 25.5333 222.579 24.4C223.746 23.2333 225.113 22.3333 226.679 21.7C228.279 21.0333 230.029 20.7 231.929 20.7ZM231.929 40.75C232.763 40.75 233.563 40.6 234.329 40.3C235.129 39.9667 235.829 39.5 236.429 38.9C237.029 38.3 237.496 37.5667 237.829 36.7C238.196 35.8333 238.379 34.85 238.379 33.75C238.379 32.65 238.196 31.6667 237.829 30.8C237.496 29.9333 237.029 29.2 236.429 28.6C235.829 28 235.129 27.55 234.329 27.25C233.563 26.9167 232.763 26.75 231.929 26.75C231.063 26.75 230.246 26.9167 229.479 27.25C228.713 27.55 228.029 28 227.429 28.6C226.829 29.2 226.346 29.9333 225.979 30.8C225.646 31.6667 225.479 32.65 225.479 33.75C225.479 34.85 225.646 35.8333 225.979 36.7C226.346 37.5667 226.829 38.3 227.429 38.9C228.029 39.5 228.713 39.9667 229.479 40.3C230.246 40.6 231.063 40.75 231.929 40.75ZM260.738 20.7C262.638 20.7 264.371 21.0333 265.938 21.7C267.538 22.3333 268.905 23.2333 270.038 24.4C271.205 25.5333 272.105 26.9 272.738 28.5C273.405 30.1 273.738 31.85 273.738 33.75C273.738 35.65 273.405 37.4 272.738 39C272.105 40.6 271.205 41.9833 270.038 43.15C268.905 44.2833 267.538 45.1833 265.938 45.85C264.371 46.4833 262.638 46.8 260.738 46.8C258.838 46.8 257.088 46.4833 255.488 45.85C253.921 45.1833 252.555 44.2833 251.388 43.15C250.255 41.9833 249.355 40.6 248.688 39C248.055 37.4 247.738 35.65 247.738 33.75C247.738 31.85 248.055 30.1 248.688 28.5C249.355 26.9 250.255 25.5333 251.388 24.4C252.555 23.2333 253.921 22.3333 255.488 21.7C257.088 21.0333 258.838 20.7 260.738 20.7ZM260.738 40.75C261.571 40.75 262.371 40.6 263.138 40.3C263.938 39.9667 264.638 39.5 265.238 38.9C265.838 38.3 266.305 37.5667 266.638 36.7C267.005 35.8333 267.188 34.85 267.188 33.75C267.188 32.65 267.005 31.6667 266.638 30.8C266.305 29.9333 265.838 29.2 265.238 28.6C264.638 28 263.938 27.55 263.138 27.25C262.371 26.9167 261.571 26.75 260.738 26.75C259.871 26.75 259.055 26.9167 258.288 27.25C257.521 27.55 256.838 28 256.238 28.6C255.638 29.2 255.155 29.9333 254.788 30.8C254.455 31.6667 254.288 32.65 254.288 33.75C254.288 34.85 254.455 35.8333 254.788 36.7C255.155 37.5667 255.638 38.3 256.238 38.9C256.838 39.5 257.521 39.9667 258.288 40.3C259.055 40.6 259.871 40.75 260.738 40.75ZM283.608 24.7H284.008C284.775 23.4667 285.808 22.5 287.108 21.8C288.408 21.0667 289.892 20.7 291.558 20.7C293.092 20.7 294.442 20.95 295.608 21.45C296.775 21.95 297.725 22.6667 298.458 23.6C299.225 24.5 299.792 25.6 300.158 26.9C300.558 28.1667 300.758 29.5833 300.758 31.15V46H294.208V31.95C294.208 30.1833 293.808 28.8833 293.008 28.05C292.242 27.1833 291.108 26.75 289.608 26.75C288.708 26.75 287.908 26.95 287.208 27.35C286.542 27.7167 285.958 28.2333 285.458 28.9C284.992 29.5333 284.625 30.3 284.358 31.2C284.125 32.0667 284.008 33 284.008 34V46H277.458V21.5H283.608V24.7Z" fill="black"/>
<path fill-rule="evenodd" clip-rule="evenodd" d="M332 33C332 25.8203 326.18 20 319 20C311.82 20 306 25.8203 306 33C306 40.1797 311.82 46 319 46C326.18 46 332 40.1797 332 33ZM310.333 33C310.333 28.2135 314.214 24.3333 319 24.3333L319 41.6667C314.214 41.6667 310.333 37.7865 310.333 33Z" fill="#34A853"/>
</svg>
