<svg width="424" height="318" viewBox="0 0 424 318" fill="none" xmlns="http://www.w3.org/2000/svg">
<path d="M43.4351 70.3332C42.6386 71.983 41.6431 73.5475 40.4484 75.0266C39.3106 76.4488 37.9453 77.7289 36.3524 78.8666C34.8163 79.9475 33.0243 80.8009 30.9763 81.4267C28.9283 82.0525 26.6811 82.3653 24.2349 82.3653C21.0491 82.3653 18.1193 81.8249 15.4455 80.744C12.7717 79.6062 10.4677 78.0417 8.53342 76.0506C6.59918 74.0595 5.0916 71.6986 4.01071 68.9679C2.92981 66.2372 2.38936 63.2789 2.38936 60.0931C2.38936 56.9073 2.92981 53.9491 4.01071 51.2184C5.0916 48.4877 6.59918 46.1268 8.53342 44.1356C10.4677 42.1445 12.7717 40.6085 15.4455 39.5276C18.1193 38.3898 21.0491 37.8209 24.2349 37.8209C26.6811 37.8209 28.8998 38.1338 30.891 38.7596C32.939 39.3854 34.731 40.2672 36.267 41.4049C37.8599 42.4858 39.2253 43.7659 40.3631 45.245C41.5008 46.6672 42.4111 48.1748 43.0938 49.7677L34.3897 53.4371C33.4225 51.2753 32.0856 49.597 30.379 48.4023C28.6723 47.2077 26.5105 46.6103 23.8936 46.6103C22.3007 46.6103 20.7646 46.9517 19.2855 47.6343C17.8633 48.2601 16.5833 49.1704 15.4455 50.365C14.3646 51.5028 13.4828 52.8966 12.8001 54.5464C12.1743 56.1962 11.8614 58.0451 11.8614 60.0931C11.8614 62.1412 12.1743 63.9901 12.8001 65.6399C13.4828 67.2896 14.3646 68.7119 15.4455 69.9066C16.5833 71.0443 17.8633 71.9546 19.2855 72.6373C20.7646 73.263 22.3007 73.5759 23.8936 73.5759C26.5105 73.5759 28.7292 72.9786 30.5496 71.7839C32.427 70.5323 33.8777 68.8257 34.9017 66.6639L43.4351 70.3332ZM48.5725 81V19.9007H58.0446V81H48.5725Z" fill="#010B17"/>
<path d="M141.448 75.3679H140.936C139.684 77.3591 137.892 79.0373 135.56 80.4027C133.284 81.7111 130.696 82.3653 127.795 82.3653C122.504 82.3653 118.55 80.8009 115.933 77.672C113.316 74.4862 112.008 70.2763 112.008 65.0425V39.1863H121.48V63.7625C121.48 67.4034 122.305 69.9634 123.954 71.4426C125.661 72.8648 127.88 73.5759 130.611 73.5759C132.203 73.5759 133.626 73.2346 134.877 72.5519C136.186 71.8692 137.295 70.959 138.205 69.8212C139.116 68.6265 139.798 67.2896 140.253 65.8105C140.708 64.2745 140.936 62.6816 140.936 61.0318V39.1863H150.408V81H141.448V75.3679ZM189.468 75.6239H188.956C187.819 77.4444 186.084 79.0373 183.751 80.4027C181.419 81.7111 178.631 82.3653 175.388 82.3653C172.714 82.3653 170.154 81.8249 167.708 80.744C165.319 79.6062 163.214 78.0417 161.393 76.0506C159.573 74.0595 158.122 71.727 157.041 69.0532C155.961 66.3225 155.42 63.3358 155.42 60.0931C155.42 56.8504 155.961 53.8922 157.041 51.2184C158.122 48.4877 159.573 46.1268 161.393 44.1356C163.214 42.1445 165.319 40.6085 167.708 39.5276C170.154 38.3898 172.714 37.8209 175.388 37.8209C178.631 37.8209 181.419 38.5036 183.751 39.8689C186.084 41.1774 187.819 42.7419 188.956 44.5623H189.468L188.956 38.7596V19.9007H198.429V81H189.468V75.6239ZM177.18 73.5759C178.773 73.5759 180.309 73.263 181.788 72.6373C183.324 72.0115 184.633 71.1297 185.714 69.9919C186.852 68.8541 187.762 67.4603 188.444 65.8105C189.127 64.1038 189.468 62.198 189.468 60.0931C189.468 57.9882 189.127 56.1109 188.444 54.4611C187.762 52.7544 186.852 51.3322 185.714 50.1944C184.633 49.0566 183.324 48.1748 181.788 47.549C180.309 46.9232 178.773 46.6103 177.18 46.6103C175.531 46.6103 173.966 46.9232 172.487 47.549C171.008 48.1748 169.699 49.085 168.562 50.2797C167.481 51.4175 166.599 52.8113 165.916 54.4611C165.234 56.1109 164.892 57.9882 164.892 60.0931C164.892 62.198 165.234 64.0754 165.916 65.7252C166.599 67.375 167.481 68.7972 168.562 69.9919C169.699 71.1297 171.008 72.0115 172.487 72.6373C173.966 73.263 175.531 73.5759 177.18 73.5759Z" fill="#010B17"/>
<path d="M62.9062 60.3595C62.9062 48.0247 72.9056 38.0254 85.2403 38.0254V38.0254C85.2403 50.3602 75.241 60.3595 62.9062 60.3595V60.3595Z" fill="#4285F4"/>
<path d="M62.9062 60.3595C62.9062 72.6942 72.9056 82.6935 85.2403 82.6935V82.6935C85.2403 70.3588 75.241 60.3595 62.9062 60.3595V60.3595Z" fill="#4285F4"/>
<path d="M107.574 60.3595C107.574 48.0247 97.5751 38.0254 85.2403 38.0254V38.0254C85.2403 50.3602 95.2396 60.3595 107.574 60.3595V60.3595Z" fill="#4285F4"/>
<path d="M107.574 60.3595C107.574 72.6942 97.5751 82.6935 85.2403 82.6935V82.6935C85.2403 70.3588 95.2396 60.3595 107.574 60.3595V60.3595Z" fill="#4285F4"/>
<path d="M43.4351 139.911C42.6386 141.561 41.6431 143.126 40.4484 144.605C39.3106 146.027 37.9453 147.307 36.3524 148.445C34.8163 149.526 33.0243 150.379 30.9763 151.005C28.9283 151.631 26.6811 151.943 24.2349 151.943C21.0491 151.943 18.1193 151.403 15.4455 150.322C12.7717 149.184 10.4677 147.62 8.53342 145.629C6.59918 143.638 5.0916 141.277 4.01071 138.546C2.92981 135.815 2.38936 132.857 2.38936 129.671C2.38936 126.485 2.92981 123.527 4.01071 120.797C5.0916 118.066 6.59918 115.705 8.53342 113.714C10.4677 111.723 12.7717 110.187 15.4455 109.106C18.1193 107.968 21.0491 107.399 24.2349 107.399C26.6811 107.399 28.8998 107.712 30.891 108.338C32.939 108.963 34.731 109.845 36.267 110.983C37.8599 112.064 39.2253 113.344 40.3631 114.823C41.5008 116.245 42.4111 117.753 43.0938 119.346L34.3897 123.015C33.4225 120.853 32.0856 119.175 30.379 117.98C28.6723 116.786 26.5105 116.188 23.8936 116.188C22.3007 116.188 20.7646 116.53 19.2855 117.212C17.8633 117.838 16.5833 118.748 15.4455 119.943C14.3646 121.081 13.4828 122.475 12.8001 124.125C12.1743 125.774 11.8614 127.623 11.8614 129.671C11.8614 131.719 12.1743 133.568 12.8001 135.218C13.4828 136.868 14.3646 138.29 15.4455 139.485C16.5833 140.622 17.8633 141.533 19.2855 142.215C20.7646 142.841 22.3007 143.154 23.8936 143.154C26.5105 143.154 28.7292 142.557 30.5496 141.362C32.427 140.11 33.8777 138.404 34.9017 136.242L43.4351 139.911Z" fill="#010B17"/>
<path fill-rule="evenodd" clip-rule="evenodd" d="M69.7 107.764C57.3551 107.764 47.3477 117.771 47.3477 130.116C47.3477 142.461 57.3551 152.468 69.7 152.468C82.0449 152.468 92.0523 142.461 92.0523 130.116C92.0523 117.771 82.0449 107.764 69.7 107.764ZM69.7 145.018C61.4701 145.018 54.7984 138.346 54.7984 130.116L84.6016 130.116C84.6016 138.346 77.9299 145.018 69.7 145.018Z" fill="#34A853"/>
<path d="M98.0469 109.288H107.007V114.92H107.519C108.827 112.872 110.648 111.194 112.98 109.886C115.313 108.577 117.788 107.923 120.404 107.923C123.533 107.923 126.207 108.663 128.426 110.142C130.701 111.564 132.351 113.441 133.375 115.774C134.797 113.555 136.703 111.706 139.093 110.227C141.482 108.691 144.355 107.923 147.711 107.923C150.271 107.923 152.49 108.35 154.367 109.203C156.245 110 157.781 111.137 158.975 112.616C160.227 114.096 161.166 115.888 161.792 117.992C162.417 120.041 162.73 122.345 162.73 124.905V151.102H153.258V126.526C153.258 122.885 152.547 120.353 151.125 118.931C149.759 117.452 147.74 116.712 145.066 116.712C143.53 116.712 142.136 117.054 140.885 117.736C139.69 118.419 138.666 119.358 137.813 120.553C136.959 121.69 136.305 123.027 135.85 124.563C135.395 126.099 135.167 127.721 135.167 129.427V151.102H125.695V126.526C125.695 122.885 124.956 120.353 123.476 118.931C122.054 117.452 119.978 116.712 117.247 116.712C115.768 116.712 114.431 117.054 113.236 117.736C112.042 118.419 111.018 119.358 110.164 120.553C109.311 121.69 108.657 123.027 108.202 124.563C107.747 126.099 107.519 127.721 107.519 129.427V151.102H98.0469V109.288Z" fill="#010B17"/>
<path d="M170.258 109.288H179.218V114.92H179.73C181.038 112.872 182.859 111.194 185.191 109.886C187.524 108.577 189.998 107.923 192.615 107.923C195.744 107.923 198.418 108.663 200.637 110.142C202.912 111.564 204.562 113.441 205.586 115.774C207.008 113.555 208.914 111.706 211.303 110.227C213.693 108.691 216.566 107.923 219.922 107.923C222.482 107.923 224.701 108.35 226.578 109.203C228.455 110 229.992 111.137 231.186 112.616C232.438 114.096 233.376 115.888 234.002 117.992C234.628 120.041 234.941 122.345 234.941 124.905V151.102H225.469V126.526C225.469 122.885 224.758 120.353 223.335 118.931C221.97 117.452 219.951 116.712 217.277 116.712C215.741 116.712 214.347 117.054 213.095 117.736C211.901 118.419 210.877 119.358 210.023 120.553C209.17 121.69 208.516 123.027 208.061 124.563C207.606 126.099 207.378 127.721 207.378 129.427V151.102H197.906V126.526C197.906 122.885 197.166 120.353 195.687 118.931C194.265 117.452 192.188 116.712 189.458 116.712C187.979 116.712 186.642 117.054 185.447 117.736C184.252 118.419 183.228 119.358 182.375 120.553C181.522 121.69 180.867 123.027 180.412 124.563C179.957 126.099 179.73 127.721 179.73 129.427V151.102H170.258V109.288Z" fill="#010B17"/>
<path d="M271.567 145.47H271.055C269.804 147.461 268.012 149.139 265.679 150.505C263.404 151.813 260.815 152.467 257.914 152.467C252.623 152.467 248.669 150.903 246.052 147.774C243.435 144.588 242.127 140.378 242.127 135.145V109.288H251.599V133.865C251.599 137.506 252.424 140.066 254.074 141.545C255.78 142.967 257.999 143.678 260.73 143.678C262.323 143.678 263.745 143.337 264.997 142.654C266.305 141.971 267.414 141.061 268.325 139.923C269.235 138.729 269.917 137.392 270.373 135.913C270.828 134.377 271.055 132.784 271.055 131.134V109.288H280.527V151.102H271.567V145.47Z" fill="#010B17"/>
<path d="M297.306 114.92H297.818C299.069 112.929 300.833 111.28 303.108 109.971C305.441 108.606 308.058 107.923 310.959 107.923C316.25 107.923 320.204 109.516 322.82 112.702C325.437 115.831 326.746 120.012 326.746 125.246V151.102H317.274V126.526C317.274 122.885 316.42 120.353 314.714 118.931C313.064 117.452 310.874 116.712 308.143 116.712C306.493 116.712 305.042 117.054 303.791 117.736C302.539 118.419 301.458 119.358 300.548 120.553C299.638 121.69 298.955 123.027 298.5 124.563C298.045 126.042 297.818 127.607 297.818 129.257V151.102H288.345V109.288H297.306V114.92Z" fill="#010B17"/>
<path d="M339.684 120.708C337.863 120.708 336.327 120.083 335.076 118.831C333.881 117.579 333.284 116.072 333.284 114.308C333.284 112.545 333.881 111.037 335.076 109.786C336.327 108.534 337.863 107.908 339.684 107.908C341.447 107.908 342.927 108.534 344.121 109.786C345.373 111.037 345.999 112.545 345.999 114.308C345.999 116.072 345.373 117.579 344.121 118.831C342.927 120.083 341.447 120.708 339.684 120.708ZM334.905 151.102V124.855H344.377V151.102H334.905Z" fill="#010B17"/>
<path d="M357.124 117.651H349.785V109.288H357.124V96.4883H366.596V109.288H376.922V117.651H366.596V136.254C366.596 137.278 366.71 138.217 366.938 139.07C367.165 139.923 367.506 140.634 367.962 141.203C368.929 142.284 370.152 142.825 371.631 142.825C372.541 142.825 373.252 142.768 373.764 142.654C374.276 142.483 374.817 142.256 375.386 141.971L378.287 150.334C377.092 150.789 375.841 151.131 374.532 151.358C373.224 151.643 371.745 151.785 370.095 151.785C368.104 151.785 366.34 151.472 364.804 150.846C363.268 150.22 361.931 149.367 360.793 148.286C358.347 145.84 357.124 142.512 357.124 138.302V117.651Z" fill="#010B17"/>
<path d="M396.447 148.713L379.039 109.288H389.62L401.141 137.022H401.567L412.746 109.288H423.242L397.045 169.534H386.975L396.447 148.713Z" fill="#010B17"/>
<path d="M346.139 114.222C346.139 117.842 343.204 120.777 339.584 120.777C335.964 120.777 333.03 117.842 333.03 114.222C333.03 110.602 335.964 107.668 339.584 107.668C343.204 107.668 346.139 110.602 346.139 114.222Z" fill="#010B17"/>
<path d="M36.4377 214.78H35.9257C34.7879 216.601 33.0528 218.194 30.7203 219.559C28.3878 220.867 25.6002 221.522 22.3576 221.522C19.6837 221.522 17.1237 220.981 14.6775 219.9C12.2881 218.762 10.1832 217.198 8.36275 215.207C6.54229 213.216 5.0916 210.883 4.01071 208.209C2.92981 205.479 2.38936 202.492 2.38936 199.249C2.38936 196.007 2.92981 193.048 4.01071 190.375C5.0916 187.644 6.54229 185.283 8.36275 183.292C10.1832 181.301 12.2881 179.765 14.6775 178.684C17.1237 177.546 19.6837 176.977 22.3576 176.977C25.6002 176.977 28.3878 177.66 30.7203 179.025C33.0528 180.334 34.7879 181.898 35.9257 183.719H36.4377L35.9257 177.916V159.057H45.3978V220.156H36.4377V214.78ZM24.1496 212.732C25.7425 212.732 27.2785 212.419 28.7576 211.794C30.2936 211.168 31.6021 210.286 32.683 209.148C33.8208 208.01 34.731 206.617 35.4137 204.967C36.0964 203.26 36.4377 201.354 36.4377 199.249C36.4377 197.144 36.0964 195.267 35.4137 193.617C34.731 191.911 33.8208 190.488 32.683 189.351C31.6021 188.213 30.2936 187.331 28.7576 186.705C27.2785 186.079 25.7425 185.767 24.1496 185.767C22.4998 185.767 20.9353 186.079 19.4562 186.705C17.9771 187.331 16.6686 188.241 15.5308 189.436C14.4499 190.574 13.5681 191.968 12.8855 193.617C12.2028 195.267 11.8614 197.144 11.8614 199.249C11.8614 201.354 12.2028 203.232 12.8855 204.881C13.5681 206.531 14.4499 207.953 15.5308 209.148C16.6686 210.286 17.9771 211.168 19.4562 211.794C20.9353 212.419 22.4998 212.732 24.1496 212.732ZM79.2761 215.036H78.7641C77.5125 216.686 75.8912 218.194 73.9 219.559C71.9089 220.867 69.3773 221.522 66.3053 221.522C64.0866 221.522 62.0102 221.152 60.0759 220.412C58.1417 219.73 56.4634 218.762 55.0412 217.511C53.619 216.202 52.4812 214.695 51.6278 212.988C50.8314 211.225 50.4332 209.29 50.4332 207.185C50.4332 204.967 50.8598 202.976 51.7132 201.212C52.6234 199.448 53.8465 197.969 55.3825 196.775C56.9754 195.58 58.8528 194.67 61.0146 194.044C63.1764 193.361 65.5089 193.02 68.012 193.02C70.7996 193.02 73.132 193.304 75.0094 193.873C76.8867 194.385 78.309 194.869 79.2761 195.324V193.703C79.2761 192.451 78.9917 191.285 78.4228 190.204C77.9108 189.123 77.1712 188.213 76.2041 187.473C75.2938 186.677 74.2414 186.079 73.0467 185.681C71.852 185.226 70.6005 184.999 69.292 184.999C67.1871 184.999 65.2813 185.425 63.5746 186.279C61.9248 187.075 60.4457 188.383 59.1372 190.204L51.6278 185.255C53.619 182.524 56.0937 180.476 59.0519 179.111C62.0102 177.688 65.3666 176.977 69.1213 176.977C75.3223 176.977 80.101 178.513 83.4575 181.585C86.8708 184.657 88.5775 189.038 88.5775 194.727V220.156H79.2761V215.036ZM79.2761 202.748C78.0245 202.009 76.6307 201.411 75.0947 200.956C73.5587 200.501 71.7951 200.273 69.804 200.273C66.8458 200.273 64.4848 200.956 62.7213 202.321C60.9577 203.687 60.0759 205.337 60.0759 207.271C60.0759 208.295 60.3035 209.205 60.7586 210.001C61.2137 210.741 61.7826 211.395 62.4653 211.964C63.2048 212.533 64.0297 212.96 64.94 213.244C65.9071 213.529 66.8742 213.671 67.8413 213.671C69.3773 213.671 70.828 213.386 72.1934 212.818C73.6156 212.192 74.8387 211.395 75.8627 210.428C76.8867 209.404 77.7116 208.238 78.3374 206.929C78.9632 205.621 79.2761 204.227 79.2761 202.748ZM107.92 217.767L90.5122 178.343H101.094L112.614 206.076H113.04L124.219 178.343H134.715L108.518 238.588H98.4483L107.92 217.767ZM153.199 221.522C150.639 221.522 148.335 221.18 146.287 220.498C144.239 219.815 142.447 218.933 140.911 217.852C139.375 216.714 138.066 215.434 136.985 214.012C135.961 212.59 135.165 211.111 134.596 209.575L143.129 205.991C144.096 208.437 145.49 210.257 147.311 211.452C149.131 212.59 151.094 213.159 153.199 213.159C155.588 213.159 157.466 212.675 158.831 211.708C160.196 210.741 160.879 209.66 160.879 208.465C160.879 207.271 160.367 206.247 159.343 205.393C158.319 204.483 156.385 203.687 153.54 203.004L147.567 201.553C146.258 201.269 144.921 200.842 143.556 200.273C142.248 199.648 141.024 198.88 139.887 197.969C138.749 197.002 137.81 195.864 137.071 194.556C136.388 193.191 136.047 191.598 136.047 189.777C136.047 187.729 136.473 185.909 137.327 184.316C138.237 182.723 139.46 181.386 140.996 180.305C142.532 179.224 144.296 178.399 146.287 177.831C148.335 177.262 150.497 176.977 152.772 176.977C154.649 176.977 156.442 177.176 158.148 177.575C159.912 177.973 161.533 178.57 163.012 179.367C164.491 180.163 165.8 181.187 166.938 182.439C168.132 183.633 169.071 185.055 169.754 186.705L161.391 190.204C160.594 188.383 159.343 187.075 157.636 186.279C155.93 185.425 154.194 184.999 152.431 184.999C151.634 184.999 150.809 185.112 149.956 185.34C149.16 185.511 148.42 185.795 147.737 186.193C147.112 186.535 146.571 186.99 146.116 187.559C145.718 188.127 145.519 188.753 145.519 189.436C145.519 190.574 146.002 191.484 146.969 192.167C147.993 192.792 149.529 193.361 151.577 193.873L157.978 195.495C162.301 196.576 165.458 198.225 167.45 200.444C169.498 202.606 170.522 205.166 170.522 208.124C170.522 209.945 170.095 211.651 169.242 213.244C168.445 214.837 167.279 216.259 165.743 217.511C164.207 218.762 162.358 219.73 160.196 220.412C158.091 221.152 155.759 221.522 153.199 221.522Z" fill="#010B17"/>
<path d="M244.728 212.458H260.309V220.219H232.178V212.216C234.603 209.831 236.846 207.628 238.908 205.607C239.797 204.759 240.686 203.889 241.575 203C242.424 202.111 243.212 201.303 243.94 200.575C244.708 199.807 245.375 199.14 245.94 198.574C246.547 197.968 246.991 197.503 247.274 197.18C248.446 195.887 249.275 194.755 249.76 193.785C250.245 192.774 250.488 191.683 250.488 190.511C250.488 189.339 250.043 188.348 249.154 187.54C248.305 186.691 247.113 186.267 245.577 186.267C244.041 186.267 242.808 186.711 241.878 187.601C240.989 188.449 240.322 189.581 239.878 190.996L231.632 187.601C231.996 186.348 232.562 185.135 233.33 183.963C234.098 182.791 235.068 181.76 236.24 180.871C237.412 179.941 238.786 179.194 240.363 178.628C241.979 178.062 243.758 177.779 245.698 177.779C247.881 177.779 249.841 178.102 251.579 178.749C253.317 179.355 254.772 180.204 255.944 181.295C257.157 182.387 258.086 183.68 258.733 185.176C259.38 186.671 259.703 188.288 259.703 190.026C259.703 192.532 259.117 194.856 257.945 196.998C256.813 199.1 255.217 201.181 253.155 203.243L244.425 211.852L244.728 212.458ZM282.781 221.189C280.032 221.189 277.567 220.643 275.384 219.552C273.201 218.461 271.342 216.945 269.806 215.005C268.27 213.065 267.078 210.781 266.229 208.154C265.421 205.486 265.017 202.596 265.017 199.484C265.017 196.372 265.421 193.502 266.229 190.875C267.078 188.207 268.27 185.903 269.806 183.963C271.342 182.023 273.201 180.507 275.384 179.416C277.567 178.325 280.032 177.779 282.781 177.779C285.489 177.779 287.934 178.325 290.117 179.416C292.34 180.507 294.219 182.023 295.755 183.963C297.291 185.903 298.463 188.207 299.272 190.875C300.12 193.502 300.545 196.372 300.545 199.484C300.545 202.596 300.12 205.486 299.272 208.154C298.463 210.781 297.291 213.065 295.755 215.005C294.219 216.945 292.34 218.461 290.117 219.552C287.934 220.643 285.489 221.189 282.781 221.189ZM282.781 212.701C284.155 212.701 285.368 212.377 286.418 211.731C287.51 211.044 288.419 210.114 289.147 208.942C289.915 207.77 290.481 206.375 290.844 204.759C291.249 203.142 291.451 201.384 291.451 199.484C291.451 197.584 291.249 195.826 290.844 194.209C290.481 192.592 289.915 191.198 289.147 190.026C288.419 188.854 287.51 187.944 286.418 187.298C285.368 186.61 284.155 186.267 282.781 186.267C281.407 186.267 280.174 186.61 279.082 187.298C278.032 187.944 277.122 188.854 276.354 190.026C275.627 191.198 275.061 192.592 274.657 194.209C274.293 195.826 274.111 197.584 274.111 199.484C274.111 201.384 274.293 203.142 274.657 204.759C275.061 206.375 275.627 207.77 276.354 208.942C277.122 210.114 278.032 211.044 279.082 211.731C280.174 212.377 281.407 212.701 282.781 212.701ZM317.525 212.458H333.106V220.219H304.975V212.216C307.4 209.831 309.643 207.628 311.704 205.607C312.594 204.759 313.483 203.889 314.372 203C315.221 202.111 316.009 201.303 316.736 200.575C317.504 199.807 318.171 199.14 318.737 198.574C319.343 197.968 319.788 197.503 320.071 197.18C321.243 195.887 322.072 194.755 322.557 193.785C323.042 192.774 323.284 191.683 323.284 190.511C323.284 189.339 322.84 188.348 321.95 187.54C321.102 186.691 319.909 186.267 318.373 186.267C316.837 186.267 315.605 186.711 314.675 187.601C313.786 188.449 313.119 189.581 312.674 190.996L304.429 187.601C304.793 186.348 305.359 185.135 306.126 183.963C306.894 182.791 307.864 181.76 309.037 180.871C310.209 179.941 311.583 179.194 313.159 178.628C314.776 178.062 316.555 177.779 318.495 177.779C320.677 177.779 322.638 178.102 324.376 178.749C326.114 179.355 327.569 180.204 328.741 181.295C329.953 182.387 330.883 183.68 331.53 185.176C332.176 186.671 332.5 188.288 332.5 190.026C332.5 192.532 331.914 194.856 330.742 196.998C329.61 199.1 328.013 201.181 325.952 203.243L317.221 211.852L317.525 212.458ZM352.667 221.189C351.01 221.189 349.373 220.967 347.756 220.522C346.14 220.077 344.644 219.39 343.27 218.461C341.936 217.531 340.764 216.359 339.753 214.944C338.743 213.529 338.015 211.872 337.571 209.973L345.877 206.759C346.281 208.659 347.049 210.154 348.181 211.246C349.313 212.297 350.808 212.822 352.667 212.822C354.284 212.822 355.658 212.256 356.79 211.124C357.922 209.993 358.488 208.578 358.488 206.88C358.488 205.183 357.922 203.768 356.79 202.637C355.699 201.505 354.304 200.939 352.607 200.939C351.435 200.939 350.424 201.161 349.575 201.606C348.726 202.05 347.999 202.616 347.393 203.303L338.662 199.302L340.905 178.749H365.096V186.509H348.484L346.908 195.119L347.514 195.3C348.282 194.694 349.232 194.128 350.363 193.603C351.536 193.077 352.95 192.815 354.607 192.815C356.305 192.815 357.922 193.158 359.458 193.845C361.034 194.492 362.408 195.422 363.58 196.634C364.793 197.847 365.763 199.322 366.491 201.06C367.218 202.798 367.582 204.738 367.582 206.88C367.582 209.023 367.218 210.983 366.491 212.761C365.763 214.499 364.732 215.995 363.399 217.248C362.065 218.501 360.488 219.471 358.67 220.158C356.851 220.845 354.85 221.189 352.667 221.189Z" fill="#010B17"/>
<path fill-rule="evenodd" clip-rule="evenodd" d="M205.664 179.374C203.395 176.617 199.174 176.617 196.905 179.374L196.173 180.265C194.972 181.723 193.125 182.489 191.245 182.306L190.097 182.194C186.543 181.849 183.558 184.834 183.903 188.388L184.015 189.536C184.197 191.416 183.432 193.263 181.974 194.464L181.083 195.196C178.326 197.465 178.326 201.686 181.083 203.955L181.974 204.688C183.432 205.888 184.197 207.736 184.015 209.616L183.903 210.764C183.558 214.317 186.543 217.302 190.097 216.957L191.245 216.846C193.125 216.663 194.972 217.428 196.173 218.887L196.905 219.777C199.174 222.534 203.395 222.534 205.664 219.777L206.397 218.887C207.597 217.428 209.445 216.663 211.325 216.846L212.473 216.957C216.026 217.302 219.011 214.317 218.666 210.764L218.555 209.616C218.372 207.736 219.137 205.888 220.596 204.688L221.486 203.955C224.243 201.686 224.243 197.465 221.486 195.196L220.596 194.464C219.137 193.263 218.372 191.416 218.555 189.536L218.666 188.388C219.011 184.834 216.026 181.849 212.473 182.194L211.325 182.306C209.445 182.489 207.597 181.723 206.397 180.265L205.664 179.374ZM202.581 184.061C202.082 182.938 200.488 182.938 199.989 184.061L197.882 188.807C197.575 189.497 196.781 189.826 196.076 189.554L191.231 187.689C190.084 187.247 188.956 188.375 189.398 189.522L191.263 194.367C191.535 195.072 191.206 195.866 190.516 196.173L185.77 198.28C184.647 198.779 184.647 200.373 185.77 200.872L190.516 202.979C191.206 203.286 191.535 204.079 191.263 204.784L189.398 209.63C188.956 210.777 190.084 211.904 191.231 211.463L196.076 209.597C196.781 209.326 197.575 209.655 197.882 210.345L199.989 215.091C200.488 216.214 202.082 216.214 202.581 215.091L204.688 210.345C204.994 209.655 205.788 209.326 206.493 209.597L211.339 211.463C212.486 211.904 213.613 210.777 213.172 209.63L211.306 204.784C211.035 204.079 211.364 203.286 212.054 202.979L216.8 200.872C217.923 200.373 217.923 198.779 216.8 198.28L212.054 196.173C211.364 195.866 211.035 195.072 211.306 194.367L213.172 189.522C213.613 188.375 212.486 187.247 211.339 187.689L206.493 189.554C205.788 189.826 204.994 189.497 204.688 188.807L202.581 184.061Z" fill="#FAAB00"/>
<path d="M402.255 177.369H397.314V193.642L385.807 182.135L382.313 185.63L393.819 197.136H377.547V202.078H393.819L382.313 213.584L385.807 217.079L397.314 205.572V221.845H402.255V205.572L413.762 217.079L417.256 213.584L405.75 202.078H422.022V197.136H405.75L417.256 185.63L413.762 182.135L402.255 193.642V177.369Z" fill="#EA4336"/>
<path fill-rule="evenodd" clip-rule="evenodd" d="M3.09021 255.072L237.675 255V312.89H234.585V317.572L0 317.644V259.753H3.09021V255.072ZM231.495 264.363L3.09021 264.435V312.962L231.495 312.89V264.363Z" fill="#010B17"/>
<path d="M3.24354 264.363L231.202 264.292V312.685L3.24354 312.757V264.363Z" fill="white"/>
<path d="M83.624 274.088H91.56C92.904 274.088 94.1413 274.387 95.272 274.984C96.424 275.581 97.3307 276.413 97.992 277.48C98.6747 278.547 99.016 279.752 99.016 281.096C99.016 282.44 98.6747 283.645 97.992 284.712C97.3307 285.779 96.424 286.611 95.272 287.208C94.1413 287.805 92.904 288.104 91.56 288.104H87.208V297H83.624V274.088ZM91.624 284.712C92.4133 284.712 93.096 284.541 93.672 284.2C94.248 283.837 94.6853 283.379 94.984 282.824C95.2827 282.269 95.432 281.693 95.432 281.096C95.432 280.499 95.2827 279.923 94.984 279.368C94.6853 278.813 94.248 278.365 93.672 278.024C93.096 277.683 92.4133 277.512 91.624 277.512H87.208V284.712H91.624ZM107.719 297.512C105.735 297.512 104.22 296.925 103.175 295.752C102.151 294.557 101.639 292.904 101.639 290.792V280.68H105.159V290.312C105.159 291.635 105.468 292.627 106.087 293.288C106.727 293.949 107.559 294.28 108.583 294.28C109.415 294.28 110.151 294.067 110.791 293.64C111.431 293.192 111.921 292.605 112.263 291.88C112.604 291.155 112.775 290.376 112.775 289.544V280.68H116.295V297H112.967V294.888H112.775C112.327 295.656 111.633 296.285 110.695 296.776C109.756 297.267 108.764 297.512 107.719 297.512ZM120.392 280.68H123.752V282.824H123.912C124.381 282.056 125.074 281.427 125.992 280.936C126.93 280.424 127.922 280.168 128.968 280.168C130.952 280.168 132.456 280.755 133.48 281.928C134.525 283.08 135.048 284.659 135.048 286.664V297H131.528V287.144C131.528 285.864 131.208 284.925 130.568 284.328C129.949 283.731 129.085 283.432 127.976 283.432C127.186 283.432 126.482 283.656 125.864 284.104C125.245 284.531 124.765 285.107 124.424 285.832C124.082 286.557 123.912 287.336 123.912 288.168V297H120.392V280.68ZM146.473 297.512C144.873 297.512 143.433 297.139 142.153 296.392C140.894 295.645 139.902 294.621 139.177 293.32C138.473 291.997 138.121 290.515 138.121 288.872C138.121 287.315 138.462 285.875 139.145 284.552C139.849 283.208 140.819 282.141 142.057 281.352C143.294 280.563 144.702 280.168 146.281 280.168C147.923 280.168 149.342 280.531 150.537 281.256C151.753 281.981 152.67 282.973 153.289 284.232C153.929 285.491 154.249 286.909 154.249 288.488C154.249 288.787 154.217 289.16 154.153 289.608H141.641C141.769 291.123 142.302 292.296 143.241 293.128C144.201 293.939 145.31 294.344 146.569 294.344C147.571 294.344 148.435 294.12 149.161 293.672C149.907 293.203 150.505 292.573 150.953 291.784L153.929 293.192C153.161 294.536 152.158 295.592 150.921 296.36C149.683 297.128 148.201 297.512 146.473 297.512ZM150.665 286.92C150.622 286.344 150.441 285.779 150.121 285.224C149.801 284.648 149.31 284.168 148.649 283.784C148.009 283.4 147.219 283.208 146.281 283.208C145.15 283.208 144.19 283.549 143.401 284.232C142.633 284.893 142.099 285.789 141.801 286.92H150.665Z" fill="black"/>
</svg>
