<svg width="420" height="73" viewBox="0 0 420 73" fill="none" xmlns="http://www.w3.org/2000/svg">
<rect x="0.392578" y="34.9531" width="29.1191" height="12.6481" rx="6.32404" transform="rotate(-35 0.392578 34.9531)" fill="#EA4336" stroke="#010B17" stroke-width="1.86275"/>
<rect width="29.1191" height="12.6481" rx="6.32404" transform="matrix(0.819152 0.573576 0.573576 -0.819152 0.392578 38.0469)" fill="#4285F4" stroke="#010B17" stroke-width="1.86275"/>
<rect x="62.6084" y="38" width="29.1191" height="12.6481" rx="6.32404" transform="rotate(145 62.6084 38)" fill="#FAAB00" stroke="#010B17" stroke-width="1.86275"/>
<rect width="29.1191" height="12.6481" rx="6.32404" transform="matrix(-0.819152 -0.573576 -0.573576 0.819152 62.6084 34.9531)" fill="#34A853" stroke="#010B17" stroke-width="1.86275"/>
<path d="M97.2882 19.6945C97.2882 22.6749 96.404 25.0493 94.6357 26.8176C92.6487 28.9238 90.0359 29.9769 86.7972 29.9769C83.6976 29.9769 81.0749 28.9039 78.929 26.758C76.7831 24.6122 75.7102 21.9695 75.7102 18.8302C75.7102 15.6908 76.7831 13.0482 78.929 10.9023C81.0749 8.75646 83.6976 7.68352 86.7972 7.68352C88.3669 7.68352 89.8472 7.96169 91.238 8.51803C92.6289 9.07437 93.7714 9.85921 94.6655 10.8725L92.6984 12.8396C92.0427 12.0448 91.1883 11.4289 90.1353 10.9918C89.1021 10.5348 87.9894 10.3063 86.7972 10.3063C84.4725 10.3063 82.5055 11.111 80.8961 12.7204C79.3065 14.3497 78.5117 16.3863 78.5117 18.8302C78.5117 21.2741 79.3065 23.3107 80.8961 24.94C82.5055 26.5494 84.4725 27.3541 86.7972 27.3541C88.9232 27.3541 90.6916 26.758 92.1023 25.5659C93.5131 24.3737 94.3277 22.7345 94.5463 20.6482H86.7972V18.0851H97.1392C97.2385 18.6414 97.2882 19.1779 97.2882 19.6945ZM99.4609 22.198C99.4609 19.9528 100.166 18.095 101.577 16.6247C103.008 15.1544 104.806 14.4192 106.971 14.4192C109.137 14.4192 110.925 15.1544 112.336 16.6247C113.767 18.095 114.482 19.9528 114.482 22.198C114.482 24.4631 113.767 26.3209 112.336 27.7714C110.925 29.2417 109.137 29.9769 106.971 29.9769C104.806 29.9769 103.008 29.2417 101.577 27.7714C100.166 26.301 99.4609 24.4433 99.4609 22.198ZM102.203 22.198C102.203 23.7677 102.66 25.0393 103.574 26.0129C104.488 26.9865 105.62 27.4733 106.971 27.4733C108.323 27.4733 109.455 26.9865 110.369 26.0129C111.283 25.0393 111.74 23.7677 111.74 22.198C111.74 20.6482 111.283 19.3865 110.369 18.4129C109.435 17.4195 108.303 16.9227 106.971 16.9227C105.64 16.9227 104.508 17.4195 103.574 18.4129C102.66 19.3865 102.203 20.6482 102.203 22.198ZM116.436 22.198C116.436 19.9528 117.142 18.095 118.552 16.6247C119.983 15.1544 121.781 14.4192 123.947 14.4192C126.113 14.4192 127.901 15.1544 129.312 16.6247C130.742 18.095 131.457 19.9528 131.457 22.198C131.457 24.4631 130.742 26.3209 129.312 27.7714C127.901 29.2417 126.113 29.9769 123.947 29.9769C121.781 29.9769 119.983 29.2417 118.552 27.7714C117.142 26.301 116.436 24.4433 116.436 22.198ZM119.178 22.198C119.178 23.7677 119.635 25.0393 120.549 26.0129C121.463 26.9865 122.596 27.4733 123.947 27.4733C125.298 27.4733 126.431 26.9865 127.345 26.0129C128.259 25.0393 128.716 23.7677 128.716 22.198C128.716 20.6482 128.259 19.3865 127.345 18.4129C126.411 17.4195 125.278 16.9227 123.947 16.9227C122.616 16.9227 121.483 17.4195 120.549 18.4129C119.635 19.3865 119.178 20.6482 119.178 22.198ZM140.803 27.4733C142.154 27.4733 143.257 26.9865 144.111 26.0129C145.005 25.0393 145.453 23.7677 145.453 22.198C145.453 20.6681 145.005 19.4064 144.111 18.4129C143.237 17.4195 142.134 16.9227 140.803 16.9227C139.492 16.9227 138.389 17.4195 137.495 18.4129C136.601 19.4064 136.154 20.6681 136.154 22.198C136.154 23.7478 136.601 25.0095 137.495 25.9831C138.389 26.9766 139.492 27.4733 140.803 27.4733ZM140.714 36.4145C139.899 36.4145 139.134 36.3052 138.419 36.0867C137.704 35.888 137.048 35.5999 136.452 35.2224C135.876 34.8448 135.379 34.3978 134.962 33.8812C134.544 33.3646 134.226 32.7884 134.008 32.1526L136.601 31.0796C136.899 31.934 137.415 32.6195 138.151 33.1361C138.886 33.6527 139.74 33.911 140.714 33.911C142.204 33.911 143.366 33.4639 144.201 32.5698C145.035 31.6757 145.453 30.4438 145.453 28.8741V27.4733H145.333C144.817 28.2482 144.111 28.8642 143.217 29.3212C142.343 29.7583 141.389 29.9769 140.356 29.9769C138.449 29.9769 136.809 29.2318 135.438 27.7416C134.087 26.2116 133.412 24.3638 133.412 22.198C133.412 20.0323 134.087 18.1944 135.438 16.6843C136.809 15.1742 138.449 14.4192 140.356 14.4192C141.389 14.4192 142.343 14.6477 143.217 15.1047C144.111 15.5418 144.817 16.1478 145.333 16.9227H145.453V14.8961H148.075V28.8741C148.075 31.2187 147.41 33.0566 146.078 34.3878C144.727 35.739 142.939 36.4145 140.714 36.4145ZM154.458 8.16038V29.5H151.716V8.16038H154.458ZM164.509 29.9769C162.363 29.9769 160.595 29.2417 159.204 27.7714C157.813 26.301 157.118 24.4433 157.118 22.198C157.118 19.9727 157.793 18.1248 159.144 16.6545C160.495 15.1643 162.224 14.4192 164.33 14.4192C166.496 14.4192 168.215 15.1246 169.486 16.5353C170.778 17.9261 171.423 19.8833 171.423 22.4067L171.394 22.7047H159.919C159.959 24.1353 160.436 25.2877 161.35 26.162C162.264 27.0362 163.356 27.4733 164.628 27.4733C166.377 27.4733 167.748 26.5991 168.741 24.8506L171.185 26.0427C170.529 27.2746 169.615 28.2383 168.443 28.9337C167.291 29.6292 165.979 29.9769 164.509 29.9769ZM160.128 20.4396H168.503C168.423 19.4263 168.006 18.5918 167.251 17.9361C166.516 17.2605 165.522 16.9227 164.27 16.9227C163.237 16.9227 162.343 17.2406 161.588 17.8765C160.853 18.5123 160.366 19.3667 160.128 20.4396ZM181.553 29.5V8.16038H188.08C191.338 8.16038 193.951 9.14391 195.918 11.111C197.905 13.078 198.898 15.6511 198.898 18.8302C198.898 22.0291 197.905 24.6122 195.918 26.5792C193.951 28.5264 191.338 29.5 188.08 29.5H181.553ZM184.295 10.7831V26.8773H188.08C190.563 26.8773 192.52 26.1719 193.951 24.7612C195.382 23.3306 196.097 21.3536 196.097 18.8302C196.097 16.3267 195.382 14.3596 193.951 12.929C192.52 11.4984 190.563 10.7831 188.08 10.7831H184.295ZM208.101 29.9769C205.955 29.9769 204.186 29.2417 202.796 27.7714C201.405 26.301 200.709 24.4433 200.709 22.198C200.709 19.9727 201.385 18.1248 202.736 16.6545C204.087 15.1643 205.816 14.4192 207.922 14.4192C210.088 14.4192 211.806 15.1246 213.078 16.5353C214.369 17.9261 215.015 19.8833 215.015 22.4067L214.985 22.7047H203.511C203.551 24.1353 204.027 25.2877 204.941 26.162C205.855 27.0362 206.948 27.4733 208.22 27.4733C209.968 27.4733 211.339 26.5991 212.333 24.8506L214.777 26.0427C214.121 27.2746 213.207 28.2383 212.035 28.9337C210.882 29.6292 209.571 29.9769 208.101 29.9769ZM203.719 20.4396H212.094C212.015 19.4263 211.598 18.5918 210.843 17.9361C210.107 17.2605 209.114 16.9227 207.862 16.9227C206.829 16.9227 205.935 17.2406 205.18 17.8765C204.445 18.5123 203.958 19.3667 203.719 20.4396ZM224.623 29.5H221.881L215.98 14.8961H218.96L223.252 26.2216H223.312L227.663 14.8961H230.584L224.623 29.5ZM238.792 29.9769C236.646 29.9769 234.877 29.2417 233.487 27.7714C232.096 26.301 231.4 24.4433 231.4 22.198C231.4 19.9727 232.076 18.1248 233.427 16.6545C234.778 15.1643 236.507 14.4192 238.613 14.4192C240.779 14.4192 242.497 15.1246 243.769 16.5353C245.06 17.9261 245.706 19.8833 245.706 22.4067L245.676 22.7047H234.202C234.242 24.1353 234.719 25.2877 235.632 26.162C236.546 27.0362 237.639 27.4733 238.911 27.4733C240.659 27.4733 242.03 26.5991 243.024 24.8506L245.468 26.0427C244.812 27.2746 243.898 28.2383 242.726 28.9337C241.573 29.6292 240.262 29.9769 238.792 29.9769ZM234.411 20.4396H242.785C242.706 19.4263 242.289 18.5918 241.534 17.9361C240.799 17.2605 239.805 16.9227 238.553 16.9227C237.52 16.9227 236.626 17.2406 235.871 17.8765C235.136 18.5123 234.649 19.3667 234.411 20.4396ZM251.254 8.16038V29.5H248.512V8.16038H251.254ZM253.913 22.198C253.913 19.9528 254.618 18.095 256.029 16.6247C257.459 15.1544 259.258 14.4192 261.423 14.4192C263.589 14.4192 265.377 15.1544 266.788 16.6247C268.219 18.095 268.934 19.9528 268.934 22.198C268.934 24.4631 268.219 26.3209 266.788 27.7714C265.377 29.2417 263.589 29.9769 261.423 29.9769C259.258 29.9769 257.459 29.2417 256.029 27.7714C254.618 26.301 253.913 24.4433 253.913 22.198ZM256.655 22.198C256.655 23.7677 257.112 25.0393 258.026 26.0129C258.94 26.9865 260.072 27.4733 261.423 27.4733C262.774 27.4733 263.907 26.9865 264.821 26.0129C265.735 25.0393 266.192 23.7677 266.192 22.198C266.192 20.6482 265.735 19.3865 264.821 18.4129C263.887 17.4195 262.755 16.9227 261.423 16.9227C260.092 16.9227 258.96 17.4195 258.026 18.4129C257.112 19.3865 256.655 20.6482 256.655 22.198ZM278.73 27.4733C280.042 27.4733 281.144 26.9766 282.038 25.9831C282.932 25.0095 283.38 23.7478 283.38 22.198C283.38 20.6681 282.932 19.4064 282.038 18.4129C281.144 17.4195 280.042 16.9227 278.73 16.9227C277.399 16.9227 276.286 17.4195 275.392 18.4129C274.518 19.4064 274.081 20.6681 274.081 22.198C274.081 23.7478 274.518 25.0195 275.392 26.0129C276.286 26.9865 277.399 27.4733 278.73 27.4733ZM279.177 29.9769C278.104 29.9769 277.121 29.7484 276.227 29.2914C275.352 28.8344 274.677 28.2284 274.2 27.4733H274.081L274.2 29.5V35.9376H271.458V14.8961H274.081V16.9227H274.2C274.677 16.1677 275.352 15.5617 276.227 15.1047C277.121 14.6477 278.104 14.4192 279.177 14.4192C281.105 14.4192 282.734 15.1742 284.065 16.6843C285.436 18.2142 286.122 20.0522 286.122 22.198C286.122 24.3638 285.436 26.2017 284.065 27.7118C282.734 29.2218 281.105 29.9769 279.177 29.9769ZM295.488 29.9769C293.342 29.9769 291.574 29.2417 290.183 27.7714C288.792 26.301 288.096 24.4433 288.096 22.198C288.096 19.9727 288.772 18.1248 290.123 16.6545C291.474 15.1643 293.203 14.4192 295.309 14.4192C297.475 14.4192 299.193 15.1246 300.465 16.5353C301.757 17.9261 302.402 19.8833 302.402 22.4067L302.373 22.7047H290.898C290.938 24.1353 291.415 25.2877 292.329 26.162C293.243 27.0362 294.335 27.4733 295.607 27.4733C297.356 27.4733 298.727 26.5991 299.72 24.8506L302.164 26.0427C301.508 27.2746 300.594 28.2383 299.422 28.9337C298.27 29.6292 296.958 29.9769 295.488 29.9769ZM291.107 20.4396H299.482C299.402 19.4263 298.985 18.5918 298.23 17.9361C297.495 17.2605 296.501 16.9227 295.249 16.9227C294.216 16.9227 293.322 17.2406 292.567 17.8765C291.832 18.5123 291.345 19.3667 291.107 20.4396ZM307.95 29.5H305.208V14.8961H307.831V17.2804H307.95C308.228 16.5055 308.794 15.8498 309.649 15.3133C310.523 14.757 311.377 14.4788 312.212 14.4788C313.007 14.4788 313.682 14.598 314.239 14.8365L313.404 17.489C313.066 17.3499 312.53 17.2804 311.795 17.2804C310.761 17.2804 309.857 17.6976 309.082 18.5322C308.327 19.3667 307.95 20.3403 307.95 21.4529V29.5ZM343.61 19.6945C343.61 22.6749 342.725 25.0493 340.957 26.8176C338.97 28.9238 336.357 29.9769 333.119 29.9769C330.019 29.9769 327.396 28.9039 325.25 26.758C323.104 24.6122 322.032 21.9695 322.032 18.8302C322.032 15.6908 323.104 13.0482 325.25 10.9023C327.396 8.75646 330.019 7.68352 333.119 7.68352C334.688 7.68352 336.169 7.96169 337.559 8.51803C338.95 9.07437 340.093 9.85921 340.987 10.8725L339.02 12.8396C338.364 12.0448 337.51 11.4289 336.457 10.9918C335.423 10.5348 334.311 10.3063 333.119 10.3063C330.794 10.3063 328.827 11.111 327.217 12.7204C325.628 14.3497 324.833 16.3863 324.833 18.8302C324.833 21.2741 325.628 23.3107 327.217 24.94C328.827 26.5494 330.794 27.3541 333.119 27.3541C335.245 27.3541 337.013 26.758 338.424 25.5659C339.834 24.3737 340.649 22.7345 340.868 20.6482H333.119V18.0851H343.461C343.56 18.6414 343.61 19.1779 343.61 19.6945ZM348.922 29.5H346.18V14.8961H348.803V17.2804H348.922C349.2 16.5055 349.767 15.8498 350.621 15.3133C351.495 14.757 352.35 14.4788 353.184 14.4788C353.979 14.4788 354.654 14.598 355.211 14.8365L354.376 17.489C354.038 17.3499 353.502 17.2804 352.767 17.2804C351.734 17.2804 350.83 17.6976 350.055 18.5322C349.3 19.3667 348.922 20.3403 348.922 21.4529V29.5ZM355.569 22.198C355.569 19.9528 356.274 18.095 357.685 16.6247C359.115 15.1544 360.913 14.4192 363.079 14.4192C365.245 14.4192 367.033 15.1544 368.444 16.6247C369.875 18.095 370.59 19.9528 370.59 22.198C370.59 24.4631 369.875 26.3209 368.444 27.7714C367.033 29.2417 365.245 29.9769 363.079 29.9769C360.913 29.9769 359.115 29.2417 357.685 27.7714C356.274 26.301 355.569 24.4433 355.569 22.198ZM358.311 22.198C358.311 23.7677 358.768 25.0393 359.682 26.0129C360.596 26.9865 361.728 27.4733 363.079 27.4733C364.43 27.4733 365.563 26.9865 366.477 26.0129C367.391 25.0393 367.848 23.7677 367.848 22.198C367.848 20.6482 367.391 19.3865 366.477 18.4129C365.543 17.4195 364.41 16.9227 363.079 16.9227C361.748 16.9227 360.615 17.4195 359.682 18.4129C358.768 19.3865 358.311 20.6482 358.311 22.198ZM386.049 29.5H383.426V27.4733H383.307C382.89 28.1886 382.244 28.7847 381.37 29.2616C380.515 29.7384 379.621 29.9769 378.687 29.9769C376.899 29.9769 375.518 29.4702 374.544 28.4569C373.591 27.4237 373.114 25.9633 373.114 24.0757V14.8961H375.856V23.8969C375.915 26.2812 377.117 27.4733 379.462 27.4733C380.555 27.4733 381.469 27.0362 382.204 26.162C382.939 25.2678 383.307 24.2048 383.307 22.9729V14.8961H386.049V29.5ZM396.838 27.4733C398.149 27.4733 399.252 26.9766 400.146 25.9831C401.04 25.0095 401.487 23.7478 401.487 22.198C401.487 20.6681 401.04 19.4064 400.146 18.4129C399.252 17.4195 398.149 16.9227 396.838 16.9227C395.506 16.9227 394.394 17.4195 393.5 18.4129C392.625 19.4064 392.188 20.6681 392.188 22.198C392.188 23.7478 392.625 25.0195 393.5 26.0129C394.394 26.9865 395.506 27.4733 396.838 27.4733ZM397.285 29.9769C396.212 29.9769 395.228 29.7484 394.334 29.2914C393.46 28.8344 392.784 28.2284 392.307 27.4733H392.188L392.307 29.5V35.9376H389.565V14.8961H392.188V16.9227H392.307C392.784 16.1677 393.46 15.5617 394.334 15.1047C395.228 14.6477 396.212 14.4192 397.285 14.4192C399.212 14.4192 400.841 15.1742 402.172 16.6843C403.543 18.2142 404.229 20.0522 404.229 22.198C404.229 24.3638 403.543 26.2017 402.172 27.7118C400.841 29.2218 399.212 29.9769 397.285 29.9769ZM418.069 25.4467C418.069 26.7183 417.513 27.7912 416.4 28.6655C415.288 29.5397 413.887 29.9769 412.198 29.9769C410.728 29.9769 409.436 29.5993 408.323 28.8443C407.211 28.0694 406.416 27.0561 405.939 25.8043L408.383 24.7612C408.741 25.6354 409.257 26.3209 409.933 26.8176C410.628 27.2945 411.383 27.5329 412.198 27.5329C413.072 27.5329 413.797 27.3442 414.374 26.9667C414.97 26.5891 415.268 26.1421 415.268 25.6255C415.268 24.6916 414.552 24.0061 413.122 23.569L410.618 22.9431C407.777 22.2278 406.356 20.8569 406.356 18.8302C406.356 17.4989 406.893 16.4359 407.966 15.6412C409.059 14.8265 410.449 14.4192 412.138 14.4192C413.43 14.4192 414.592 14.7272 415.625 15.3431C416.678 15.9591 417.414 16.7837 417.831 17.8169L415.387 18.8302C415.109 18.2142 414.652 17.7374 414.016 17.3996C413.4 17.042 412.705 16.8631 411.93 16.8631C411.214 16.8631 410.569 17.042 409.992 17.3996C409.436 17.7572 409.158 18.1944 409.158 18.711C409.158 19.5455 409.943 20.1416 411.512 20.4992L413.718 21.0655C416.619 21.7808 418.069 23.2412 418.069 25.4467Z" fill="#010B17"/>
<path d="M95.351 62.1322C94.3376 63.3243 93.1157 64.2681 91.6851 64.9635C90.2545 65.6391 88.6451 65.9769 86.8568 65.9769C85.2673 65.9769 83.797 65.6987 82.4459 65.1424C81.0947 64.5661 79.9125 63.7813 78.8992 62.7878C77.9057 61.7745 77.1209 60.5923 76.5447 59.2412C75.9883 57.8901 75.7102 56.4197 75.7102 54.8302C75.7102 53.2605 75.9883 51.8001 76.5447 50.449C77.1209 49.078 77.9057 47.8958 78.8992 46.9023C79.9125 45.889 81.0947 45.1042 82.4459 44.5478C83.797 43.9716 85.2673 43.6835 86.8568 43.6835C88.506 43.6835 89.9863 43.9915 91.2976 44.6074C92.609 45.2035 93.7614 46.0579 94.7549 47.1706L92.3706 49.4953C91.6553 48.6409 90.8506 47.9952 89.9564 47.558C89.0822 47.1209 88.049 46.9023 86.8568 46.9023C85.8038 46.9023 84.8004 47.0911 83.8466 47.4686C82.9128 47.8263 82.0981 48.3528 81.4027 49.0482C80.7073 49.7238 80.151 50.5583 79.7337 51.5518C79.3363 52.5254 79.1376 53.6182 79.1376 54.8302C79.1376 56.0422 79.3363 57.145 79.7337 58.1384C80.151 59.112 80.7073 59.9465 81.4027 60.642C82.0981 61.3175 82.9128 61.8441 83.8466 62.2216C84.8004 62.5792 85.8038 62.758 86.8568 62.758C88.1285 62.758 89.261 62.4997 90.2545 61.9831C91.248 61.4467 92.1321 60.7115 92.907 59.7776L95.351 62.1322ZM98.1125 65.5V44.1604H101.421V65.5H98.1125ZM111.696 50.4192C112.809 50.4192 113.832 50.6179 114.766 51.0153C115.7 51.3928 116.505 51.9293 117.18 52.6247C117.856 53.3201 118.382 54.1447 118.76 55.0984C119.137 56.0522 119.326 57.0854 119.326 58.198C119.326 59.3107 119.137 60.3439 118.76 61.2976C118.382 62.2514 117.856 63.0759 117.18 63.7714C116.505 64.4668 115.7 65.0132 114.766 65.4106C113.832 65.7881 112.809 65.9769 111.696 65.9769C110.584 65.9769 109.56 65.7881 108.627 65.4106C107.693 65.0132 106.888 64.4668 106.212 63.7714C105.537 63.0759 105.01 62.2514 104.633 61.2976C104.255 60.3439 104.067 59.3107 104.067 58.198C104.067 57.0854 104.255 56.0522 104.633 55.0984C105.01 54.1447 105.537 53.3201 106.212 52.6247C106.888 51.9293 107.693 51.3928 108.627 51.0153C109.56 50.6179 110.584 50.4192 111.696 50.4192ZM111.696 62.9071C112.253 62.9071 112.789 62.7978 113.306 62.5792C113.822 62.3607 114.279 62.0527 114.677 61.6553C115.094 61.2579 115.422 60.7711 115.66 60.1949C115.899 59.5988 116.018 58.9332 116.018 58.198C116.018 57.4629 115.899 56.8072 115.66 56.231C115.422 55.6349 115.094 55.1382 114.677 54.7408C114.279 54.3434 113.822 54.0354 113.306 53.8169C112.789 53.5983 112.253 53.489 111.696 53.489C111.14 53.489 110.604 53.5983 110.087 53.8169C109.57 54.0354 109.103 54.3434 108.686 54.7408C108.289 55.1382 107.971 55.6349 107.732 56.231C107.494 56.8072 107.375 57.4629 107.375 58.198C107.375 58.9332 107.494 59.5988 107.732 60.1949C107.971 60.7711 108.289 61.2579 108.686 61.6553C109.103 62.0527 109.57 62.3607 110.087 62.5792C110.604 62.7978 111.14 62.9071 111.696 62.9071ZM132.156 63.5329H131.977C131.54 64.2284 130.914 64.8145 130.1 65.2914C129.305 65.7484 128.401 65.9769 127.387 65.9769C125.54 65.9769 124.159 65.4305 123.245 64.3376C122.331 63.225 121.874 61.7546 121.874 59.9267V50.8961H125.182V59.4796C125.182 60.7512 125.47 61.6454 126.046 62.162C126.642 62.6587 127.417 62.9071 128.371 62.9071C128.927 62.9071 129.424 62.7878 129.861 62.5494C130.318 62.311 130.706 61.9931 131.023 61.5957C131.341 61.1784 131.58 60.7115 131.739 60.1949C131.898 59.6584 131.977 59.1021 131.977 58.5259V50.8961H135.285V65.5H132.156V63.5329ZM149.822 63.6224H149.643C149.246 64.2582 148.64 64.8145 147.825 65.2914C147.01 65.7484 146.037 65.9769 144.904 65.9769C143.97 65.9769 143.076 65.7881 142.222 65.4106C141.387 65.0132 140.652 64.4668 140.016 63.7714C139.381 63.0759 138.874 62.2613 138.496 61.3274C138.119 60.3737 137.93 59.3306 137.93 58.198C137.93 57.0655 138.119 56.0323 138.496 55.0984C138.874 54.1447 139.381 53.3201 140.016 52.6247C140.652 51.9293 141.387 51.3928 142.222 51.0153C143.076 50.6179 143.97 50.4192 144.904 50.4192C146.037 50.4192 147.01 50.6576 147.825 51.1345C148.64 51.5915 149.246 52.1379 149.643 52.7737H149.822L149.643 50.7471V44.1604H152.951V65.5H149.822V63.6224ZM145.53 62.9071C146.086 62.9071 146.623 62.7978 147.139 62.5792C147.676 62.3607 148.133 62.0527 148.51 61.6553C148.908 61.2579 149.226 60.7711 149.464 60.1949C149.703 59.5988 149.822 58.9332 149.822 58.198C149.822 57.4629 149.703 56.8072 149.464 56.231C149.226 55.6349 148.908 55.1382 148.51 54.7408C148.133 54.3434 147.676 54.0354 147.139 53.8169C146.623 53.5983 146.086 53.489 145.53 53.489C144.954 53.489 144.407 53.5983 143.891 53.8169C143.374 54.0354 142.917 54.3533 142.52 54.7706C142.142 55.168 141.834 55.6548 141.596 56.231C141.358 56.8072 141.238 57.4629 141.238 58.198C141.238 58.9332 141.358 59.5889 141.596 60.1651C141.834 60.7413 142.142 61.238 142.52 61.6553C142.917 62.0527 143.374 62.3607 143.891 62.5792C144.407 62.7978 144.954 62.9071 145.53 62.9071Z" fill="#4285F4"/>
<circle cx="162.127" cy="54.5012" r="2.79412" fill="#010B17"/>
<path d="M173.534 56.8569V65.5H170.792V44.1604H178.065C179.912 44.1604 181.482 44.7763 182.774 46.0082C184.085 47.2401 184.741 48.7403 184.741 50.5086C184.741 52.3167 184.085 53.8268 182.774 55.0388C181.502 56.2508 179.932 56.8569 178.065 56.8569H173.534ZM173.534 46.7831V54.2341H178.124C179.217 54.2341 180.121 53.8665 180.836 53.1314C181.571 52.3962 181.939 51.522 181.939 50.5086C181.939 49.5152 181.571 48.6508 180.836 47.9157C180.121 47.1606 179.217 46.7831 178.124 46.7831H173.534ZM199.961 65.5H197.338V63.4733H197.219C196.802 64.1886 196.156 64.7847 195.282 65.2616C194.428 65.7384 193.533 65.9769 192.6 65.9769C190.811 65.9769 189.43 65.4702 188.457 64.4569C187.503 63.4237 187.026 61.9633 187.026 60.0757V50.8961H189.768V59.8969C189.828 62.2812 191.03 63.4733 193.374 63.4733C194.467 63.4733 195.381 63.0362 196.116 62.162C196.852 61.2678 197.219 60.2048 197.219 58.9729V50.8961H199.961V65.5ZM203.597 50.8961H206.22V52.9227H206.339C206.756 52.2074 207.392 51.6114 208.246 51.1345C209.121 50.6576 210.025 50.4192 210.959 50.4192C212.747 50.4192 214.118 50.9358 215.071 51.969C216.045 52.9823 216.532 54.4328 216.532 56.3204V65.5H213.79V56.4992C213.73 54.1149 212.528 52.9227 210.184 52.9227C209.091 52.9227 208.177 53.3698 207.442 54.2639C206.706 55.1382 206.339 56.1912 206.339 57.4231V65.5H203.597V50.8961ZM226.605 65.9769C224.459 65.9769 222.691 65.2417 221.3 63.7714C219.909 62.301 219.214 60.4433 219.214 58.198C219.214 55.9727 219.89 54.1248 221.241 52.6545C222.592 51.1643 224.32 50.4192 226.427 50.4192C228.592 50.4192 230.311 51.1246 231.583 52.5353C232.874 53.9261 233.52 55.8833 233.52 58.4067L233.49 58.7047H222.016C222.055 60.1353 222.532 61.2877 223.446 62.162C224.36 63.0362 225.453 63.4733 226.725 63.4733C228.473 63.4733 229.844 62.5991 230.838 60.8506L233.281 62.0427C232.626 63.2746 231.712 64.2383 230.539 64.9337C229.387 65.6292 228.076 65.9769 226.605 65.9769ZM222.224 56.4396H230.599C230.52 55.4263 230.102 54.5918 229.347 53.9361C228.612 53.2605 227.619 52.9227 226.367 52.9227C225.334 52.9227 224.44 53.2406 223.685 53.8765C222.949 54.5123 222.463 55.3667 222.224 56.4396Z" fill="#010B17"/>
</svg>
