<svg width="407" height="70" viewBox="0 0 407 70" fill="none" xmlns="http://www.w3.org/2000/svg">
<rect y="16.0203" width="27.9306" height="12.1318" rx="6.06591" transform="rotate(-35 0 16.0203)" fill="#EA4336" stroke="#010B17" stroke-width="2"/>
<rect width="27.9306" height="12.1318" rx="6.06591" transform="matrix(0.819152 0.573576 0.573576 -0.819152 0 18.9865)" fill="#4285F4" stroke="#010B17" stroke-width="2"/>
<rect x="59.6733" y="18.941" width="27.9306" height="12.1318" rx="6.06591" transform="rotate(145 59.6733 18.941)" fill="#FAAB00" stroke="#010B17" stroke-width="2"/>
<rect width="27.9306" height="12.1318" rx="6.06591" transform="matrix(-0.819152 -0.573576 -0.573576 0.819152 59.6733 16.0203)" fill="#34A853" stroke="#010B17" stroke-width="2"/>
<path d="M93.7423 18.459C93.7423 21.359 92.882 23.6693 91.1613 25.39C89.228 27.4393 86.6857 28.464 83.5343 28.464C80.5183 28.464 77.9663 27.42 75.8783 25.332C73.7903 23.244 72.7463 20.6727 72.7463 17.618C72.7463 14.5633 73.7903 11.992 75.8783 9.904C77.9663 7.816 80.5183 6.772 83.5343 6.772C85.0617 6.772 86.502 7.04267 87.8553 7.584C89.2087 8.12533 90.3203 8.889 91.1903 9.875L89.2763 11.789C88.6383 11.0157 87.807 10.4163 86.7823 9.991C85.777 9.54633 84.6943 9.324 83.5343 9.324C81.2723 9.324 79.3583 10.107 77.7923 11.673C76.2457 13.2583 75.4723 15.24 75.4723 17.618C75.4723 19.996 76.2457 21.9777 77.7923 23.563C79.3583 25.129 81.2723 25.912 83.5343 25.912C85.603 25.912 87.3237 25.332 88.6963 24.172C90.069 23.012 90.8617 21.417 91.0743 19.387H83.5343V16.893H93.5973C93.694 17.4343 93.7423 17.9563 93.7423 18.459ZM95.8564 20.895C95.8564 18.7103 96.5427 16.9027 97.9154 15.472C99.3074 14.0413 101.057 13.326 103.164 13.326C105.272 13.326 107.012 14.0413 108.384 15.472C109.776 16.9027 110.472 18.7103 110.472 20.895C110.472 23.099 109.776 24.9067 108.384 26.318C107.012 27.7487 105.272 28.464 103.164 28.464C101.057 28.464 99.3074 27.7487 97.9154 26.318C96.5427 24.8873 95.8564 23.0797 95.8564 20.895ZM98.5244 20.895C98.5244 22.4223 98.9691 23.6597 99.8584 24.607C100.748 25.5543 101.85 26.028 103.164 26.028C104.479 26.028 105.581 25.5543 106.47 24.607C107.36 23.6597 107.804 22.4223 107.804 20.895C107.804 19.387 107.36 18.1593 106.47 17.212C105.562 16.2453 104.46 15.762 103.164 15.762C101.869 15.762 100.767 16.2453 99.8584 17.212C98.9691 18.1593 98.5244 19.387 98.5244 20.895ZM112.374 20.895C112.374 18.7103 113.06 16.9027 114.433 15.472C115.825 14.0413 117.575 13.326 119.682 13.326C121.789 13.326 123.529 14.0413 124.902 15.472C126.294 16.9027 126.99 18.7103 126.99 20.895C126.99 23.099 126.294 24.9067 124.902 26.318C123.529 27.7487 121.789 28.464 119.682 28.464C117.575 28.464 115.825 27.7487 114.433 26.318C113.06 24.8873 112.374 23.0797 112.374 20.895ZM115.042 20.895C115.042 22.4223 115.487 23.6597 116.376 24.607C117.265 25.5543 118.367 26.028 119.682 26.028C120.997 26.028 122.099 25.5543 122.988 24.607C123.877 23.6597 124.322 22.4223 124.322 20.895C124.322 19.387 123.877 18.1593 122.988 17.212C122.079 16.2453 120.977 15.762 119.682 15.762C118.387 15.762 117.285 16.2453 116.376 17.212C115.487 18.1593 115.042 19.387 115.042 20.895ZM136.083 26.028C137.398 26.028 138.471 25.5543 139.302 24.607C140.172 23.6597 140.607 22.4223 140.607 20.895C140.607 19.4063 140.172 18.1787 139.302 17.212C138.452 16.2453 137.379 15.762 136.083 15.762C134.807 15.762 133.734 16.2453 132.864 17.212C131.994 18.1787 131.559 19.4063 131.559 20.895C131.559 22.403 131.994 23.6307 132.864 24.578C133.734 25.5447 134.807 26.028 136.083 26.028ZM135.996 34.728C135.204 34.728 134.459 34.6217 133.763 34.409C133.067 34.2157 132.429 33.9353 131.849 33.568C131.289 33.2007 130.805 32.7657 130.399 32.263C129.993 31.7603 129.684 31.1997 129.471 30.581L131.994 29.537C132.284 30.3683 132.787 31.0353 133.502 31.538C134.218 32.0407 135.049 32.292 135.996 32.292C137.446 32.292 138.577 31.857 139.389 30.987C140.201 30.117 140.607 28.9183 140.607 27.391V26.028H140.491C139.989 26.782 139.302 27.3813 138.432 27.826C137.582 28.2513 136.654 28.464 135.648 28.464C133.792 28.464 132.197 27.739 130.863 26.289C129.549 24.8003 128.891 23.0023 128.891 20.895C128.891 18.7877 129.549 16.9993 130.863 15.53C132.197 14.0607 133.792 13.326 135.648 13.326C136.654 13.326 137.582 13.5483 138.432 13.993C139.302 14.4183 139.989 15.008 140.491 15.762H140.607V13.79H143.159V27.391C143.159 29.6723 142.512 31.4607 141.216 32.756C139.902 34.0707 138.162 34.728 135.996 34.728ZM149.37 7.236V28H146.702V7.236H149.37ZM159.15 28.464C157.062 28.464 155.341 27.7487 153.988 26.318C152.634 24.8873 151.958 23.0797 151.958 20.895C151.958 18.7297 152.615 16.9317 153.93 15.501C155.244 14.051 156.926 13.326 158.976 13.326C161.083 13.326 162.755 14.0123 163.993 15.385C165.249 16.7383 165.878 18.6427 165.878 21.098L165.849 21.388H154.684C154.722 22.78 155.186 23.9013 156.076 24.752C156.965 25.6027 158.028 26.028 159.266 26.028C160.967 26.028 162.301 25.1773 163.268 23.476L165.646 24.636C165.008 25.8347 164.118 26.7723 162.978 27.449C161.856 28.1257 160.58 28.464 159.15 28.464ZM154.887 19.184H163.036C162.958 18.198 162.552 17.386 161.818 16.748C161.102 16.0907 160.136 15.762 158.918 15.762C157.912 15.762 157.042 16.0713 156.308 16.69C155.592 17.3087 155.119 18.14 154.887 19.184ZM175.734 28V7.236H182.085C185.255 7.236 187.798 8.193 189.712 10.107C191.645 12.021 192.612 14.5247 192.612 17.618C192.612 20.7307 191.645 23.244 189.712 25.158C187.798 27.0527 185.255 28 182.085 28H175.734ZM178.402 9.788V25.448H182.085C184.501 25.448 186.406 24.7617 187.798 23.389C189.19 21.997 189.886 20.0733 189.886 17.618C189.886 15.182 189.19 13.268 187.798 11.876C186.406 10.484 184.501 9.788 182.085 9.788H178.402ZM201.566 28.464C199.478 28.464 197.757 27.7487 196.404 26.318C195.05 24.8873 194.374 23.0797 194.374 20.895C194.374 18.7297 195.031 16.9317 196.346 15.501C197.66 14.051 199.342 13.326 201.392 13.326C203.499 13.326 205.171 14.0123 206.409 15.385C207.665 16.7383 208.294 18.6427 208.294 21.098L208.265 21.388H197.1C197.138 22.78 197.602 23.9013 198.492 24.752C199.381 25.6027 200.444 26.028 201.682 26.028C203.383 26.028 204.717 25.1773 205.684 23.476L208.062 24.636C207.424 25.8347 206.534 26.7723 205.394 27.449C204.272 28.1257 202.996 28.464 201.566 28.464ZM197.303 19.184H205.452C205.374 18.198 204.968 17.386 204.234 16.748C203.518 16.0907 202.552 15.762 201.334 15.762C200.328 15.762 199.458 16.0713 198.724 16.69C198.008 17.3087 197.535 18.14 197.303 19.184ZM217.642 28H214.974L209.232 13.79H212.132L216.308 24.81H216.366L220.6 13.79H223.442L217.642 28ZM231.429 28.464C229.341 28.464 227.62 27.7487 226.267 26.318C224.914 24.8873 224.237 23.0797 224.237 20.895C224.237 18.7297 224.894 16.9317 226.209 15.501C227.524 14.051 229.206 13.326 231.255 13.326C233.362 13.326 235.035 14.0123 236.272 15.385C237.529 16.7383 238.157 18.6427 238.157 21.098L238.128 21.388H226.963C227.002 22.78 227.466 23.9013 228.355 24.752C229.244 25.6027 230.308 26.028 231.545 26.028C233.246 26.028 234.58 25.1773 235.547 23.476L237.925 24.636C237.287 25.8347 236.398 26.7723 235.257 27.449C234.136 28.1257 232.86 28.464 231.429 28.464ZM227.166 19.184H235.315C235.238 18.198 234.832 17.386 234.097 16.748C233.382 16.0907 232.415 15.762 231.197 15.762C230.192 15.762 229.322 16.0713 228.587 16.69C227.872 17.3087 227.398 18.14 227.166 19.184ZM243.555 7.236V28H240.887V7.236H243.555ZM246.142 20.895C246.142 18.7103 246.828 16.9027 248.201 15.472C249.593 14.0413 251.343 13.326 253.45 13.326C255.557 13.326 257.297 14.0413 258.67 15.472C260.062 16.9027 260.758 18.7103 260.758 20.895C260.758 23.099 260.062 24.9067 258.67 26.318C257.297 27.7487 255.557 28.464 253.45 28.464C251.343 28.464 249.593 27.7487 248.201 26.318C246.828 24.8873 246.142 23.0797 246.142 20.895ZM248.81 20.895C248.81 22.4223 249.255 23.6597 250.144 24.607C251.033 25.5543 252.135 26.028 253.45 26.028C254.765 26.028 255.867 25.5543 256.756 24.607C257.645 23.6597 258.09 22.4223 258.09 20.895C258.09 19.387 257.645 18.1593 256.756 17.212C255.847 16.2453 254.745 15.762 253.45 15.762C252.155 15.762 251.053 16.2453 250.144 17.212C249.255 18.1593 248.81 19.387 248.81 20.895ZM270.29 26.028C271.566 26.028 272.639 25.5447 273.509 24.578C274.379 23.6307 274.814 22.403 274.814 20.895C274.814 19.4063 274.379 18.1787 273.509 17.212C272.639 16.2453 271.566 15.762 270.29 15.762C268.995 15.762 267.912 16.2453 267.042 17.212C266.191 18.1787 265.766 19.4063 265.766 20.895C265.766 22.403 266.191 23.6403 267.042 24.607C267.912 25.5543 268.995 26.028 270.29 26.028ZM270.725 28.464C269.681 28.464 268.724 28.2417 267.854 27.797C267.003 27.3523 266.346 26.7627 265.882 26.028H265.766L265.882 28V34.264H263.214V13.79H265.766V15.762H265.882C266.346 15.0273 267.003 14.4377 267.854 13.993C268.724 13.5483 269.681 13.326 270.725 13.326C272.6 13.326 274.186 14.0607 275.481 15.53C276.815 17.0187 277.482 18.807 277.482 20.895C277.482 23.0023 276.815 24.7907 275.481 26.26C274.186 27.7293 272.6 28.464 270.725 28.464ZM286.596 28.464C284.508 28.464 282.787 27.7487 281.434 26.318C280.08 24.8873 279.404 23.0797 279.404 20.895C279.404 18.7297 280.061 16.9317 281.376 15.501C282.69 14.051 284.372 13.326 286.422 13.326C288.529 13.326 290.201 14.0123 291.439 15.385C292.695 16.7383 293.324 18.6427 293.324 21.098L293.295 21.388H282.13C282.168 22.78 282.632 23.9013 283.522 24.752C284.411 25.6027 285.474 26.028 286.712 26.028C288.413 26.028 289.747 25.1773 290.714 23.476L293.092 24.636C292.454 25.8347 291.564 26.7723 290.424 27.449C289.302 28.1257 288.026 28.464 286.596 28.464ZM282.333 19.184H290.482C290.404 18.198 289.998 17.386 289.264 16.748C288.548 16.0907 287.582 15.762 286.364 15.762C285.358 15.762 284.488 16.0713 283.754 16.69C283.038 17.3087 282.565 18.14 282.333 19.184ZM298.722 28H296.054V13.79H298.606V16.11H298.722C298.992 15.356 299.543 14.718 300.375 14.196C301.225 13.6547 302.057 13.384 302.869 13.384C303.642 13.384 304.299 13.5 304.841 13.732L304.029 16.313C303.7 16.1777 303.178 16.11 302.463 16.11C301.457 16.11 300.578 16.516 299.824 17.328C299.089 18.14 298.722 19.0873 298.722 20.17V28ZM333.419 18.459C333.419 21.359 332.559 23.6693 330.838 25.39C328.905 27.4393 326.363 28.464 323.211 28.464C320.195 28.464 317.643 27.42 315.555 25.332C313.467 23.244 312.423 20.6727 312.423 17.618C312.423 14.5633 313.467 11.992 315.555 9.904C317.643 7.816 320.195 6.772 323.211 6.772C324.739 6.772 326.179 7.04267 327.532 7.584C328.886 8.12533 329.997 8.889 330.867 9.875L328.953 11.789C328.315 11.0157 327.484 10.4163 326.459 9.991C325.454 9.54633 324.371 9.324 323.211 9.324C320.949 9.324 319.035 10.107 317.469 11.673C315.923 13.2583 315.149 15.24 315.149 17.618C315.149 19.996 315.923 21.9777 317.469 23.563C319.035 25.129 320.949 25.912 323.211 25.912C325.28 25.912 327.001 25.332 328.373 24.172C329.746 23.012 330.539 21.417 330.751 19.387H323.211V16.893H333.274C333.371 17.4343 333.419 17.9563 333.419 18.459ZM338.589 28H335.921V13.79H338.473V16.11H338.589C338.859 15.356 339.41 14.718 340.242 14.196C341.092 13.6547 341.924 13.384 342.736 13.384C343.509 13.384 344.166 13.5 344.708 13.732L343.896 16.313C343.567 16.1777 343.045 16.11 342.33 16.11C341.324 16.11 340.445 16.516 339.691 17.328C338.956 18.14 338.589 19.0873 338.589 20.17V28ZM345.056 20.895C345.056 18.7103 345.742 16.9027 347.115 15.472C348.507 14.0413 350.257 13.326 352.364 13.326C354.471 13.326 356.211 14.0413 357.584 15.472C358.976 16.9027 359.672 18.7103 359.672 20.895C359.672 23.099 358.976 24.9067 357.584 26.318C356.211 27.7487 354.471 28.464 352.364 28.464C350.257 28.464 348.507 27.7487 347.115 26.318C345.742 24.8873 345.056 23.0797 345.056 20.895ZM347.724 20.895C347.724 22.4223 348.169 23.6597 349.058 24.607C349.947 25.5543 351.049 26.028 352.364 26.028C353.679 26.028 354.781 25.5543 355.67 24.607C356.559 23.6597 357.004 22.4223 357.004 20.895C357.004 19.387 356.559 18.1593 355.67 17.212C354.761 16.2453 353.659 15.762 352.364 15.762C351.069 15.762 349.967 16.2453 349.058 17.212C348.169 18.1593 347.724 19.387 347.724 20.895ZM374.714 28H372.162V26.028H372.046C371.64 26.724 371.011 27.304 370.161 27.768C369.329 28.232 368.459 28.464 367.551 28.464C365.811 28.464 364.467 27.971 363.52 26.985C362.592 25.9797 362.128 24.5587 362.128 22.722V13.79H364.796V22.548C364.854 24.868 366.023 26.028 368.305 26.028C369.368 26.028 370.257 25.6027 370.973 24.752C371.688 23.882 372.046 22.8477 372.046 21.649V13.79H374.714V28ZM385.212 26.028C386.488 26.028 387.561 25.5447 388.431 24.578C389.301 23.6307 389.736 22.403 389.736 20.895C389.736 19.4063 389.301 18.1787 388.431 17.212C387.561 16.2453 386.488 15.762 385.212 15.762C383.916 15.762 382.834 16.2453 381.964 17.212C381.113 18.1787 380.688 19.4063 380.688 20.895C380.688 22.403 381.113 23.6403 381.964 24.607C382.834 25.5543 383.916 26.028 385.212 26.028ZM385.647 28.464C384.603 28.464 383.646 28.2417 382.776 27.797C381.925 27.3523 381.268 26.7627 380.804 26.028H380.688L380.804 28V34.264H378.136V13.79H380.688V15.762H380.804C381.268 15.0273 381.925 14.4377 382.776 13.993C383.646 13.5483 384.603 13.326 385.647 13.326C387.522 13.326 389.107 14.0607 390.403 15.53C391.737 17.0187 392.404 18.807 392.404 20.895C392.404 23.0023 391.737 24.7907 390.403 26.26C389.107 27.7293 387.522 28.464 385.647 28.464ZM405.871 24.056C405.871 25.2933 405.329 26.3373 404.247 27.188C403.164 28.0387 401.801 28.464 400.158 28.464C398.727 28.464 397.47 28.0967 396.388 27.362C395.305 26.608 394.532 25.622 394.068 24.404L396.446 23.389C396.794 24.2397 397.296 24.9067 397.954 25.39C398.63 25.854 399.365 26.086 400.158 26.086C401.008 26.086 401.714 25.9023 402.275 25.535C402.855 25.1677 403.145 24.7327 403.145 24.23C403.145 23.3213 402.449 22.6543 401.057 22.229L398.621 21.62C395.856 20.924 394.474 19.59 394.474 17.618C394.474 16.3227 394.996 15.2883 396.04 14.515C397.103 13.7223 398.456 13.326 400.1 13.326C401.356 13.326 402.487 13.6257 403.493 14.225C404.517 14.8243 405.233 15.6267 405.639 16.632L403.261 17.618C402.99 17.0187 402.545 16.5547 401.927 16.226C401.327 15.878 400.651 15.704 399.897 15.704C399.201 15.704 398.572 15.878 398.012 16.226C397.47 16.574 397.2 16.9993 397.2 17.502C397.2 18.314 397.963 18.894 399.491 19.242L401.637 19.793C404.459 20.489 405.871 21.91 405.871 24.056Z" fill="#010B17"/>
<path d="M83.1253 62.948C80.1573 62.948 77.6747 61.9493 75.6773 59.952C73.6987 57.9547 72.7093 55.4627 72.7093 52.476C72.7093 49.4893 73.6987 47.0067 75.6773 45.028C77.656 43.012 80.1387 42.004 83.1253 42.004C86.1493 42.004 88.604 43.096 90.4893 45.28L88.6413 47.072C87.204 45.336 85.3653 44.468 83.1253 44.468C80.904 44.468 79.0467 45.2147 77.5533 46.708C76.0787 48.1827 75.3413 50.1053 75.3413 52.476C75.3413 54.8467 76.0787 56.7693 77.5533 58.244C79.0467 59.7373 80.904 60.484 83.1253 60.484C85.4587 60.484 87.484 59.504 89.2013 57.544L91.0773 59.364C90.1253 60.5027 88.9587 61.3893 87.5773 62.024C86.196 62.64 84.712 62.948 83.1253 62.948ZM96.2223 42.452V62.5H93.6463V42.452H96.2223ZM98.7205 55.64C98.7205 53.5307 99.3831 51.7853 100.708 50.404C102.052 49.0227 103.742 48.332 105.776 48.332C107.811 48.332 109.491 49.0227 110.816 50.404C112.16 51.7853 112.832 53.5307 112.832 55.64C112.832 57.768 112.16 59.5133 110.816 60.876C109.491 62.2573 107.811 62.948 105.776 62.948C103.742 62.948 102.052 62.2573 100.708 60.876C99.3831 59.4947 98.7205 57.7493 98.7205 55.64ZM101.296 55.64C101.296 57.1147 101.726 58.3093 102.584 59.224C103.443 60.1387 104.507 60.596 105.776 60.596C107.046 60.596 108.11 60.1387 108.968 59.224C109.827 58.3093 110.256 57.1147 110.256 55.64C110.256 54.184 109.827 52.9987 108.968 52.084C108.091 51.1507 107.027 50.684 105.776 50.684C104.526 50.684 103.462 51.1507 102.584 52.084C101.726 52.9987 101.296 54.184 101.296 55.64ZM127.356 62.5H124.892V60.596H124.78C124.388 61.268 123.781 61.828 122.96 62.276C122.157 62.724 121.317 62.948 120.44 62.948C118.76 62.948 117.462 62.472 116.548 61.52C115.652 60.5493 115.204 59.1773 115.204 57.404V48.78H117.78V57.236C117.836 59.476 118.965 60.596 121.168 60.596C122.194 60.596 123.053 60.1853 123.744 59.364C124.434 58.524 124.78 57.5253 124.78 56.368V48.78H127.356V62.5ZM136.795 60.596C138.064 60.596 139.1 60.1387 139.903 59.224C140.743 58.3093 141.163 57.1147 141.163 55.64C141.163 54.2027 140.743 53.0173 139.903 52.084C139.081 51.1507 138.045 50.684 136.795 50.684C135.563 50.684 134.527 51.1507 133.687 52.084C132.847 53.0173 132.427 54.2027 132.427 55.64C132.427 57.096 132.847 58.2813 133.687 59.196C134.527 60.1293 135.563 60.596 136.795 60.596ZM136.375 62.948C134.583 62.948 133.043 62.2387 131.755 60.82C130.485 59.3827 129.851 57.656 129.851 55.64C129.851 53.624 130.485 51.8973 131.755 50.46C133.043 49.0413 134.583 48.332 136.375 48.332C137.383 48.332 138.297 48.5467 139.119 48.976C139.959 49.4053 140.603 49.9747 141.051 50.684H141.163L141.051 48.78V42.452H143.627V62.5H141.163V60.596H141.051C140.603 61.3053 139.959 61.8747 139.119 62.304C138.297 62.7333 137.383 62.948 136.375 62.948Z" fill="#4285F4"/>
<circle cx="155.173" cy="52.5" r="3.5" fill="#010B17"/>
<path d="M186.742 53.459C186.742 56.359 185.882 58.6693 184.161 60.39C182.228 62.4393 179.686 63.464 176.534 63.464C173.518 63.464 170.966 62.42 168.878 60.332C166.79 58.244 165.746 55.6727 165.746 52.618C165.746 49.5633 166.79 46.992 168.878 44.904C170.966 42.816 173.518 41.772 176.534 41.772C178.062 41.772 179.502 42.0427 180.855 42.584C182.209 43.1253 183.32 43.889 184.19 44.875L182.276 46.789C181.638 46.0157 180.807 45.4163 179.782 44.991C178.777 44.5463 177.694 44.324 176.534 44.324C174.272 44.324 172.358 45.107 170.792 46.673C169.246 48.2583 168.472 50.24 168.472 52.618C168.472 54.996 169.246 56.9777 170.792 58.563C172.358 60.129 174.272 60.912 176.534 60.912C178.603 60.912 180.324 60.332 181.696 59.172C183.069 58.012 183.862 56.417 184.074 54.387H176.534V51.893H186.597C186.694 52.4343 186.742 52.9563 186.742 53.459ZM191.328 58.65C191.328 59.346 191.618 59.926 192.198 60.39C192.798 60.854 193.494 61.086 194.286 61.086C195.408 61.086 196.403 60.6703 197.273 59.839C198.163 59.0077 198.607 58.0313 198.607 56.91C197.776 56.2527 196.616 55.924 195.127 55.924C194.045 55.924 193.136 56.185 192.401 56.707C191.686 57.229 191.328 57.8767 191.328 58.65ZM194.779 48.326C196.751 48.326 198.308 48.8577 199.448 49.921C200.589 50.965 201.159 52.4053 201.159 54.242V63H198.607V61.028H198.491C197.389 62.652 195.92 63.464 194.083 63.464C192.517 63.464 191.203 63 190.139 62.072C189.095 61.144 188.573 59.984 188.573 58.592C188.573 57.1227 189.124 55.953 190.226 55.083C191.348 54.213 192.836 53.778 194.692 53.778C196.278 53.778 197.583 54.068 198.607 54.648V54.039C198.607 53.111 198.24 52.328 197.505 51.69C196.771 51.0327 195.91 50.704 194.924 50.704C193.436 50.704 192.256 51.3323 191.386 52.589L189.037 51.11C190.333 49.254 192.247 48.326 194.779 48.326ZM204.458 48.79H207.01V50.762H207.126C207.532 50.066 208.151 49.486 208.982 49.022C209.833 48.558 210.713 48.326 211.621 48.326C213.361 48.326 214.695 48.8287 215.623 49.834C216.571 50.82 217.044 52.2313 217.044 54.068V63H214.376V54.242C214.318 51.922 213.149 50.762 210.867 50.762C209.804 50.762 208.915 51.197 208.199 52.067C207.484 52.9177 207.126 53.9423 207.126 55.141V63H204.458V48.79ZM226.846 61.028C228.161 61.028 229.234 60.5543 230.065 59.607C230.935 58.6597 231.37 57.4223 231.37 55.895C231.37 54.4063 230.935 53.1787 230.065 52.212C229.215 51.2453 228.142 50.762 226.846 50.762C225.57 50.762 224.497 51.2453 223.627 52.212C222.757 53.1787 222.322 54.4063 222.322 55.895C222.322 57.403 222.757 58.6307 223.627 59.578C224.497 60.5447 225.57 61.028 226.846 61.028ZM226.411 63.464C224.555 63.464 222.96 62.7293 221.626 61.26C220.312 59.7713 219.654 57.983 219.654 55.895C219.654 53.807 220.312 52.0187 221.626 50.53C222.96 49.0607 224.555 48.326 226.411 48.326C227.455 48.326 228.403 48.5483 229.253 48.993C230.123 49.4377 230.79 50.0273 231.254 50.762H231.37L231.254 48.79V42.236H233.922V63H231.37V61.028H231.254C230.79 61.7627 230.123 62.3523 229.253 62.797C228.403 63.2417 227.455 63.464 226.411 63.464ZM237.465 42.236H240.133V48.79L240.017 50.762H240.133C240.539 50.066 241.158 49.486 241.989 49.022C242.84 48.558 243.719 48.326 244.628 48.326C246.368 48.326 247.702 48.8287 248.63 49.834C249.577 50.82 250.051 52.2313 250.051 54.068V63H247.383V54.59C247.383 52.038 246.252 50.762 243.99 50.762C242.907 50.762 241.989 51.2163 241.235 52.125C240.5 53.0143 240.133 54.0583 240.133 55.257V63H237.465V42.236ZM256.924 43.889C256.924 44.411 256.74 44.8557 256.373 45.223C256.006 45.5903 255.561 45.774 255.039 45.774C254.517 45.774 254.072 45.5903 253.705 45.223C253.338 44.8557 253.154 44.411 253.154 43.889C253.154 43.367 253.338 42.9223 253.705 42.555C254.072 42.1877 254.517 42.004 255.039 42.004C255.561 42.004 256.006 42.1877 256.373 42.555C256.74 42.9223 256.924 43.367 256.924 43.889ZM256.373 48.79V63H253.705V48.79H256.373ZM260.135 48.79H262.687V50.762H262.803C263.209 50.066 263.828 49.486 264.659 49.022C265.51 48.558 266.389 48.326 267.298 48.326C269.038 48.326 270.372 48.8287 271.3 49.834C272.247 50.82 272.721 52.2313 272.721 54.068V63H270.053V54.242C269.995 51.922 268.825 50.762 266.544 50.762C265.481 50.762 264.591 51.197 263.876 52.067C263.161 52.9177 262.803 53.9423 262.803 55.141V63H260.135V48.79ZM277.944 58.65C277.944 59.346 278.234 59.926 278.814 60.39C279.414 60.854 280.11 61.086 280.902 61.086C282.024 61.086 283.019 60.6703 283.889 59.839C284.779 59.0077 285.223 58.0313 285.223 56.91C284.392 56.2527 283.232 55.924 281.743 55.924C280.661 55.924 279.752 56.185 279.017 56.707C278.302 57.229 277.944 57.8767 277.944 58.65ZM281.395 48.326C283.367 48.326 284.924 48.8577 286.064 49.921C287.205 50.965 287.775 52.4053 287.775 54.242V63H285.223V61.028H285.107C284.005 62.652 282.536 63.464 280.699 63.464C279.133 63.464 277.819 63 276.755 62.072C275.711 61.144 275.189 59.984 275.189 58.592C275.189 57.1227 275.74 55.953 276.842 55.083C277.964 54.213 279.452 53.778 281.308 53.778C282.894 53.778 284.199 54.068 285.223 54.648V54.039C285.223 53.111 284.856 52.328 284.121 51.69C283.387 51.0327 282.526 50.704 281.54 50.704C280.052 50.704 278.872 51.3323 278.002 52.589L275.653 51.11C276.949 49.254 278.863 48.326 281.395 48.326ZM297.313 61.028C298.627 61.028 299.7 60.5543 300.532 59.607C301.402 58.6597 301.837 57.4223 301.837 55.895C301.837 54.4063 301.402 53.1787 300.532 52.212C299.681 51.2453 298.608 50.762 297.313 50.762C296.037 50.762 294.964 51.2453 294.094 52.212C293.224 53.1787 292.789 54.4063 292.789 55.895C292.789 57.403 293.224 58.6307 294.094 59.578C294.964 60.5447 296.037 61.028 297.313 61.028ZM297.226 69.728C296.433 69.728 295.689 69.6217 294.993 69.409C294.297 69.2157 293.659 68.9353 293.079 68.568C292.518 68.2007 292.035 67.7657 291.629 67.263C291.223 66.7603 290.913 66.1997 290.701 65.581L293.224 64.537C293.514 65.3683 294.016 66.0353 294.732 66.538C295.447 67.0407 296.278 67.292 297.226 67.292C298.676 67.292 299.807 66.857 300.619 65.987C301.431 65.117 301.837 63.9183 301.837 62.391V61.028H301.721C301.218 61.782 300.532 62.3813 299.662 62.826C298.811 63.2513 297.883 63.464 296.878 63.464C295.022 63.464 293.427 62.739 292.093 61.289C290.778 59.8003 290.121 58.0023 290.121 55.895C290.121 53.7877 290.778 51.9993 292.093 50.53C293.427 49.0607 295.022 48.326 296.878 48.326C297.883 48.326 298.811 48.5483 299.662 48.993C300.532 49.4183 301.218 50.008 301.721 50.762H301.837V48.79H304.389V62.391C304.389 64.6723 303.741 66.4607 302.446 67.756C301.131 69.0707 299.391 69.728 297.226 69.728ZM309.733 58.65C309.733 59.346 310.023 59.926 310.603 60.39C311.202 60.854 311.898 61.086 312.691 61.086C313.812 61.086 314.808 60.6703 315.678 59.839C316.567 59.0077 317.012 58.0313 317.012 56.91C316.181 56.2527 315.021 55.924 313.532 55.924C312.449 55.924 311.541 56.185 310.806 56.707C310.091 57.229 309.733 57.8767 309.733 58.65ZM313.184 48.326C315.156 48.326 316.712 48.8577 317.853 49.921C318.994 50.965 319.564 52.4053 319.564 54.242V63H317.012V61.028H316.896C315.794 62.652 314.325 63.464 312.488 63.464C310.922 63.464 309.607 63 308.544 62.072C307.5 61.144 306.978 59.984 306.978 58.592C306.978 57.1227 307.529 55.953 308.631 55.083C309.752 54.213 311.241 53.778 313.097 53.778C314.682 53.778 315.987 54.068 317.012 54.648V54.039C317.012 53.111 316.645 52.328 315.91 51.69C315.175 51.0327 314.315 50.704 313.329 50.704C311.84 50.704 310.661 51.3323 309.791 52.589L307.442 51.11C308.737 49.254 310.651 48.326 313.184 48.326ZM325.531 63H322.863V48.79H325.415V51.11H325.531C325.802 50.356 326.353 49.718 327.184 49.196C328.035 48.6547 328.866 48.384 329.678 48.384C330.452 48.384 331.109 48.5 331.65 48.732L330.838 51.313C330.51 51.1777 329.988 51.11 329.272 51.11C328.267 51.11 327.387 51.516 326.633 52.328C325.899 53.14 325.531 54.0873 325.531 55.17V63Z" fill="#010B17"/>
</svg>
