<svg width="898" height="102" viewBox="0 0 898 102" fill="none" xmlns="http://www.w3.org/2000/svg">
<path d="M0.9 35.5L10.1 0.499998H21.6L30.8 35.5H24L22.1 27.8H9.6L7.7 35.5H0.9ZM11.15 21.7H20.55L16.3 4.65H15.4L11.15 21.7ZM57.2988 36.2C55.3322 36.2 53.4822 35.7167 51.7488 34.75C50.0488 33.75 48.6822 32.3 47.6488 30.4C46.6155 28.5 46.0988 26.2 46.0988 23.5V22.7C46.0988 20 46.6155 17.7 47.6488 15.8C48.6822 13.9 50.0488 12.4667 51.7488 11.5C53.4488 10.5 55.2988 10 57.2988 10C58.7988 10 60.0488 10.1833 61.0488 10.55C62.0822 10.8833 62.9155 11.3167 63.5488 11.85C64.1822 12.3833 64.6655 12.95 64.9988 13.55H65.8988V0.499998H72.1988V35.5H65.9988V32.5H65.0988C64.5322 33.4333 63.6488 34.2833 62.4488 35.05C61.2822 35.8167 59.5655 36.2 57.2988 36.2ZM59.1988 30.7C61.1322 30.7 62.7488 30.0833 64.0488 28.85C65.3488 27.5833 65.9988 25.75 65.9988 23.35V22.85C65.9988 20.45 65.3488 18.6333 64.0488 17.4C62.7822 16.1333 61.1655 15.5 59.1988 15.5C57.2655 15.5 55.6488 16.1333 54.3488 17.4C53.0488 18.6333 52.3988 20.45 52.3988 22.85V23.35C52.3988 25.75 53.0488 27.5833 54.3488 28.85C55.6488 30.0833 57.2655 30.7 59.1988 30.7ZM86.8836 36.2C85.1169 36.2 83.5336 35.9 82.1336 35.3C80.7336 34.6667 79.6169 33.7667 78.7836 32.6C77.9836 31.4 77.5836 29.95 77.5836 28.25C77.5836 26.55 77.9836 25.1333 78.7836 24C79.6169 22.8333 80.7503 21.9667 82.1836 21.4C83.6503 20.8 85.3169 20.5 87.1836 20.5H93.9836V19.1C93.9836 17.9333 93.6169 16.9833 92.8836 16.25C92.1503 15.4833 90.9836 15.1 89.3836 15.1C87.8169 15.1 86.6503 15.4667 85.8836 16.2C85.1169 16.9 84.6169 17.8167 84.3836 18.95L78.5836 17C78.9836 15.7333 79.6169 14.5833 80.4836 13.55C81.3836 12.4833 82.5669 11.6333 84.0336 11C85.5336 10.3333 87.3503 10 89.4836 10C92.7503 10 95.3336 10.8167 97.2336 12.45C99.1336 14.0833 100.084 16.45 100.084 19.55V28.8C100.084 29.8 100.55 30.3 101.484 30.3H103.484V35.5H99.2836C98.0503 35.5 97.0336 35.2 96.2336 34.6C95.4336 34 95.0336 33.2 95.0336 32.2V32.15H94.0836C93.9503 32.55 93.6503 33.0833 93.1836 33.75C92.7169 34.3833 91.9836 34.95 90.9836 35.45C89.9836 35.95 88.6169 36.2 86.8836 36.2ZM87.9836 31.1C89.7503 31.1 91.1836 30.6167 92.2836 29.65C93.4169 28.65 93.9836 27.3333 93.9836 25.7V25.2H87.6336C86.4669 25.2 85.5503 25.45 84.8836 25.95C84.2169 26.45 83.8836 27.15 83.8836 28.05C83.8836 28.95 84.2336 29.6833 84.9336 30.25C85.6336 30.8167 86.6503 31.1 87.9836 31.1ZM110.106 45.5V40H123.606C124.54 40 125.006 39.5 125.006 38.5V32.25H124.106C123.84 32.8167 123.423 33.3833 122.856 33.95C122.29 34.5167 121.523 34.9833 120.556 35.35C119.59 35.7167 118.356 35.9 116.856 35.9C114.923 35.9 113.223 35.4667 111.756 34.6C110.323 33.7 109.206 32.4667 108.406 30.9C107.606 29.3333 107.206 27.5333 107.206 25.5V10.7H113.506V25C113.506 26.8667 113.956 28.2667 114.856 29.2C115.79 30.1333 117.106 30.6 118.806 30.6C120.74 30.6 122.24 29.9667 123.306 28.7C124.373 27.4 124.906 25.6 124.906 23.3V10.7H131.206V39.9C131.206 41.6 130.706 42.95 129.706 43.95C128.706 44.9833 127.373 45.5 125.706 45.5H110.106ZM162.712 36.2C160.245 36.2 158.029 35.7 156.062 34.7C154.095 33.7 152.545 32.25 151.412 30.35C150.279 28.45 149.712 26.1667 149.712 23.5V22.7C149.712 20.0333 150.279 17.75 151.412 15.85C152.545 13.95 154.095 12.5 156.062 11.5C158.029 10.5 160.245 10 162.712 10C165.179 10 167.395 10.5 169.362 11.5C171.329 12.5 172.879 13.95 174.012 15.85C175.145 17.75 175.712 20.0333 175.712 22.7V23.5C175.712 26.1667 175.145 28.45 174.012 30.35C172.879 32.25 171.329 33.7 169.362 34.7C167.395 35.7 165.179 36.2 162.712 36.2ZM162.712 30.6C164.645 30.6 166.245 29.9833 167.512 28.75C168.779 27.4833 169.412 25.6833 169.412 23.35V22.85C169.412 20.5167 168.779 18.7333 167.512 17.5C166.279 16.2333 164.679 15.6 162.712 15.6C160.779 15.6 159.179 16.2333 157.912 17.5C156.645 18.7333 156.012 20.5167 156.012 22.85V23.35C156.012 25.6833 156.645 27.4833 157.912 28.75C159.179 29.9833 160.779 30.6 162.712 30.6ZM184.797 35.5V15.9H178.497V10.7H184.797V6.1C184.797 4.4 185.297 3.05 186.297 2.05C187.331 1.01666 188.664 0.499998 190.297 0.499998H196.797V5.7H192.497C191.564 5.7 191.097 6.2 191.097 7.2V10.7H197.597V15.9H191.097V35.5H184.797ZM226.82 36.2C224.42 36.2 222.237 35.7 220.27 34.7C218.337 33.7 216.803 32.25 215.67 30.35C214.537 28.45 213.97 26.15 213.97 23.45V22.75C213.97 20.05 214.537 17.75 215.67 15.85C216.803 13.95 218.337 12.5 220.27 11.5C222.237 10.5 224.42 10 226.82 10C229.187 10 231.22 10.4167 232.92 11.25C234.62 12.0833 235.987 13.2333 237.02 14.7C238.087 16.1333 238.787 17.7667 239.12 19.6L233.02 20.9C232.887 19.9 232.587 19 232.12 18.2C231.653 17.4 230.987 16.7667 230.12 16.3C229.287 15.8333 228.237 15.6 226.97 15.6C225.703 15.6 224.553 15.8833 223.52 16.45C222.52 16.9833 221.72 17.8 221.12 18.9C220.553 19.9667 220.27 21.2833 220.27 22.85V23.35C220.27 24.9167 220.553 26.25 221.12 27.35C221.72 28.4167 222.52 29.2333 223.52 29.8C224.553 30.3333 225.703 30.6 226.97 30.6C228.87 30.6 230.303 30.1167 231.27 29.15C232.27 28.15 232.903 26.85 233.17 25.25L239.27 26.7C238.837 28.4667 238.087 30.0833 237.02 31.55C235.987 32.9833 234.62 34.1167 232.92 34.95C231.22 35.7833 229.187 36.2 226.82 36.2ZM244.467 35.5V0.499998H250.767V35.5H244.467ZM269.548 36.2C267.081 36.2 264.865 35.7 262.898 34.7C260.931 33.7 259.381 32.25 258.248 30.35C257.115 28.45 256.548 26.1667 256.548 23.5V22.7C256.548 20.0333 257.115 17.75 258.248 15.85C259.381 13.95 260.931 12.5 262.898 11.5C264.865 10.5 267.081 10 269.548 10C272.015 10 274.231 10.5 276.198 11.5C278.165 12.5 279.715 13.95 280.848 15.85C281.981 17.75 282.548 20.0333 282.548 22.7V23.5C282.548 26.1667 281.981 28.45 280.848 30.35C279.715 32.25 278.165 33.7 276.198 34.7C274.231 35.7 272.015 36.2 269.548 36.2ZM269.548 30.6C271.481 30.6 273.081 29.9833 274.348 28.75C275.615 27.4833 276.248 25.6833 276.248 23.35V22.85C276.248 20.5167 275.615 18.7333 274.348 17.5C273.115 16.2333 271.515 15.6 269.548 15.6C267.615 15.6 266.015 16.2333 264.748 17.5C263.481 18.7333 262.848 20.5167 262.848 22.85V23.35C262.848 25.6833 263.481 27.4833 264.748 28.75C266.015 29.9833 267.615 30.6 269.548 30.6ZM297.813 35.9C295.88 35.9 294.18 35.4667 292.713 34.6C291.28 33.7 290.163 32.4667 289.363 30.9C288.563 29.3333 288.163 27.5333 288.163 25.5V10.7H294.463V25C294.463 26.8667 294.913 28.2667 295.813 29.2C296.747 30.1333 298.063 30.6 299.763 30.6C301.697 30.6 303.197 29.9667 304.263 28.7C305.33 27.4 305.863 25.6 305.863 23.3V10.7H312.163V35.5H305.963V32.25H305.063C304.663 33.0833 303.913 33.9 302.813 34.7C301.713 35.5 300.047 35.9 297.813 35.9ZM329.174 36.2C327.207 36.2 325.357 35.7167 323.624 34.75C321.924 33.75 320.557 32.3 319.524 30.4C318.49 28.5 317.974 26.2 317.974 23.5V22.7C317.974 20 318.49 17.7 319.524 15.8C320.557 13.9 321.924 12.4667 323.624 11.5C325.324 10.5 327.174 10 329.174 10C330.674 10 331.924 10.1833 332.924 10.55C333.957 10.8833 334.79 11.3167 335.424 11.85C336.057 12.3833 336.54 12.95 336.874 13.55H337.774V0.499998H344.074V35.5H337.874V32.5H336.974C336.407 33.4333 335.524 34.2833 334.324 35.05C333.157 35.8167 331.44 36.2 329.174 36.2ZM331.074 30.7C333.007 30.7 334.624 30.0833 335.924 28.85C337.224 27.5833 337.874 25.75 337.874 23.35V22.85C337.874 20.45 337.224 18.6333 335.924 17.4C334.657 16.1333 333.04 15.5 331.074 15.5C329.14 15.5 327.524 16.1333 326.224 17.4C324.924 18.6333 324.274 20.45 324.274 22.85V23.35C324.274 25.75 324.924 27.5833 326.224 28.85C327.524 30.0833 329.14 30.7 331.074 30.7ZM260.151 98.85V95.45H262.101C263.635 95.45 264.401 94.6833 264.401 93.15V91.55H263.551C262.218 91.55 261.101 91.15 260.201 90.35C259.335 89.55 258.901 88.5333 258.901 87.3C258.901 85.9667 259.335 84.8833 260.201 84.05C261.101 83.2167 262.218 82.8 263.551 82.8C264.918 82.8 266.035 83.2333 266.901 84.1C267.768 84.9333 268.201 86.0667 268.201 87.5V93.25C268.201 96.9833 266.335 98.85 262.601 98.85H260.151ZM483.686 98.85V95.45H485.636C487.17 95.45 487.936 94.6833 487.936 93.15V91.55H487.086C485.753 91.55 484.636 91.15 483.736 90.35C482.87 89.55 482.436 88.5333 482.436 87.3C482.436 85.9667 482.87 84.8833 483.736 84.05C484.636 83.2167 485.753 82.8 487.086 82.8C488.453 82.8 489.57 83.2333 490.436 84.1C491.303 84.9333 491.736 86.0667 491.736 87.5V93.25C491.736 96.9833 489.87 98.85 486.136 98.85H483.686ZM516.815 92.2C515.049 92.2 513.465 91.9 512.065 91.3C510.665 90.6667 509.549 89.7667 508.715 88.6C507.915 87.4 507.515 85.95 507.515 84.25C507.515 82.55 507.915 81.1333 508.715 80C509.549 78.8333 510.682 77.9667 512.115 77.4C513.582 76.8 515.249 76.5 517.115 76.5H523.915V75.1C523.915 73.9333 523.549 72.9833 522.815 72.25C522.082 71.4833 520.915 71.1 519.315 71.1C517.749 71.1 516.582 71.4667 515.815 72.2C515.049 72.9 514.549 73.8167 514.315 74.95L508.515 73C508.915 71.7333 509.549 70.5833 510.415 69.55C511.315 68.4833 512.499 67.6333 513.965 67C515.465 66.3333 517.282 66 519.415 66C522.682 66 525.265 66.8167 527.165 68.45C529.065 70.0833 530.015 72.45 530.015 75.55V84.8C530.015 85.8 530.482 86.3 531.415 86.3H533.415V91.5H529.215C527.982 91.5 526.965 91.2 526.165 90.6C525.365 90 524.965 89.2 524.965 88.2V88.15H524.015C523.882 88.55 523.582 89.0833 523.115 89.75C522.649 90.3833 521.915 90.95 520.915 91.45C519.915 91.95 518.549 92.2 516.815 92.2ZM517.915 87.1C519.682 87.1 521.115 86.6167 522.215 85.65C523.349 84.65 523.915 83.3333 523.915 81.7V81.2H517.565C516.399 81.2 515.482 81.45 514.815 81.95C514.149 82.45 513.815 83.15 513.815 84.05C513.815 84.95 514.165 85.6833 514.865 86.25C515.565 86.8167 516.582 87.1 517.915 87.1ZM538.021 91.5V66.7H544.221V69.95H545.121C545.521 69.0833 546.271 68.2667 547.371 67.5C548.471 66.7 550.138 66.3 552.371 66.3C554.305 66.3 555.988 66.75 557.421 67.65C558.888 68.5167 560.021 69.7333 560.821 71.3C561.621 72.8333 562.021 74.6333 562.021 76.7V91.5H555.721V77.2C555.721 75.3333 555.255 73.9333 554.321 73C553.421 72.0667 552.121 71.6 550.421 71.6C548.488 71.6 546.988 72.25 545.921 73.55C544.855 74.8167 544.321 76.6 544.321 78.9V91.5H538.021ZM578.832 92.2C576.865 92.2 575.015 91.7167 573.282 90.75C571.582 89.75 570.215 88.3 569.182 86.4C568.149 84.5 567.632 82.2 567.632 79.5V78.7C567.632 76 568.149 73.7 569.182 71.8C570.215 69.9 571.582 68.4667 573.282 67.5C574.982 66.5 576.832 66 578.832 66C580.332 66 581.582 66.1833 582.582 66.55C583.615 66.8833 584.449 67.3167 585.082 67.85C585.715 68.3833 586.199 68.95 586.532 69.55H587.432V56.5H593.732V91.5H587.532V88.5H586.632C586.065 89.4333 585.182 90.2833 583.982 91.05C582.815 91.8167 581.099 92.2 578.832 92.2ZM580.732 86.7C582.665 86.7 584.282 86.0833 585.582 84.85C586.882 83.5833 587.532 81.75 587.532 79.35V78.85C587.532 76.45 586.882 74.6333 585.582 73.4C584.315 72.1333 582.699 71.5 580.732 71.5C578.799 71.5 577.182 72.1333 575.882 73.4C574.582 74.6333 573.932 76.45 573.932 78.85V79.35C573.932 81.75 574.582 83.5833 575.882 84.85C577.182 86.0833 578.799 86.7 580.732 86.7ZM892.753 92.2C891.419 92.2 890.286 91.7667 889.353 90.9C888.453 90 888.003 88.85 888.003 87.45C888.003 86.05 888.453 84.9167 889.353 84.05C890.286 83.15 891.419 82.7 892.753 82.7C894.119 82.7 895.253 83.15 896.153 84.05C897.053 84.9167 897.503 86.05 897.503 87.45C897.503 88.85 897.053 90 896.153 90.9C895.253 91.7667 894.119 92.2 892.753 92.2Z" fill="black"/>
<path d="M3.5 91.5V66.7H9.8V91.5H3.5ZM6.65 63.8C5.51667 63.8 4.55 63.4333 3.75 62.7C2.98333 61.9667 2.6 61 2.6 59.8C2.6 58.6 2.98333 57.6333 3.75 56.9C4.55 56.1667 5.51667 55.8 6.65 55.8C7.81667 55.8 8.78333 56.1667 9.55 56.9C10.3167 57.6333 10.7 58.6 10.7 59.8C10.7 61 10.3167 61.9667 9.55 62.7C8.78333 63.4333 7.81667 63.8 6.65 63.8ZM16.7813 91.5V66.7H22.9813V69.95H23.8813C24.2813 69.0833 25.0313 68.2667 26.1312 67.5C27.2313 66.7 28.8979 66.3 31.1313 66.3C33.0646 66.3 34.7479 66.75 36.1813 67.65C37.6479 68.5167 38.7813 69.7333 39.5813 71.3C40.3813 72.8333 40.7813 74.6333 40.7813 76.7V91.5H34.4813V77.2C34.4813 75.3333 34.0146 73.9333 33.0813 73C32.1813 72.0667 30.8813 71.6 29.1813 71.6C27.2479 71.6 25.7479 72.25 24.6813 73.55C23.6146 74.8167 23.0813 76.6 23.0813 78.9V91.5H16.7813ZM47.5918 91.5V66.7H53.7918V69.95H54.6918C55.0918 69.0833 55.8418 68.2667 56.9418 67.5C58.0418 66.7 59.7085 66.3 61.9418 66.3C63.8751 66.3 65.5585 66.75 66.9918 67.65C68.4585 68.5167 69.5918 69.7333 70.3918 71.3C71.1918 72.8333 71.5918 74.6333 71.5918 76.7V91.5H65.2918V77.2C65.2918 75.3333 64.8251 73.9333 63.8918 73C62.9918 72.0667 61.6918 71.6 59.9918 71.6C58.0585 71.6 56.5585 72.25 55.4918 73.55C54.4251 74.8167 53.8918 76.6 53.8918 78.9V91.5H47.5918ZM90.2023 92.2C87.7357 92.2 85.519 91.7 83.5523 90.7C81.5857 89.7 80.0357 88.25 78.9023 86.35C77.769 84.45 77.2023 82.1667 77.2023 79.5V78.7C77.2023 76.0333 77.769 73.75 78.9023 71.85C80.0357 69.95 81.5857 68.5 83.5523 67.5C85.519 66.5 87.7357 66 90.2023 66C92.669 66 94.8857 66.5 96.8523 67.5C98.819 68.5 100.369 69.95 101.502 71.85C102.636 73.75 103.202 76.0333 103.202 78.7V79.5C103.202 82.1667 102.636 84.45 101.502 86.35C100.369 88.25 98.819 89.7 96.8523 90.7C94.8857 91.7 92.669 92.2 90.2023 92.2ZM90.2023 86.6C92.1357 86.6 93.7357 85.9833 95.0023 84.75C96.269 83.4833 96.9023 81.6833 96.9023 79.35V78.85C96.9023 76.5167 96.269 74.7333 95.0023 73.5C93.769 72.2333 92.169 71.6 90.2023 71.6C88.269 71.6 86.669 72.2333 85.4023 73.5C84.1357 74.7333 83.5023 76.5167 83.5023 78.85V79.35C83.5023 81.6833 84.1357 83.4833 85.4023 84.75C86.669 85.9833 88.269 86.6 90.2023 86.6ZM113.485 91.5L105.585 66.7H112.285L118.035 86.9H118.935L124.685 66.7H131.385L123.485 91.5H113.485ZM142.792 92.2C141.025 92.2 139.442 91.9 138.042 91.3C136.642 90.6667 135.525 89.7667 134.692 88.6C133.892 87.4 133.492 85.95 133.492 84.25C133.492 82.55 133.892 81.1333 134.692 80C135.525 78.8333 136.658 77.9667 138.092 77.4C139.558 76.8 141.225 76.5 143.092 76.5H149.892V75.1C149.892 73.9333 149.525 72.9833 148.792 72.25C148.058 71.4833 146.892 71.1 145.292 71.1C143.725 71.1 142.558 71.4667 141.792 72.2C141.025 72.9 140.525 73.8167 140.292 74.95L134.492 73C134.892 71.7333 135.525 70.5833 136.392 69.55C137.292 68.4833 138.475 67.6333 139.942 67C141.442 66.3333 143.258 66 145.392 66C148.658 66 151.242 66.8167 153.142 68.45C155.042 70.0833 155.992 72.45 155.992 75.55V84.8C155.992 85.8 156.458 86.3 157.392 86.3H159.392V91.5H155.192C153.958 91.5 152.942 91.2 152.142 90.6C151.342 90 150.942 89.2 150.942 88.2V88.15H149.992C149.858 88.55 149.558 89.0833 149.092 89.75C148.625 90.3833 147.892 90.95 146.892 91.45C145.892 91.95 144.525 92.2 142.792 92.2ZM143.892 87.1C145.658 87.1 147.092 86.6167 148.192 85.65C149.325 84.65 149.892 83.3333 149.892 81.7V81.2H143.542C142.375 81.2 141.458 81.45 140.792 81.95C140.125 82.45 139.792 83.15 139.792 84.05C139.792 84.95 140.142 85.6833 140.842 86.25C141.542 86.8167 142.558 87.1 143.892 87.1ZM171.691 91.5C170.058 91.5 168.725 91 167.691 90C166.691 88.9667 166.191 87.6 166.191 85.9V71.9H159.991V66.7H166.191V59H172.491V66.7H179.291V71.9H172.491V84.8C172.491 85.8 172.958 86.3 173.891 86.3H178.691V91.5H171.691ZM184.994 91.5V66.7H191.294V91.5H184.994ZM188.144 63.8C187.011 63.8 186.044 63.4333 185.244 62.7C184.477 61.9667 184.094 61 184.094 59.8C184.094 58.6 184.477 57.6333 185.244 56.9C186.044 56.1667 187.011 55.8 188.144 55.8C189.311 55.8 190.277 56.1667 191.044 56.9C191.811 57.6333 192.194 58.6 192.194 59.8C192.194 61 191.811 61.9667 191.044 62.7C190.277 63.4333 189.311 63.8 188.144 63.8ZM210.075 92.2C207.609 92.2 205.392 91.7 203.425 90.7C201.459 89.7 199.909 88.25 198.775 86.35C197.642 84.45 197.075 82.1667 197.075 79.5V78.7C197.075 76.0333 197.642 73.75 198.775 71.85C199.909 69.95 201.459 68.5 203.425 67.5C205.392 66.5 207.609 66 210.075 66C212.542 66 214.759 66.5 216.725 67.5C218.692 68.5 220.242 69.95 221.375 71.85C222.509 73.75 223.075 76.0333 223.075 78.7V79.5C223.075 82.1667 222.509 84.45 221.375 86.35C220.242 88.25 218.692 89.7 216.725 90.7C214.759 91.7 212.542 92.2 210.075 92.2ZM210.075 86.6C212.009 86.6 213.609 85.9833 214.875 84.75C216.142 83.4833 216.775 81.6833 216.775 79.35V78.85C216.775 76.5167 216.142 74.7333 214.875 73.5C213.642 72.2333 212.042 71.6 210.075 71.6C208.142 71.6 206.542 72.2333 205.275 73.5C204.009 74.7333 203.375 76.5167 203.375 78.85V79.35C203.375 81.6833 204.009 83.4833 205.275 84.75C206.542 85.9833 208.142 86.6 210.075 86.6ZM228.891 91.5V66.7H235.091V69.95H235.991C236.391 69.0833 237.141 68.2667 238.241 67.5C239.341 66.7 241.007 66.3 243.241 66.3C245.174 66.3 246.857 66.75 248.291 67.65C249.757 68.5167 250.891 69.7333 251.691 71.3C252.491 72.8333 252.891 74.6333 252.891 76.7V91.5H246.591V77.2C246.591 75.3333 246.124 73.9333 245.191 73C244.291 72.0667 242.991 71.6 241.291 71.6C239.357 71.6 237.857 72.25 236.791 73.55C235.724 74.8167 235.191 76.6 235.191 78.9V91.5H228.891Z" fill="#EA4335"/>
<path d="M285.58 91.5V56.5H291.88V91.5H285.58ZM310.161 92.2C307.695 92.2 305.511 91.6833 303.611 90.65C301.745 89.5833 300.278 88.1 299.211 86.2C298.178 84.2667 297.661 82 297.661 79.4V78.8C297.661 76.2 298.178 73.95 299.211 72.05C300.245 70.1167 301.695 68.6333 303.561 67.6C305.428 66.5333 307.595 66 310.061 66C312.495 66 314.611 66.55 316.411 67.65C318.211 68.7167 319.611 70.2167 320.611 72.15C321.611 74.05 322.111 76.2667 322.111 78.8V80.95H304.061C304.128 82.65 304.761 84.0333 305.961 85.1C307.161 86.1667 308.628 86.7 310.361 86.7C312.128 86.7 313.428 86.3167 314.261 85.55C315.095 84.7833 315.728 83.9333 316.161 83L321.311 85.7C320.845 86.5667 320.161 87.5167 319.261 88.55C318.395 89.55 317.228 90.4167 315.761 91.15C314.295 91.85 312.428 92.2 310.161 92.2ZM304.111 76.25H315.711C315.578 74.8167 314.995 73.6667 313.961 72.8C312.961 71.9333 311.645 71.5 310.011 71.5C308.311 71.5 306.961 71.9333 305.961 72.8C304.961 73.6667 304.345 74.8167 304.111 76.25ZM335.419 92.2C333.652 92.2 332.069 91.9 330.669 91.3C329.269 90.6667 328.152 89.7667 327.319 88.6C326.519 87.4 326.119 85.95 326.119 84.25C326.119 82.55 326.519 81.1333 327.319 80C328.152 78.8333 329.285 77.9667 330.719 77.4C332.185 76.8 333.852 76.5 335.719 76.5H342.519V75.1C342.519 73.9333 342.152 72.9833 341.419 72.25C340.685 71.4833 339.519 71.1 337.919 71.1C336.352 71.1 335.185 71.4667 334.419 72.2C333.652 72.9 333.152 73.8167 332.919 74.95L327.119 73C327.519 71.7333 328.152 70.5833 329.019 69.55C329.919 68.4833 331.102 67.6333 332.569 67C334.069 66.3333 335.885 66 338.019 66C341.285 66 343.869 66.8167 345.769 68.45C347.669 70.0833 348.619 72.45 348.619 75.55V84.8C348.619 85.8 349.085 86.3 350.019 86.3H352.019V91.5H347.819C346.585 91.5 345.569 91.2 344.769 90.6C343.969 90 343.569 89.2 343.569 88.2V88.15H342.619C342.485 88.55 342.185 89.0833 341.719 89.75C341.252 90.3833 340.519 90.95 339.519 91.45C338.519 91.95 337.152 92.2 335.419 92.2ZM336.519 87.1C338.285 87.1 339.719 86.6167 340.819 85.65C341.952 84.65 342.519 83.3333 342.519 81.7V81.2H336.169C335.002 81.2 334.085 81.45 333.419 81.95C332.752 82.45 332.419 83.15 332.419 84.05C332.419 84.95 332.769 85.6833 333.469 86.25C334.169 86.8167 335.185 87.1 336.519 87.1ZM356.625 91.5V66.7H362.825V69.5H363.725C364.092 68.5 364.692 67.7667 365.525 67.3C366.392 66.8333 367.392 66.6 368.525 66.6H371.525V72.2H368.425C366.825 72.2 365.508 72.6333 364.475 73.5C363.442 74.3333 362.925 75.6333 362.925 77.4V91.5H356.625ZM376.449 91.5V66.7H382.649V69.95H383.549C383.949 69.0833 384.699 68.2667 385.799 67.5C386.899 66.7 388.566 66.3 390.799 66.3C392.733 66.3 394.416 66.75 395.849 67.65C397.316 68.5167 398.449 69.7333 399.249 71.3C400.049 72.8333 400.449 74.6333 400.449 76.7V91.5H394.149V77.2C394.149 75.3333 393.683 73.9333 392.749 73C391.849 72.0667 390.549 71.6 388.849 71.6C386.916 71.6 385.416 72.25 384.349 73.55C383.283 74.8167 382.749 76.6 382.749 78.9V91.5H376.449ZM407.26 91.5V66.7H413.56V91.5H407.26ZM410.41 63.8C409.276 63.8 408.31 63.4333 407.51 62.7C406.743 61.9667 406.36 61 406.36 59.8C406.36 58.6 406.743 57.6333 407.51 56.9C408.31 56.1667 409.276 55.8 410.41 55.8C411.576 55.8 412.543 56.1667 413.31 56.9C414.076 57.6333 414.46 58.6 414.46 59.8C414.46 61 414.076 61.9667 413.31 62.7C412.543 63.4333 411.576 63.8 410.41 63.8ZM420.541 91.5V66.7H426.741V69.95H427.641C428.041 69.0833 428.791 68.2667 429.891 67.5C430.991 66.7 432.658 66.3 434.891 66.3C436.824 66.3 438.508 66.75 439.941 67.65C441.408 68.5167 442.541 69.7333 443.341 71.3C444.141 72.8333 444.541 74.6333 444.541 76.7V91.5H438.241V77.2C438.241 75.3333 437.774 73.9333 436.841 73C435.941 72.0667 434.641 71.6 432.941 71.6C431.008 71.6 429.508 72.25 428.441 73.55C427.374 74.8167 426.841 76.6 426.841 78.9V91.5H420.541ZM450.152 79.2V78.4C450.152 75.8 450.668 73.5833 451.702 71.75C452.735 69.8833 454.102 68.4667 455.802 67.5C457.535 66.5 459.418 66 461.452 66C463.718 66 465.435 66.4 466.602 67.2C467.768 68 468.618 68.8333 469.152 69.7H470.052V66.7H476.252V95.9C476.252 97.6 475.752 98.95 474.752 99.95C473.752 100.983 472.418 101.5 470.752 101.5H454.152V96H468.552C469.485 96 469.952 95.5 469.952 94.5V88.05H469.052C468.718 88.5833 468.252 89.1333 467.652 89.7C467.052 90.2333 466.252 90.6833 465.252 91.05C464.252 91.4167 462.985 91.6 461.452 91.6C459.418 91.6 457.535 91.1167 455.802 90.15C454.102 89.15 452.735 87.7333 451.702 85.9C450.668 84.0333 450.152 81.8 450.152 79.2ZM463.252 86.1C465.185 86.1 466.802 85.4833 468.102 84.25C469.402 83.0167 470.052 81.2833 470.052 79.05V78.55C470.052 76.2833 469.402 74.55 468.102 73.35C466.835 72.1167 465.218 71.5 463.252 71.5C461.318 71.5 459.702 72.1167 458.402 73.35C457.102 74.55 456.452 76.2833 456.452 78.55V79.05C456.452 81.2833 457.102 83.0167 458.402 84.25C459.702 85.4833 461.318 86.1 463.252 86.1Z" fill="#00AA47"/>
<path d="M613.412 91.5V66.7H619.612V69.95H620.512C620.912 69.0833 621.662 68.2667 622.762 67.5C623.862 66.7 625.529 66.3 627.762 66.3C629.695 66.3 631.379 66.75 632.812 67.65C634.279 68.5167 635.412 69.7333 636.212 71.3C637.012 72.8333 637.412 74.6333 637.412 76.7V91.5H631.112V77.2C631.112 75.3333 630.645 73.9333 629.712 73C628.812 72.0667 627.512 71.6 625.812 71.6C623.879 71.6 622.379 72.25 621.312 73.55C620.245 74.8167 619.712 76.6 619.712 78.9V91.5H613.412ZM655.523 92.2C653.056 92.2 650.873 91.6833 648.973 90.65C647.106 89.5833 645.639 88.1 644.573 86.2C643.539 84.2667 643.023 82 643.023 79.4V78.8C643.023 76.2 643.539 73.95 644.573 72.05C645.606 70.1167 647.056 68.6333 648.923 67.6C650.789 66.5333 652.956 66 655.423 66C657.856 66 659.973 66.55 661.773 67.65C663.573 68.7167 664.973 70.2167 665.973 72.15C666.973 74.05 667.473 76.2667 667.473 78.8V80.95H649.423C649.489 82.65 650.123 84.0333 651.323 85.1C652.523 86.1667 653.989 86.7 655.723 86.7C657.489 86.7 658.789 86.3167 659.623 85.55C660.456 84.7833 661.089 83.9333 661.523 83L666.673 85.7C666.206 86.5667 665.523 87.5167 664.623 88.55C663.756 89.55 662.589 90.4167 661.123 91.15C659.656 91.85 657.789 92.2 655.523 92.2ZM649.473 76.25H661.073C660.939 74.8167 660.356 73.6667 659.323 72.8C658.323 71.9333 657.006 71.5 655.373 71.5C653.673 71.5 652.323 71.9333 651.323 72.8C650.323 73.6667 649.706 74.8167 649.473 76.25ZM681.75 91.5C680.117 91.5 678.783 91 677.75 90C676.75 88.9667 676.25 87.6 676.25 85.9V71.9H670.05V66.7H676.25V59H682.55V66.7H689.35V71.9H682.55V84.8C682.55 85.8 683.017 86.3 683.95 86.3H688.75V91.5H681.75ZM697.053 91.5L693.553 66.7H699.803L702.003 87.25H702.903L706.103 66.7H716.203L719.403 87.25H720.303L722.503 66.7H728.753L725.253 91.5H714.803L711.603 70.95H710.703L707.503 91.5H697.053ZM745.964 92.2C743.497 92.2 741.281 91.7 739.314 90.7C737.347 89.7 735.797 88.25 734.664 86.35C733.531 84.45 732.964 82.1667 732.964 79.5V78.7C732.964 76.0333 733.531 73.75 734.664 71.85C735.797 69.95 737.347 68.5 739.314 67.5C741.281 66.5 743.497 66 745.964 66C748.431 66 750.647 66.5 752.614 67.5C754.581 68.5 756.131 69.95 757.264 71.85C758.397 73.75 758.964 76.0333 758.964 78.7V79.5C758.964 82.1667 758.397 84.45 757.264 86.35C756.131 88.25 754.581 89.7 752.614 90.7C750.647 91.7 748.431 92.2 745.964 92.2ZM745.964 86.6C747.897 86.6 749.497 85.9833 750.764 84.75C752.031 83.4833 752.664 81.6833 752.664 79.35V78.85C752.664 76.5167 752.031 74.7333 750.764 73.5C749.531 72.2333 747.931 71.6 745.964 71.6C744.031 71.6 742.431 72.2333 741.164 73.5C739.897 74.7333 739.264 76.5167 739.264 78.85V79.35C739.264 81.6833 739.897 83.4833 741.164 84.75C742.431 85.9833 744.031 86.6 745.964 86.6ZM764.779 91.5V66.7H770.979V69.5H771.879C772.246 68.5 772.846 67.7667 773.679 67.3C774.546 66.8333 775.546 66.6 776.679 66.6H779.679V72.2H776.579C774.979 72.2 773.663 72.6333 772.629 73.5C771.596 74.3333 771.079 75.6333 771.079 77.4V91.5H764.779ZM784.604 91.5V56.5H790.904V75.85H791.804L800.004 66.7H808.204L796.754 78.7L808.604 91.5H800.504L791.804 81.65H790.904V91.5H784.604ZM812.826 91.5V66.7H819.126V91.5H812.826ZM815.976 63.8C814.843 63.8 813.876 63.4333 813.076 62.7C812.31 61.9667 811.926 61 811.926 59.8C811.926 58.6 812.31 57.6333 813.076 56.9C813.876 56.1667 814.843 55.8 815.976 55.8C817.143 55.8 818.11 56.1667 818.876 56.9C819.643 57.6333 820.026 58.6 820.026 59.8C820.026 61 819.643 61.9667 818.876 62.7C818.11 63.4333 817.143 63.8 815.976 63.8ZM826.107 91.5V66.7H832.307V69.95H833.207C833.607 69.0833 834.357 68.2667 835.457 67.5C836.557 66.7 838.224 66.3 840.457 66.3C842.391 66.3 844.074 66.75 845.507 67.65C846.974 68.5167 848.107 69.7333 848.907 71.3C849.707 72.8333 850.107 74.6333 850.107 76.7V91.5H843.807V77.2C843.807 75.3333 843.341 73.9333 842.407 73C841.507 72.0667 840.207 71.6 838.507 71.6C836.574 71.6 835.074 72.25 834.007 73.55C832.941 74.8167 832.407 76.6 832.407 78.9V91.5H826.107ZM855.718 79.2V78.4C855.718 75.8 856.235 73.5833 857.268 71.75C858.301 69.8833 859.668 68.4667 861.368 67.5C863.101 66.5 864.985 66 867.018 66C869.285 66 871.001 66.4 872.168 67.2C873.335 68 874.185 68.8333 874.718 69.7H875.618V66.7H881.818V95.9C881.818 97.6 881.318 98.95 880.318 99.95C879.318 100.983 877.985 101.5 876.318 101.5H859.718V96H874.118C875.051 96 875.518 95.5 875.518 94.5V88.05H874.618C874.285 88.5833 873.818 89.1333 873.218 89.7C872.618 90.2333 871.818 90.6833 870.818 91.05C869.818 91.4167 868.551 91.6 867.018 91.6C864.985 91.6 863.101 91.1167 861.368 90.15C859.668 89.15 858.301 87.7333 857.268 85.9C856.235 84.0333 855.718 81.8 855.718 79.2ZM868.818 86.1C870.751 86.1 872.368 85.4833 873.668 84.25C874.968 83.0167 875.618 81.2833 875.618 79.05V78.55C875.618 76.2833 874.968 74.55 873.668 73.35C872.401 72.1167 870.785 71.5 868.818 71.5C866.885 71.5 865.268 72.1167 863.968 73.35C862.668 74.55 862.018 76.2833 862.018 78.55V79.05C862.018 81.2833 862.668 83.0167 863.968 84.25C865.268 85.4833 866.885 86.1 868.818 86.1Z" fill="#4285F4"/>
</svg>
