<svg width="1077" height="273" viewBox="0 0 1077 273" fill="none" xmlns="http://www.w3.org/2000/svg">
<path d="M253.444 243.818C249.142 243.818 245.27 243.244 241.828 242.097C238.386 240.95 235.375 239.468 232.793 237.652C230.212 235.739 228.013 233.588 226.197 231.198C224.476 228.808 223.137 226.322 222.181 223.741L236.522 217.718C238.147 221.829 240.49 224.888 243.549 226.896C246.608 228.808 249.907 229.764 253.444 229.764C257.46 229.764 260.615 228.951 262.909 227.326C265.204 225.701 266.351 223.884 266.351 221.877C266.351 219.869 265.491 218.148 263.77 216.714C262.049 215.184 258.798 213.846 254.018 212.698L243.979 210.26C241.78 209.782 239.534 209.065 237.239 208.109C235.04 207.058 232.985 205.767 231.072 204.237C229.16 202.612 227.583 200.7 226.34 198.501C225.193 196.206 224.619 193.529 224.619 190.47C224.619 187.028 225.336 183.969 226.77 181.292C228.3 178.615 230.355 176.368 232.937 174.552C235.518 172.735 238.482 171.349 241.828 170.393C245.27 169.437 248.903 168.959 252.727 168.959C255.882 168.959 258.894 169.293 261.762 169.962C264.726 170.632 267.451 171.636 269.936 172.974C272.422 174.313 274.621 176.033 276.533 178.137C278.541 180.144 280.118 182.535 281.266 185.307L267.212 191.187C265.873 188.128 263.77 185.929 260.902 184.59C258.033 183.156 255.117 182.439 252.154 182.439C250.815 182.439 249.429 182.63 247.995 183.013C246.656 183.299 245.413 183.778 244.266 184.447C243.214 185.02 242.306 185.785 241.541 186.741C240.872 187.697 240.537 188.749 240.537 189.896C240.537 191.808 241.35 193.338 242.975 194.485C244.696 195.537 247.278 196.493 250.72 197.354L261.475 200.078C268.741 201.895 274.047 204.667 277.394 208.396C280.835 212.029 282.556 216.331 282.556 221.303C282.556 224.362 281.839 227.23 280.405 229.907C279.067 232.584 277.107 234.975 274.525 237.078C271.944 239.181 268.837 240.807 265.204 241.954C261.666 243.197 257.747 243.818 253.444 243.818Z" fill="#010B17"/>
<path d="M177.351 237.508L148.096 171.253H165.878L185.239 217.861H185.956L204.742 171.253H222.381L178.355 272.5H161.433L177.351 237.508Z" fill="#010B17"/>
<path d="M129.213 232.919H128.352C126.249 235.692 123.524 238.225 120.178 240.52C116.832 242.719 112.577 243.818 107.415 243.818C103.686 243.818 100.196 243.197 96.9457 241.954C93.6951 240.807 90.8747 239.181 88.4846 237.078C86.0944 234.879 84.1823 232.345 82.7482 229.477C81.4097 226.513 80.7405 223.263 80.7405 219.725C80.7405 215.997 81.4575 212.651 82.8916 209.687C84.4213 206.723 86.4768 204.237 89.0582 202.229C91.7352 200.222 94.8902 198.692 98.5232 197.64C102.156 196.493 106.076 195.92 110.283 195.92C114.967 195.92 118.887 196.398 122.042 197.354C125.197 198.214 127.587 199.027 129.213 199.792V197.067C129.213 194.963 128.735 193.004 127.779 191.187C126.918 189.37 125.675 187.841 124.05 186.598C122.52 185.259 120.752 184.256 118.744 183.586C116.736 182.821 114.633 182.439 112.434 182.439C108.896 182.439 105.694 183.156 102.825 184.59C100.053 185.929 97.5671 188.128 95.3682 191.187L82.7482 182.869C86.0944 178.28 90.2533 174.838 95.2248 172.544C100.196 170.154 105.837 168.959 112.147 168.959C122.568 168.959 130.599 171.54 136.24 176.703C141.976 181.865 144.844 189.227 144.844 198.788V241.524H129.213V232.919ZM129.213 212.268C127.109 211.025 124.767 210.021 122.186 209.257C119.604 208.492 116.641 208.109 113.294 208.109C108.323 208.109 104.355 209.257 101.391 211.551C98.4276 213.846 96.9457 216.618 96.9457 219.869C96.9457 221.59 97.3281 223.119 98.093 224.458C98.8578 225.701 99.8139 226.8 100.961 227.756C102.204 228.712 103.59 229.429 105.12 229.907C106.745 230.385 108.371 230.624 109.996 230.624C112.577 230.624 115.015 230.146 117.31 229.19C119.7 228.139 121.755 226.8 123.476 225.175C125.197 223.454 126.584 221.494 127.635 219.295C128.687 217.096 129.213 214.754 129.213 212.268Z" fill="#010B17"/>
<path d="M57.2202 232.489H56.3598C54.4476 235.548 51.5317 238.225 47.6118 240.52C43.692 242.719 39.0073 243.818 33.5577 243.818C29.0642 243.818 24.762 242.91 20.6509 241.093C16.6355 239.181 13.098 236.552 10.0386 233.206C6.97924 229.86 4.54129 225.94 2.72477 221.446C0.908257 216.857 0 211.838 0 206.388C0 200.939 0.908257 195.967 2.72477 191.474C4.54129 186.885 6.97924 182.917 10.0386 179.571C13.098 176.225 16.6355 173.643 20.6509 171.827C24.762 169.915 29.0642 168.959 33.5577 168.959C39.0073 168.959 43.692 170.106 47.6118 172.4C51.5317 174.599 54.4476 177.229 56.3598 180.288H57.2202L56.3598 170.536V138.843H72.2782V241.524H57.2202V232.489ZM36.5693 229.047C39.2463 229.047 41.8277 228.521 44.3134 227.469C46.8948 226.418 49.0937 224.936 50.9102 223.024C52.8223 221.112 54.352 218.769 55.4993 215.997C56.6466 213.129 57.2202 209.926 57.2202 206.388C57.2202 202.851 56.6466 199.696 55.4993 196.923C54.352 194.055 52.8223 191.665 50.9102 189.753C49.0937 187.841 46.8948 186.359 44.3134 185.307C41.8277 184.256 39.2463 183.73 36.5693 183.73C33.7967 183.73 31.1676 184.256 28.6818 185.307C26.1961 186.359 23.9971 187.889 22.085 189.896C20.2685 191.808 18.7866 194.151 17.6393 196.923C16.492 199.696 15.9184 202.851 15.9184 206.388C15.9184 209.926 16.492 213.081 17.6393 215.853C18.7866 218.626 20.2685 221.016 22.085 223.024C23.9971 224.936 26.1961 226.418 28.6818 227.469C31.1676 228.521 33.7967 229.047 36.5693 229.047Z" fill="#010B17"/>
<path d="M588.666 244.172C585.881 244.172 583.13 243.798 580.412 243.051C577.695 242.304 575.182 241.149 572.873 239.587C570.631 238.024 568.661 236.055 566.963 233.677C565.265 231.3 564.042 228.515 563.295 225.322L577.254 219.922C577.933 223.115 579.224 225.628 581.126 227.462C583.028 229.228 585.541 230.111 588.666 230.111C591.383 230.111 593.692 229.16 595.594 227.258C597.496 225.356 598.447 222.979 598.447 220.126C598.447 217.273 597.496 214.896 595.594 212.994C593.76 211.092 591.417 210.141 588.564 210.141C586.594 210.141 584.896 210.514 583.469 211.261C582.043 212.009 580.82 212.96 579.801 214.114L565.129 207.39L568.899 172.849H609.553V185.891H581.635L578.986 200.359L580.005 200.665C581.296 199.646 582.892 198.695 584.794 197.812C586.764 196.929 589.141 196.487 591.926 196.487C594.779 196.487 597.496 197.065 600.077 198.22C602.726 199.306 605.036 200.869 607.006 202.906C609.043 204.944 610.674 207.424 611.896 210.344C613.119 213.265 613.73 216.526 613.73 220.126C613.73 223.726 613.119 227.02 611.896 230.009C610.674 232.93 608.942 235.443 606.7 237.549C604.458 239.655 601.809 241.285 598.753 242.44C595.696 243.594 592.334 244.172 588.666 244.172Z" fill="#010B17"/>
<path d="M529.606 229.5H555.792V242.542H508.515V229.092C512.591 225.084 516.361 221.382 519.825 217.986C521.319 216.56 522.814 215.099 524.308 213.605C525.734 212.111 527.059 210.752 528.282 209.529C529.572 208.239 530.693 207.118 531.644 206.167C532.663 205.148 533.41 204.367 533.886 203.824C535.856 201.65 537.248 199.748 538.063 198.118C538.878 196.42 539.286 194.586 539.286 192.616C539.286 190.646 538.539 188.982 537.044 187.623C535.618 186.197 533.614 185.483 531.033 185.483C528.452 185.483 526.38 186.231 524.817 187.725C523.323 189.151 522.202 191.053 521.455 193.431L507.598 187.725C508.209 185.619 509.16 183.581 510.451 181.612C511.742 179.642 513.372 177.91 515.342 176.415C517.312 174.853 519.621 173.596 522.27 172.645C524.987 171.694 527.976 171.219 531.237 171.219C534.905 171.219 538.199 171.762 541.12 172.849C544.041 173.868 546.486 175.294 548.456 177.128C550.494 178.962 552.056 181.136 553.143 183.649C554.23 186.163 554.773 188.88 554.773 191.801C554.773 196.012 553.788 199.918 551.818 203.518C549.916 207.05 547.233 210.548 543.769 214.012L529.097 228.481L529.606 229.5Z" fill="#010B17"/>
<path d="M471.217 244.172C466.598 244.172 462.455 243.255 458.787 241.421C455.119 239.587 451.994 237.04 449.413 233.779C446.832 230.519 444.828 226.681 443.401 222.266C442.043 217.782 441.363 212.926 441.363 207.695C441.363 202.465 442.043 197.642 443.401 193.227C444.828 188.744 446.832 184.872 449.413 181.612C451.994 178.351 455.119 175.804 458.787 173.97C462.455 172.136 466.598 171.219 471.217 171.219C475.768 171.219 479.878 172.136 483.546 173.97C487.282 175.804 490.44 178.351 493.021 181.612C495.603 184.872 497.573 188.744 498.931 193.227C500.358 197.642 501.071 202.465 501.071 207.695C501.071 212.926 500.358 217.782 498.931 222.266C497.573 226.681 495.603 230.519 493.021 233.779C490.44 237.04 487.282 239.587 483.546 241.421C479.878 243.255 475.768 244.172 471.217 244.172ZM471.217 229.907C473.527 229.907 475.564 229.364 477.33 228.277C479.165 227.122 480.693 225.56 481.916 223.59C483.206 221.62 484.157 219.277 484.768 216.56C485.448 213.843 485.787 210.888 485.787 207.695C485.787 204.503 485.448 201.548 484.768 198.831C484.157 196.114 483.206 193.77 481.916 191.801C480.693 189.831 479.165 188.302 477.33 187.216C475.564 186.061 473.527 185.483 471.217 185.483C468.908 185.483 466.836 186.061 465.002 187.216C463.236 188.302 461.707 189.831 460.417 191.801C459.194 193.77 458.243 196.114 457.564 198.831C456.953 201.548 456.647 204.503 456.647 207.695C456.647 210.888 456.953 213.843 457.564 216.56C458.243 219.277 459.194 221.62 460.417 223.59C461.707 225.56 463.236 227.122 465.002 228.277C466.836 229.364 468.908 229.907 471.217 229.907Z" fill="#010B17"/>
<path d="M407.267 229.5H433.453V242.542H386.176V229.092C390.252 225.084 394.021 221.382 397.486 217.986C398.98 216.56 400.474 215.099 401.969 213.605C403.395 212.111 404.72 210.752 405.943 209.529C407.233 208.239 408.354 207.118 409.305 206.167C410.324 205.148 411.071 204.367 411.546 203.824C413.516 201.65 414.909 199.748 415.724 198.118C416.539 196.42 416.947 194.586 416.947 192.616C416.947 190.646 416.199 188.982 414.705 187.623C413.279 186.197 411.275 185.483 408.694 185.483C406.112 185.483 404.041 186.231 402.478 187.725C400.984 189.151 399.863 191.053 399.116 193.431L385.259 187.725C385.87 185.619 386.821 183.581 388.112 181.612C389.402 179.642 391.033 177.91 393.003 176.415C394.972 174.853 397.282 173.596 399.931 172.645C402.648 171.694 405.637 171.219 408.897 171.219C412.565 171.219 415.86 171.762 418.781 172.849C421.701 173.868 424.147 175.294 426.117 177.128C428.154 178.962 429.717 181.136 430.804 183.649C431.89 186.163 432.434 188.88 432.434 191.801C432.434 196.012 431.449 199.918 429.479 203.518C427.577 207.05 424.894 210.548 421.43 214.012L406.758 228.481L407.267 229.5Z" fill="#010B17"/>
<path fill-rule="evenodd" clip-rule="evenodd" d="M341.612 173.252C337.799 168.619 330.705 168.619 326.892 173.252L325.661 174.749C323.643 177.2 320.539 178.486 317.379 178.179L315.45 177.992C309.478 177.412 304.462 182.428 305.042 188.4L305.229 190.329C305.536 193.489 304.25 196.593 301.799 198.61L300.302 199.842C295.669 203.655 295.669 210.749 300.302 214.562L301.799 215.794C304.25 217.811 305.536 220.915 305.229 224.075L305.042 226.004C304.462 231.976 309.478 236.992 315.45 236.412L317.379 236.225C320.539 235.918 323.643 237.204 325.661 239.655L326.892 241.152C330.705 245.785 337.799 245.785 341.612 241.152L342.844 239.655C344.861 237.204 347.965 235.918 351.125 236.225L353.054 236.412C359.026 236.992 364.042 231.976 363.462 226.004L363.275 224.075C362.968 220.915 364.254 217.811 366.705 215.794L368.202 214.562C372.835 210.749 372.835 203.655 368.202 199.842L366.705 198.61C364.254 196.593 362.968 193.489 363.275 190.329L363.462 188.4C364.042 182.428 359.026 177.412 353.054 177.992L351.125 178.179C347.965 178.486 344.861 177.2 342.844 174.749L341.612 173.252ZM336.43 181.128C335.592 179.241 332.912 179.241 332.074 181.128L328.533 189.104C328.018 190.264 326.683 190.817 325.499 190.361L317.355 187.225C315.428 186.483 313.533 188.378 314.275 190.305L317.411 198.449C317.867 199.633 317.314 200.968 316.154 201.483L308.179 205.024C306.291 205.862 306.291 208.542 308.179 209.38L316.154 212.921C317.314 213.436 317.867 214.771 317.411 215.955L314.275 224.099C313.533 226.026 315.428 227.921 317.355 227.179L325.499 224.043C326.683 223.587 328.018 224.14 328.533 225.3L332.074 233.276C332.912 235.163 335.592 235.163 336.43 233.276L339.971 225.3C340.486 224.14 341.821 223.587 343.005 224.043L351.149 227.179C353.076 227.921 354.971 226.026 354.229 224.099L351.093 215.955C350.637 214.771 351.19 213.436 352.35 212.921L360.326 209.38C362.213 208.542 362.213 205.862 360.326 205.024L352.35 201.483C351.19 200.968 350.637 199.633 351.093 198.449L354.229 190.305C354.971 188.378 353.076 186.483 351.149 187.225L343.005 190.361C341.821 190.817 340.486 190.264 339.971 189.104L336.43 181.128Z" fill="#FAAB00"/>
<path d="M672 169.882H663.695V197.229L644.357 177.891L638.485 183.764L657.822 203.101H630.475V211.406H657.822L638.485 230.743L644.357 236.616L663.695 217.278V244.625H672V217.278L691.337 236.616L697.209 230.743L677.872 211.406H705.219V203.101H677.872L697.209 183.764L691.337 177.891L672 197.229V169.882Z" fill="#EA4336"/>
<path d="M77.6135 103.181V0.5H93.5319V103.181H77.6135Z" fill="#010B17"/>
<path d="M68.9798 85.2548C67.6413 88.0273 65.9682 90.6565 63.9605 93.1423C62.0483 95.5324 59.7538 97.6835 57.0768 99.5957C54.4954 101.412 51.4839 102.846 48.042 103.898C44.6002 104.95 40.8238 105.475 36.7127 105.475C31.3588 105.475 26.4351 104.567 21.9416 102.751C17.4481 100.839 13.5761 98.2094 10.3255 94.8632C7.07485 91.517 4.54129 87.5493 2.72477 82.9602C0.908257 78.3711 0 73.3996 0 68.0457C0 62.6917 0.908257 57.7202 2.72477 53.1311C4.54129 48.542 7.07485 44.5744 10.3255 41.2282C13.5761 37.882 17.4481 35.3006 21.9416 33.4841C26.4351 31.572 31.3588 30.6159 36.7127 30.6159C40.8238 30.6159 44.5524 31.1417 47.8986 32.1934C51.3405 33.2451 54.352 34.727 56.9334 36.6391C59.6104 38.4556 61.9049 40.6067 63.817 43.0925C65.7292 45.4826 67.2589 48.0162 68.4061 50.6932L53.7784 56.8598C52.1531 53.2267 49.9064 50.4064 47.0382 48.3986C44.17 46.3909 40.537 45.387 36.1391 45.387C33.4621 45.387 30.8808 45.9607 28.395 47.1079C26.0048 48.1596 23.8537 49.6893 21.9416 51.697C20.1251 53.6092 18.6432 55.9515 17.4959 58.7241C16.4442 61.4967 15.9184 64.6039 15.9184 68.0457C15.9184 71.4875 16.4442 74.5947 17.4959 77.3673C18.6432 80.1398 20.1251 82.53 21.9416 84.5377C23.8537 86.4498 26.0048 87.9795 28.395 89.1268C30.8808 90.1785 33.4621 90.7043 36.1391 90.7043C40.537 90.7043 44.2656 89.7004 47.325 87.6927C50.48 85.5894 52.918 82.7212 54.6389 79.0882L68.9798 85.2548Z" fill="#010B17"/>
<path d="M314.394 94.1461H313.533C311.621 97.2055 308.705 99.8825 304.785 102.177C300.866 104.376 296.181 105.475 290.731 105.475C286.238 105.475 281.936 104.567 277.824 102.751C273.809 100.839 270.272 98.2094 267.212 94.8632C264.153 91.517 261.715 87.5971 259.898 83.1036C258.082 78.5145 257.174 73.4952 257.174 68.0457C257.174 62.5961 258.082 57.6246 259.898 53.1311C261.715 48.542 264.153 44.5744 267.212 41.2282C270.272 37.882 273.809 35.3006 277.824 33.4841C281.936 31.572 286.238 30.6159 290.731 30.6159C296.181 30.6159 300.866 31.7632 304.785 34.0577C308.705 36.2567 311.621 38.8858 313.533 41.9452H314.394L313.533 32.1934V0.5H329.452V103.181H314.394V94.1461ZM293.743 90.7043C296.42 90.7043 299.001 90.1785 301.487 89.1268C304.068 88.0751 306.267 86.5933 308.084 84.6811C309.996 82.769 311.526 80.4267 312.673 77.6541C313.82 74.7859 314.394 71.5831 314.394 68.0457C314.394 64.5083 313.82 61.3533 312.673 58.5807C311.526 55.7125 309.996 53.3223 308.084 51.4102C306.267 49.4981 304.068 48.0162 301.487 46.9645C299.001 45.9129 296.42 45.387 293.743 45.387C290.97 45.387 288.341 45.9129 285.855 46.9645C283.37 48.0162 281.171 49.5459 279.259 51.5536C277.442 53.4658 275.96 55.8081 274.813 58.5807C273.666 61.3533 273.092 64.5083 273.092 68.0457C273.092 71.5831 273.666 74.7381 274.813 77.5107C275.96 80.2833 277.442 82.6734 279.259 84.6811C281.171 86.5933 283.37 88.0751 285.855 89.1268C288.341 90.1785 290.97 90.7043 293.743 90.7043Z" fill="#010B17"/>
<path d="M233.693 93.716H232.832C230.729 97.0622 227.717 99.8825 223.797 102.177C219.973 104.376 215.623 105.476 210.747 105.476C201.856 105.476 195.211 102.846 190.813 97.588C186.415 92.2341 184.216 85.1592 184.216 76.3635V32.9105H200.135V74.2123C200.135 80.3311 201.521 84.6334 204.294 87.1191C207.162 89.5093 210.891 90.7044 215.48 90.7044C218.157 90.7044 220.547 90.1307 222.65 88.9835C224.849 87.8362 226.713 86.3065 228.243 84.3944C229.773 82.3866 230.92 80.1399 231.685 77.6541C232.45 75.0728 232.832 72.3958 232.832 69.6232V32.9105H248.751V103.181H233.693V93.716Z" fill="#010B17"/>
<path d="M101.701 68.7554C101.701 48.0261 118.505 31.2217 139.235 31.2217C139.235 51.951 122.43 68.7554 101.701 68.7554Z" fill="#4285F4"/>
<path d="M101.701 68.7554C101.701 89.4847 118.505 106.289 139.235 106.289C139.235 85.5599 122.43 68.7554 101.701 68.7554Z" fill="#4285F4"/>
<path d="M176.768 68.7554C176.768 48.0261 159.964 31.2217 139.235 31.2217C139.235 51.951 156.039 68.7554 176.768 68.7554Z" fill="#4285F4"/>
<path d="M176.768 68.7554C176.768 89.4847 159.964 106.289 139.235 106.289C139.235 85.5599 156.039 68.7554 176.768 68.7554Z" fill="#4285F4"/>
<path d="M438.017 85.2548C436.679 88.0273 435.005 90.6565 432.998 93.1423C431.086 95.5324 428.791 97.6835 426.114 99.5957C423.533 101.412 420.521 102.846 417.079 103.898C413.637 104.95 409.861 105.475 405.75 105.475C400.396 105.475 395.472 104.567 390.979 102.751C386.485 100.839 382.613 98.2094 379.363 94.8632C376.112 91.517 373.579 87.5493 371.762 82.9602C369.945 78.3711 369.037 73.3996 369.037 68.0457C369.037 62.6917 369.945 57.7202 371.762 53.1311C373.579 48.542 376.112 44.5744 379.363 41.2282C382.613 37.882 386.485 35.3006 390.979 33.4841C395.472 31.572 400.396 30.6159 405.75 30.6159C409.861 30.6159 413.59 31.1417 416.936 32.1934C420.378 33.2451 423.389 34.727 425.971 36.6391C428.648 38.4556 430.942 40.6067 432.854 43.0925C434.766 45.4826 436.296 48.0162 437.443 50.6932L422.816 56.8598C421.19 53.2267 418.944 50.4064 416.075 48.3986C413.207 46.3909 409.574 45.387 405.176 45.387C402.499 45.387 399.918 45.9607 397.432 47.1079C395.042 48.1596 392.891 49.6893 390.979 51.697C389.162 53.6092 387.68 55.9515 386.533 58.7241C385.481 61.4967 384.956 64.6039 384.956 68.0457C384.956 71.4875 385.481 74.5947 386.533 77.3673C387.68 80.1398 389.162 82.53 390.979 84.5377C392.891 86.4498 395.042 87.9795 397.432 89.1268C399.918 90.1785 402.499 90.7043 405.176 90.7043C409.574 90.7043 413.303 89.7004 416.362 87.6927C419.517 85.5894 421.955 82.7212 423.676 79.0882L438.017 85.2548Z" fill="#010B17"/>
<path fill-rule="evenodd" clip-rule="evenodd" d="M482.156 31.4932C461.409 31.4932 444.591 48.3114 444.591 69.0576C444.591 89.8039 461.409 106.622 482.156 106.622C502.902 106.622 519.72 89.8039 519.72 69.0576C519.72 48.3114 502.902 31.4932 482.156 31.4932ZM482.156 94.1006C468.325 94.1006 457.113 82.8885 457.113 69.0576L507.198 69.0576C507.198 82.8885 495.986 94.1006 482.156 94.1006Z" fill="#34A853"/>
<path d="M529.782 34.0499H544.84V43.5149H545.701C547.9 40.0731 550.959 37.2527 554.879 35.0537C558.799 32.8548 562.958 31.7553 567.356 31.7553C572.614 31.7553 577.107 32.9982 580.836 35.484C584.66 37.8741 587.433 41.0291 589.154 44.949C591.544 41.2203 594.747 38.1131 598.762 35.6274C602.778 33.046 607.606 31.7553 613.247 31.7553C617.549 31.7553 621.277 32.4724 624.432 33.9065C627.587 35.2449 630.169 37.1571 632.177 39.6428C634.28 42.1286 635.857 45.1402 636.909 48.6776C637.961 52.1194 638.487 55.9915 638.487 60.2937V104.32H622.568V63.0185C622.568 56.8997 621.373 52.6452 618.983 50.2551C616.688 47.7693 613.294 46.5265 608.801 46.5265C606.22 46.5265 603.877 47.1001 601.774 48.2474C599.766 49.3946 598.045 50.9721 596.611 52.9799C595.177 54.892 594.078 57.1387 593.313 59.7201C592.548 62.3015 592.165 65.0262 592.165 67.8944V104.32H576.247V63.0185C576.247 56.8997 575.004 52.6452 572.518 50.2551C570.128 47.7693 566.639 46.5265 562.05 46.5265C559.564 46.5265 557.317 47.1001 555.309 48.2474C553.302 49.3946 551.581 50.9721 550.147 52.9799C548.712 54.892 547.613 57.1387 546.848 59.7201C546.083 62.3015 545.701 65.0262 545.701 67.8944V104.32H529.782V34.0499Z" fill="#010B17"/>
<path d="M651.137 34.0499H666.195V43.5149H667.055C669.254 40.0731 672.314 37.2527 676.233 35.0537C680.153 32.8548 684.312 31.7553 688.71 31.7553C693.968 31.7553 698.462 32.9982 702.19 35.484C706.015 37.8741 708.787 41.0291 710.508 44.949C712.898 41.2203 716.101 38.1131 720.117 35.6274C724.132 33.046 728.96 31.7553 734.601 31.7553C738.903 31.7553 742.632 32.4724 745.787 33.9065C748.942 35.2449 751.523 37.1571 753.531 39.6428C755.634 42.1286 757.212 45.1402 758.263 48.6776C759.315 52.1194 759.841 55.9915 759.841 60.2937V104.32H743.922V63.0185C743.922 56.8997 742.727 52.6452 740.337 50.2551C738.043 47.7693 734.649 46.5265 730.155 46.5265C727.574 46.5265 725.231 47.1001 723.128 48.2474C721.12 49.3946 719.4 50.9721 717.965 52.9799C716.531 54.892 715.432 57.1387 714.667 59.7201C713.902 62.3015 713.52 65.0262 713.52 67.8944V104.32H697.601V63.0185C697.601 56.8997 696.358 52.6452 693.873 50.2551C691.483 47.7693 687.993 46.5265 683.404 46.5265C680.918 46.5265 678.671 47.1001 676.664 48.2474C674.656 49.3946 672.935 50.9721 671.501 52.9799C670.067 54.892 668.967 57.1387 668.202 59.7201C667.438 62.3015 667.055 65.0262 667.055 67.8944V104.32H651.137V34.0499Z" fill="#010B17"/>
<path d="M821.394 94.8553H820.533C818.43 98.2015 815.418 101.022 811.498 103.316C807.674 105.515 803.324 106.615 798.448 106.615C789.557 106.615 782.912 103.986 778.514 98.7274C774.116 93.3734 771.917 86.2986 771.917 77.5028V34.0499H787.836V75.3517C787.836 81.4705 789.222 85.7728 791.995 88.2585C794.863 90.6487 798.592 91.8437 803.181 91.8437C805.858 91.8437 808.248 91.2701 810.351 90.1228C812.55 88.9755 814.414 87.4458 815.944 85.5337C817.474 83.526 818.621 81.2793 819.386 78.7935C820.151 76.2121 820.533 73.5352 820.533 70.7626V34.0499H836.452V104.32H821.394V94.8553Z" fill="#010B17"/>
<path d="M864.648 43.5149H865.509C867.612 40.1687 870.576 37.3961 874.4 35.1971C878.32 32.9026 882.718 31.7553 887.594 31.7553C896.485 31.7553 903.13 34.4323 907.528 39.7862C911.925 45.0446 914.124 52.0716 914.124 60.8674V104.32H898.206V63.0185C898.206 56.8997 896.772 52.6452 893.904 50.2551C891.131 47.7693 887.45 46.5265 882.861 46.5265C880.089 46.5265 877.651 47.1001 875.547 48.2474C873.444 49.3946 871.628 50.9721 870.098 52.9799C868.568 54.892 867.421 57.1387 866.656 59.7201C865.891 62.2059 865.509 64.835 865.509 67.6076V104.32H849.59V34.0499H864.648V43.5149Z" fill="#010B17"/>
<path d="M935.868 53.2417C932.808 53.2417 930.227 52.19 928.124 50.0867C926.116 47.9833 925.112 45.4498 925.112 42.486C925.112 39.5222 926.116 36.9886 928.124 34.8853C930.227 32.782 932.808 31.7303 935.868 31.7303C938.831 31.7303 941.317 32.782 943.325 34.8853C945.428 36.9886 946.48 39.5222 946.48 42.486C946.48 45.4498 945.428 47.9833 943.325 50.0867C941.317 52.19 938.831 53.2417 935.868 53.2417ZM927.837 104.32V60.2107H943.755V104.32H927.837Z" fill="#010B17"/>
<path d="M965.177 48.104H952.844V34.0499H965.177V12.5385H981.095V34.0499H998.448V48.104H981.095V79.3671C981.095 81.0881 981.287 82.6655 981.669 84.0996C982.051 85.5337 982.625 86.7288 983.39 87.6849C985.015 89.5014 987.071 90.4096 989.556 90.4096C991.086 90.4096 992.281 90.314 993.142 90.1228C994.002 89.836 994.91 89.4536 995.866 88.9755L1000.74 103.03C998.735 103.794 996.631 104.368 994.432 104.751C992.233 105.229 989.748 105.468 986.975 105.468C983.629 105.468 980.665 104.942 978.084 103.89C975.502 102.838 973.256 101.404 971.344 99.5878C967.232 95.4768 965.177 89.8838 965.177 82.809V48.104Z" fill="#010B17"/>
<path d="M1031.26 100.305L1002.01 34.0499H1019.79L1039.15 80.6578H1039.87L1058.65 34.0499H1076.29L1032.27 135.297H1015.34L1031.26 100.305Z" fill="#010B17"/>
<path d="M946.715 42.3417C946.715 48.4252 941.784 53.3568 935.7 53.3568C929.617 53.3568 924.685 48.4252 924.685 42.3417C924.685 36.2583 929.617 31.3267 935.7 31.3267C941.784 31.3267 946.715 36.2583 946.715 42.3417Z" fill="#010B17"/>
</svg>
