<svg width="684" height="768" viewBox="0 0 684 768" fill="none" xmlns="http://www.w3.org/2000/svg">
<path d="M452.252 503.031V542.837L461.171 548.002L495.682 528.1L452.252 503.031Z" stroke="#010B17" stroke-width="3" stroke-linecap="round" stroke-linejoin="round"/>
<path d="M141.592 642.251V743.537L20.1191 673.447V572.16L107.892 622.803L141.592 642.251Z" fill="white" stroke="#010B17" stroke-width="3" stroke-linecap="round" stroke-linejoin="round"/>
<path d="M245.036 582.535V683.822L141.604 743.53V642.244L157.314 633.178L191.775 613.276L236.168 587.65L245.036 582.535Z" fill="white" stroke="#010B17" stroke-width="3" stroke-linecap="round" stroke-linejoin="round"/>
<path d="M417.537 483.021V523.029L383.078 542.983V502.924L374.158 497.759V458.004L383.837 463.575L417.537 483.021Z" stroke="#010B17" stroke-width="3" stroke-linecap="round" stroke-linejoin="round"/>
<path d="M435.76 652.723V754.009L314.287 683.919V582.633L367.346 613.272L402.06 633.276L435.76 652.723Z" fill="white" stroke="#010B17" stroke-width="3" stroke-linecap="round" stroke-linejoin="round"/>
<path d="M539.253 593.027V694.314L435.771 754.023V652.736L451.482 643.671L485.89 623.768L530.384 598.143L539.253 593.027Z" fill="white" stroke="#010B17" stroke-width="3" stroke-linecap="round" stroke-linejoin="round"/>
<path d="M374.136 458.004V497.759L349.304 483.477L339.676 477.906L374.136 458.004Z" fill="white" stroke="#010B17" stroke-width="3" stroke-linecap="round" stroke-linejoin="round"/>
<path d="M677.147 513.402V614.689L573.715 674.398V573.111L589.425 564.046L677.147 513.402Z" fill="white" stroke="#010B17" stroke-width="3" stroke-linecap="round" stroke-linejoin="round"/>
<path d="M677.184 513.406L589.462 564.049L573.752 573.115L540.001 553.668L530.373 548.097L495.813 568L505.491 573.57L530.373 587.903L539.241 593.017L530.373 598.132L485.879 623.758L451.47 643.66L435.76 652.726L402.06 633.279L367.346 613.274L314.287 582.636L374.137 548.097L383.056 542.982L417.516 523.029L417.769 522.927L452.23 542.83L461.149 547.996L495.66 528.093L452.23 503.025L467.94 493.96L520.997 463.371L555.711 443.316L677.184 513.406Z" fill="#4285F4" stroke="#010B17" stroke-width="3" stroke-linecap="round" stroke-linejoin="round"/>
<path d="M530.332 548.098V587.904L505.45 573.571L495.771 568.001L530.332 548.098Z" stroke="#010B17" stroke-width="3" stroke-linecap="round" stroke-linejoin="round"/>
<path d="M573.741 573.116V674.402L539.23 654.499V593.018L530.361 587.904V548.098L539.99 553.669L573.741 573.116Z" fill="#D9D9D9" stroke="#010B17" stroke-width="3" stroke-linecap="round" stroke-linejoin="round"/>
<path d="M520.994 423.309V463.367L467.936 493.955L452.226 503.021V542.827L417.765 522.923L417.512 523.025V483.016L433.222 473.952L520.994 423.309Z" fill="white" stroke="#010B17" stroke-width="3" stroke-linecap="round" stroke-linejoin="round"/>
<path d="M383.03 502.93V542.988L374.111 548.103L314.261 582.642V643.87L279.547 663.924V562.637L295.257 553.573L329.768 533.67L374.111 508.095L383.03 502.93Z" fill="white" stroke="#010B17" stroke-width="3" stroke-linecap="round" stroke-linejoin="round"/>
<path d="M339.407 437.955L304.946 457.858L296.027 452.692V412.938L339.407 437.955Z" stroke="#010B17" stroke-width="3" stroke-linecap="round" stroke-linejoin="round"/>
<path d="M521.01 423.305L433.238 473.949L417.528 483.013L383.828 463.567L374.149 457.996L339.688 477.898L349.316 483.469L374.149 497.751L383.068 502.916L374.149 508.082L329.806 533.656L295.295 553.56L279.585 562.624L245.885 543.177L236.156 537.556L201.695 557.459L211.424 563.081L236.156 577.413L245.024 582.528L236.156 587.643L191.763 613.267L157.302 633.171L141.592 642.236L107.892 622.788L20.1191 572.145L123.551 512.437L158.112 532.34L166.981 537.455L201.492 517.552L158.112 492.534L261.545 432.826L296.055 452.678L304.974 457.844L339.435 437.941L296.055 412.923L399.538 353.215L521.01 423.305Z" fill="#4285F4" stroke="#010B17" stroke-width="3" stroke-linecap="round" stroke-linejoin="round"/>
<path d="M236.117 537.566V577.423L211.386 563.091L201.656 557.47L236.117 537.566Z" fill="white" stroke="#010B17" stroke-width="3" stroke-linecap="round" stroke-linejoin="round"/>
<path d="M279.533 562.635V663.921L244.972 643.968V582.538L236.104 577.423V537.566L245.833 543.188L279.533 562.635Z" fill="white" stroke="#010B17" stroke-width="3" stroke-linecap="round" stroke-linejoin="round"/>
<path d="M201.48 517.553L166.968 537.456L158.1 532.341V492.535L201.48 517.553Z" fill="white" stroke="#010B17" stroke-width="3" stroke-linecap="round" stroke-linejoin="round"/>
<g filter="url(#filter0_df_6070_46)">
<ellipse cx="374.141" cy="492.793" rx="147" ry="71.5453" transform="rotate(-16.2365 374.141 492.793)" fill="#010B17" fill-opacity="0.24" shape-rendering="crispEdges"/>
</g>
<path d="M230.177 207.165C216.846 232.114 210.18 256.111 210.18 279.193C210.18 282.469 210.294 285.592 210.599 288.601C212.313 308.675 219.931 322.577 233.415 330.348L215.512 321.435L203.209 315.302L203.057 315.226L202.905 315.112C202.371 314.731 201.8 314.426 201.191 314.274L201 314.198L161.539 294.429L157.463 292.41C141.808 283.497 134 266.395 134 241.103C134 218.021 140.666 194.024 153.997 169.075C167.329 144.127 183.822 124.472 203.438 110.074L279.618 148.164C260.001 162.562 243.508 182.216 230.177 207.165Z" fill="white" stroke="#010B17" stroke-width="5.2579" stroke-linecap="round" stroke-linejoin="round"/>
<path d="M412.404 44.5583C398.768 38.921 383.037 40.1398 365.287 48.3673C362.088 49.8147 358.812 51.5287 355.498 53.4332C339.5 62.6509 324.798 75.6777 311.352 92.4753C297.906 109.273 287.279 127.861 279.547 148.163L203.367 110.073C211.099 89.7709 221.726 71.1831 235.172 54.3854C248.618 37.5878 263.321 24.5612 279.318 15.3435C301.144 2.73574 320.113 -0.197174 336.225 6.46855L341.976 9.32528L342.09 9.40143L412.404 44.5583Z" fill="white" stroke="#010B17" stroke-width="5.2579" stroke-linecap="round" stroke-linejoin="round"/>
<path d="M500.935 127.98C500.935 148.853 494.574 170.26 481.852 192.2C469.092 214.139 453.666 230.366 435.497 240.84L433.097 242.212L403.12 259.543L371.468 277.826L345.909 292.566L315.857 309.935L290.108 324.79C288.089 325.971 286.07 327.038 284.09 328.028C266.797 336.674 251.599 338.274 238.496 332.904L233.582 330.504L233.354 330.352C219.87 322.581 212.252 308.678 210.538 288.605C210.233 285.596 210.119 282.473 210.119 279.197C210.119 256.114 216.785 232.118 230.116 207.169C243.448 182.22 259.941 162.566 279.557 148.168C287.289 127.866 297.916 109.278 311.362 92.4809C324.808 75.6833 339.51 62.6565 355.508 53.4388C358.822 51.5343 362.098 49.8199 365.297 48.3725C383.047 40.1451 398.778 38.9262 412.414 44.5635C420.642 47.9916 427.193 53.4003 432.107 60.7897C436.83 67.9125 440.029 76.7875 441.667 87.5288C456.218 80.5965 468.749 79.568 479.262 84.4054L481.014 85.2815C481.966 85.7767 482.919 86.348 483.833 86.9575C495.222 94.5754 500.935 108.25 500.935 127.98Z" fill="#4285F4" stroke="#010B17" stroke-width="5.2579" stroke-linecap="round" stroke-linejoin="round"/>
<path d="M479.3 84.394C468.787 79.5566 456.255 80.585 441.705 87.5174C440.067 76.776 436.868 67.9011 432.145 60.8164L479.3 84.394Z" fill="white" stroke="#010B17" stroke-width="5.2579" stroke-linecap="round" stroke-linejoin="round"/>
<defs>
<filter id="filter0_df_6070_46" x="191.576" y="372.73" width="365.131" height="240.125" filterUnits="userSpaceOnUse" color-interpolation-filters="sRGB">
<feFlood flood-opacity="0" result="BackgroundImageFix"/>
<feColorMatrix in="SourceAlpha" type="matrix" values="0 0 0 0 0 0 0 0 0 0 0 0 0 0 0 0 0 0 127 0" result="hardAlpha"/>
<feOffset dy="4"/>
<feGaussianBlur stdDeviation="2"/>
<feComposite in2="hardAlpha" operator="out"/>
<feColorMatrix type="matrix" values="0 0 0 0 0 0 0 0 0 0 0 0 0 0 0 0 0 0 0.25 0"/>
<feBlend mode="normal" in2="BackgroundImageFix" result="effect1_dropShadow_6070_46"/>
<feBlend mode="normal" in="SourceGraphic" in2="effect1_dropShadow_6070_46" result="shape"/>
<feGaussianBlur stdDeviation="20" result="effect2_foregroundBlur_6070_46"/>
</filter>
</defs>
</svg>
